<?xml version="1.0" encoding="utf-8"?>
<!-- Generator: Adobe Illustrator 27.3.1, SVG Export Plug-In . SVG Version: 6.00 Build 0)  -->
<svg version="1.1" id="Layer_1" xmlns:v="https://vecta.io/nano"
	 xmlns="http://www.w3.org/2000/svg" xmlns:xlink="http://www.w3.org/1999/xlink" x="0px" y="0px" viewBox="0 0 741 140.4"
	 style="enable-background:new 0 0 741 140.4;" xml:space="preserve">
<style type="text/css">
	.st0{fill:url(#SVGID_1_);}
	.st1{fill:#0B1F41;}
	.st2{fill:#0B2040;}
	.st3{enable-background:new    ;}
	.st4{fill:#272727;}
</style>
<linearGradient id="SVGID_1_" gradientUnits="userSpaceOnUse" x1="22.4293" y1="34.8822" x2="214.5101" y2="34.8822" gradientTransform="matrix(1 0 0 -1 0 139.8898)">
	<stop  offset="0" style="stop-color:#15B5EA"/>
	<stop  offset="1" style="stop-color:#0C4E80"/>
</linearGradient>
<path class="st0" d="M213.2,72.3c-2,0-9.6,0.8-16.5,1.8c-10.9,1.7-36.1,2.8-50.1,3.8c-3.3,0.2-7.9,0.8-9.2,1.6
	c-1.6,0.8-0.3,1.7,3.1,2c1.9,0.2,7.2,0.4,11.1,0.9c1.9,0.2,1.4,1.3,0.1,2.2c-1.9,1.5-10.9,6-23.3,12.6c-26.6,14-53.7,27.5-60.6,30.5
	c-8.5,3.8-11.8,5.3-30.8,6.7c-7.8,0.6-12.3,1.4-14.1,2.3c-0.9,0.5-0.6,0.8,0.4,1c0.6-0.5,1.3-0.8,2.1-0.9c1.6,0,3.1,0.1,4.7,0.2
	c0.3,0,0.7,0.1,1,0.2c5.2,0.1,10.5,0.3,15.7-0.5c1-0.2,2.1,0.1,2.8,0.8l21.3-0.2l8.9,0.1c0.5-0.9,1.6-1.5,2.6-1.4
	c10.6,0,21.1,1,31.7,0.2c0.9-0.1,1.8,0.2,2.3,0.9c0.6-0.1,1.1-0.3,1.7-0.5c2.2-1.1,0-2-2.5-2.3c-15.7-1.7-13.7-2.6-0.4-9.6l72.2-38
	l26.3-13.4C215,72.8,214.6,72.2,213.2,72.3L213.2,72.3z"/>
<path class="st1" d="M0,137.5l0.2-7.1c1.3-0.4,3.7-0.9,7-1.6c5.3-1,8.6-2,9.8-2.8c1.1-0.8,2.5-2.8,4.2-6l21.1-55.2L67,0h11.3
	l0.9,1.9l18.1,43c4.1,9.1,7.8,18,11,26.6c3.2,8.6,6,15.6,8.4,21c1.4,3.3,3.3,8.2,5.7,14.7c1.7,4.6,3.6,9,5.7,13.4
	c1.4,2.9,2.4,4.6,3.1,5.1c1.2,1,3.3,1.7,6.1,2.1c3.1,0.4,6.2,1.2,9.1,2.4c0.3,1.7,0.5,3.4,0.5,5.1c0,0.5,0,1.3-0.1,2.3
	c-5.1,0-10.8-0.2-17-0.7c-6.2-0.5-11.8-0.7-16.7-0.7c-5.5,0-9.5,0.1-11.9,0.2l-17.7,0.9l-5.1,0.2c0-2.4,0.1-4.8,0.3-7l11.6-2.5
	c3.5-0.9,5.5-1.6,6-2.1c0.7-0.6,1-1.5,1.1-2.4c0-1-0.2-1.9-0.5-2.8L93,110.4L84.8,90L45,89.8c-1.5,3.3-4.5,11.5-9.2,24.5
	c-1.3,3.7-2,6.2-2,7.5c-0.1,1.4,0.4,2.9,1.5,3.9c1.6,1.3,4.7,2.3,9.2,2.8c0.6,0.1,3.1,0.5,7.4,1.1c0.1,2.5,0.1,4.2,0.1,5.2
	c0,0.8-0.1,1.6-0.2,2.4c-4.3,0-14.6-0.6-30.9-1.8l-4.3,0.7c-4.9,0.8-9.8,1.2-14.7,1.2L0,137.5z M49.1,78.9
	c16.3,0.2,25.8,0.3,28.8,0.3l2.6-0.1c-2.1-6.2-4.8-13.4-8.1-21.7c-3.3-8.2-6.1-14.5-8.1-18.8L49.1,78.9z"/>
<path class="st2" d="M79.4,133.3h67.3v4.1H79.4V133.3z M0,131h52v6.6H0V131z"/>
<g class="st3">
	<path class="st4" d="M253.9,100.5L275,45.4h7.9l22.6,55.1h-8.3l-6.4-16.7h-23l-6.1,16.7H253.9z M269.8,77.9h18.7l-5.8-15.3
		c-1.8-4.6-3.1-8.4-3.9-11.4c-0.7,3.5-1.7,7-3,10.5L269.8,77.9z"/>
	<path class="st4" d="M336.5,85.9l6.7,0.9c-0.7,4.6-2.6,8.2-5.6,10.8c-3,2.6-6.7,3.9-11,3.9c-5.5,0-9.9-1.8-13.2-5.4
		c-3.3-3.6-5-8.7-5-15.4c0-4.3,0.7-8.1,2.1-11.3s3.6-5.7,6.5-7.3c2.9-1.6,6.1-2.4,9.5-2.4c4.3,0,7.9,1.1,10.6,3.3
		c2.8,2.2,4.5,5.3,5.3,9.3l-6.6,1c-0.6-2.7-1.7-4.7-3.3-6.1s-3.5-2-5.8-2c-3.4,0-6.2,1.2-8.3,3.7c-2.1,2.4-3.2,6.3-3.2,11.6
		c0,5.4,1,9.3,3.1,11.7c2.1,2.4,4.7,3.6,8,3.6c2.7,0,4.9-0.8,6.7-2.4C334.9,91.8,336,89.3,336.5,85.9z"/>
	<path class="st4" d="M375,95.6c-2.5,2.1-4.9,3.6-7.2,4.5c-2.3,0.9-4.8,1.3-7.5,1.3c-4.4,0-7.8-1.1-10.1-3.2
		c-2.4-2.1-3.5-4.9-3.5-8.2c0-2,0.4-3.7,1.3-5.4c0.9-1.6,2.1-2.9,3.5-3.9s3.1-1.7,4.9-2.2c1.3-0.4,3.3-0.7,6-1
		c5.5-0.7,9.5-1.4,12.1-2.3c0-0.9,0-1.5,0-1.8c0-2.8-0.6-4.7-1.9-5.8c-1.7-1.5-4.3-2.3-7.7-2.3c-3.2,0-5.5,0.6-7,1.7
		s-2.6,3.1-3.4,5.9l-6.6-0.9c0.6-2.8,1.6-5.1,3-6.9c1.4-1.7,3.4-3.1,6-4c2.6-0.9,5.6-1.4,9.1-1.4c3.4,0,6.2,0.4,8.3,1.2
		c2.1,0.8,3.7,1.8,4.7,3c1,1.2,1.7,2.8,2.1,4.6c0.2,1.2,0.3,3.2,0.3,6.2v9c0,6.3,0.1,10.3,0.4,11.9c0.3,1.7,0.9,3.3,1.7,4.8h-7.1
		C375.6,99.1,375.2,97.5,375,95.6z M374.4,80.5c-2.5,1-6.1,1.9-11.1,2.6c-2.8,0.4-4.8,0.9-5.9,1.4c-1.2,0.5-2,1.2-2.7,2.2
		c-0.6,1-0.9,2-0.9,3.2c0,1.8,0.7,3.3,2,4.5s3.4,1.8,6,1.8c2.6,0,4.9-0.6,7-1.7s3.5-2.7,4.5-4.7c0.7-1.5,1.1-3.8,1.1-6.8V80.5z"/>
	<path class="st4" d="M417.7,100.5v-5c-2.5,4-6.3,5.9-11.2,5.9c-3.2,0-6.1-0.9-8.8-2.6c-2.7-1.8-4.7-4.2-6.2-7.4
		c-1.5-3.1-2.2-6.8-2.2-10.8c0-4,0.7-7.6,2-10.8c1.3-3.2,3.3-5.7,6-7.5c2.7-1.7,5.6-2.6,8.9-2.6c2.4,0,4.5,0.5,6.4,1.5
		c1.9,1,3.4,2.3,4.6,4V45.4h6.7v55.1H417.7z M396.3,80.6c0,5.1,1.1,8.9,3.2,11.5c2.2,2.5,4.7,3.8,7.6,3.8c3,0,5.5-1.2,7.5-3.6
		c2.1-2.4,3.1-6.1,3.1-11.1c0-5.5-1.1-9.5-3.2-12s-4.7-3.8-7.8-3.8c-3,0-5.5,1.2-7.5,3.7C397.3,71.4,396.3,75.3,396.3,80.6z"/>
	<path class="st4" d="M461.9,87.6l7,0.9c-1.1,4.1-3.1,7.3-6.1,9.5s-6.8,3.4-11.4,3.4c-5.8,0-10.5-1.8-13.9-5.4
		c-3.4-3.6-5.1-8.6-5.1-15.1c0-6.7,1.7-11.9,5.2-15.6c3.5-3.7,7.9-5.6,13.5-5.6c5.3,0,9.7,1.8,13.1,5.5c3.4,3.6,5.1,8.7,5.1,15.3
		c0,0.4,0,1,0,1.8h-29.8c0.3,4.4,1.5,7.7,3.7,10.1c2.2,2.3,5,3.5,8.3,3.5c2.5,0,4.6-0.7,6.4-2C459.5,92.6,460.9,90.5,461.9,87.6z
		 M439.7,76.7H462c-0.3-3.4-1.2-5.9-2.6-7.6c-2.2-2.6-5-3.9-8.4-3.9c-3.1,0-5.7,1-7.8,3.1C441.1,70.4,439.9,73.2,439.7,76.7z"/>
	<path class="st4" d="M477.4,100.5V60.6h6.1v5.6c1.3-2,2.9-3.5,5-4.7c2.1-1.2,4.4-1.8,7.1-1.8c3,0,5.4,0.6,7.3,1.8
		c1.9,1.2,3.2,2.9,4,5.2c3.2-4.7,7.3-7,12.3-7c4,0,7,1.1,9.1,3.3c2.1,2.2,3.2,5.6,3.2,10.1v27.4h-6.7V75.3c0-2.7-0.2-4.7-0.7-5.8
		s-1.2-2.1-2.4-2.9c-1.2-0.7-2.5-1.1-4.1-1.1c-2.8,0-5.1,0.9-7,2.8c-1.9,1.9-2.8,4.9-2.8,9v23.2h-6.8V74.6c0-3-0.6-5.3-1.7-6.8
		s-2.9-2.3-5.4-2.3c-1.9,0-3.7,0.5-5.3,1.5c-1.6,1-2.8,2.5-3.5,4.4c-0.7,1.9-1.1,4.7-1.1,8.3v20.7H477.4z"/>
	<path class="st4" d="M541.2,115.9l-0.8-6.4c1.5,0.4,2.8,0.6,3.9,0.6c1.5,0,2.7-0.3,3.6-0.8c0.9-0.5,1.6-1.2,2.2-2.1
		c0.4-0.7,1.1-2.4,2.1-5c0.1-0.4,0.3-0.9,0.6-1.7l-15.2-40h7.3l8.3,23.1c1.1,2.9,2,6,2.9,9.2c0.8-3.1,1.7-6.1,2.8-9.1l8.5-23.3h6.8
		l-15.2,40.6c-1.6,4.4-2.9,7.4-3.8,9.1c-1.2,2.2-2.6,3.9-4.1,4.9c-1.6,1-3.4,1.6-5.6,1.6C544.3,116.7,542.8,116.4,541.2,115.9z"/>
	<path class="st4" d="M578.7,73.7c0-9.1,2.5-16.3,7.4-21.5c4.9-5.2,11.3-7.8,19-7.8c5.1,0,9.7,1.2,13.8,3.6
		c4.1,2.4,7.2,5.8,9.3,10.2c2.1,4.3,3.2,9.3,3.2,14.8c0,5.6-1.1,10.6-3.4,15c-2.3,4.4-5.5,7.8-9.6,10c-4.1,2.3-8.6,3.4-13.4,3.4
		c-5.2,0-9.8-1.3-13.9-3.8c-4.1-2.5-7.2-5.9-9.3-10.3C579.7,83.1,578.7,78.5,578.7,73.7z M586.2,73.8c0,6.6,1.8,11.9,5.4,15.7
		c3.6,3.8,8.1,5.7,13.4,5.7c5.5,0,10-1.9,13.6-5.8c3.5-3.9,5.3-9.3,5.3-16.4c0-4.5-0.8-8.4-2.3-11.7c-1.5-3.3-3.7-5.9-6.7-7.8
		c-2.9-1.8-6.2-2.8-9.8-2.8c-5.2,0-9.6,1.8-13.3,5.3C588.1,59.5,586.2,65.5,586.2,73.8z"/>
	<path class="st4" d="M639.9,100.5V60.6h6.1v5.7c2.9-4.4,7.2-6.6,12.7-6.6c2.4,0,4.6,0.4,6.6,1.3c2,0.9,3.5,2,4.5,3.4
		c1,1.4,1.7,3.1,2.1,5c0.2,1.3,0.4,3.4,0.4,6.6v24.6h-6.8V76.2c0-2.8-0.3-4.8-0.8-6.2c-0.5-1.4-1.5-2.5-2.8-3.3
		c-1.3-0.8-2.9-1.2-4.7-1.2c-2.9,0-5.4,0.9-7.5,2.7c-2.1,1.8-3.1,5.3-3.1,10.4v21.8H639.9z"/>
	<path class="st4" d="M710.1,87.6l7,0.9c-1.1,4.1-3.1,7.3-6.1,9.5c-3,2.3-6.8,3.4-11.4,3.4c-5.8,0-10.5-1.8-13.9-5.4
		c-3.4-3.6-5.1-8.6-5.1-15.1c0-6.7,1.7-11.9,5.2-15.6c3.5-3.7,7.9-5.6,13.5-5.6c5.3,0,9.7,1.8,13.1,5.5c3.4,3.6,5.1,8.7,5.1,15.3
		c0,0.4,0,1,0,1.8h-29.8c0.3,4.4,1.5,7.7,3.7,10.1c2.2,2.3,5,3.5,8.3,3.5c2.5,0,4.6-0.7,6.4-2C707.7,92.6,709.1,90.5,710.1,87.6z
		 M687.9,76.7h22.3c-0.3-3.4-1.2-5.9-2.6-7.6c-2.2-2.6-5-3.9-8.4-3.9c-3.1,0-5.7,1-7.8,3.1C689.3,70.4,688.1,73.2,687.9,76.7z"/>
</g>
</svg>
