<?xml version="1.0" encoding="utf-8"?>
<!-- Generator: Adobe Illustrator 27.7.0, SVG Export Plug-In . SVG Version: 6.00 Build 0)  -->
<svg version="1.1" id="layer" xmlns="http://www.w3.org/2000/svg" xmlns:xlink="http://www.w3.org/1999/xlink" x="0px" y="0px"
	 viewBox="0 0 652 120" style="enable-background:new 0 0 652 120;" xml:space="preserve">
<style type="text/css">
	.st0{fill:#FFFFFF;}
	.st1{clip-path:url(#SVGID_00000101069603434483349460000005721347948042834561_);fill:#FFFFFF;}
</style>
<path class="st0" d="M203.6,78.4c-5.5,5.4-12.4,7.8-19.8,7.8c-19.1,0-27.6-13.2-27.7-27c-0.1-13.9,9-27.6,27.7-27.6
	c7.1,0,13.9,2.7,19.2,7.9l-5.6,5.5c-3.7-3.7-8.7-5.5-13.6-5.5c-13.4,0-19.5,9.9-19.4,19.5c0.1,9.7,5.8,19.1,19.4,19.1
	c4.9,0,10.3-2,14-5.7L203.6,78.4z M234.5,55.8l15-23.2h10.1V33l-20.9,30.6v21.6h-8.4V63.6L210,32.9v-0.4h10L234.5,55.8z M279.1,77.3
	h15.8c4.7,0,11.1-1.5,11.1-7.3c0-5.6-6.2-8.2-11.1-8.2H279L279.1,77.3L279.1,77.3z M279.1,54.4H295c6.3,0,9.5-2.5,9.5-6.6
	c0-3.7-3.3-7.6-9.6-7.6h-15.8V54.4z M294.9,32.5c10,0,17.9,4.6,17.9,15c0,4.4-2.3,8.4-7.3,10.4c6.3,1.9,9,8.1,9,12.1
	c0,11.5-9.2,15-19.5,15h-24.1V32.4C270.9,32.5,294.9,32.5,294.9,32.5z M367.2,85.1h-38.9V32.5H367v8.1h-30.2v14.2h29.1v7.8h-29.1
	v14.1h30.5v8.4H367.2z M390.2,40.2v19.1h16c7,0,10-4.4,10-9.4c0-4.8-3.1-9.7-10-9.7H390.2L390.2,40.2z M427.2,85.1h-9.9l-16-18.2
	h-11.1v18.2h-8.4V32.4c8.2,0,16.4,0.1,24.5,0.1c12.1,0,18.6,8.3,18.6,17.2c0,7.6-3.9,14.9-14.2,16.4l15.7,17.5L427.2,85.1z
	 M463.1,47.3L456.3,64h13.5L463.1,47.3z M474.8,76.5h-23.5l-3.4,8.6h-15.8l23.6-52.6h15l23.5,52.6h-16L474.8,76.5z M517,44.4V57h11
	c3.9,0,5.6-3,5.6-6.1c0-3.3-1.9-6.5-5.8-6.5H517z M550.9,85.1h-16.4l-12.2-17h-5.2v17h-14.9V32.5h25.6c13.5,0,20.5,8.6,20.5,18.1
	c0,6.5-2.3,12-11.1,15.9l13.7,17.7V85.1L550.9,85.1z M607.9,33.4l-21.3,24.9c7.4,8.1,15.9,17.6,23.1,25.9v0.9h-18.5l-15-17.5v17.5
	h-14.9V32.5h14.9v17.3c4.5-5.5,9.4-11.8,13.9-17.3h17.8V33.4L607.9,33.4z M620.3,26h-0.7v2.2h0.7c1.1,0,1.5-0.4,1.5-1.1
	C621.7,26.3,621.2,26,620.3,26 M622.8,32.1h-0.6c-0.1,0-0.2,0-0.3-0.1c-0.2-0.3-0.3-0.5-0.5-0.9c-0.5-0.8-0.8-1.2-1.1-1.7
	c-0.1-0.1-0.2-0.2-0.4-0.2h-0.3v2.6c0,0.2-0.2,0.4-0.3,0.4H619c-0.2,0-0.4-0.2-0.4-0.4v-6.1c0-0.2,0.2-0.3,0.4-0.3h1.7
	c1.5,0,2.3,0.9,2.3,1.9s-0.6,1.8-1.8,1.9c0.4,0.2,1.1,1.2,1.9,2.7C623.1,31.8,623.1,32.1,622.8,32.1 M620.6,23.4
	c-2.8,0-5.1,2.3-5.1,5.3s2.2,5.3,5.1,5.3c2.8,0,5.1-2.3,5.1-5.3C625.6,25.7,623.4,23.4,620.6,23.4 M620.6,34.7
	c-3.3,0-6.1-2.7-6.1-6.1c0-3.5,2.8-6.1,6.1-6.1s6.1,2.7,6.1,6.1C626.7,32.2,623.9,34.7,620.6,34.7"/>
<g>
	<g>
		<defs>
			<path id="SVGID_1_" d="M129.2,88.9L80,117.3v-28l49.2-28.4V88.9z M54.1,75.5L78,89.3v28L29.8,89.6L54.1,75.5z M78,2.6v28
				L54.2,44.4l-24.4-14L78,2.6z M128.2,30.3l-24.3,14.1L80,30.6v-28L128.2,30.3z M53.1,73.8L28.8,87.9l-0.1-55.7l24.3,14L53.1,73.8
				L53.1,73.8z M78,59.3L55.1,72.5V46.2L78,33V59.3z M80,33l22.9,13.2v26.4L80,59.3V33z M79,87.4L56.1,74.3L79,61.1l22.9,13.2
				L79,87.4z M129.7,58.2l-24.9,14.3V46.2l25.8-14.9v-1.7L79.4,0h-1.1L27,29.6l-0.5,0.9l0.1,59.1l0.5,0.9L78.4,120h1.1l51.2-29.6
				l0.5-0.9V59.1L129.7,58.2z"/>
		</defs>
		<use xlink:href="#SVGID_1_"  style="overflow:visible;fill:#FFFFFF;"/>
		<clipPath id="SVGID_00000072964408742552655840000000485951580770321293_">
			<use xlink:href="#SVGID_1_"  style="overflow:visible;"/>
		</clipPath>
		
			<rect x="26.7" y="-0.1" style="clip-path:url(#SVGID_00000072964408742552655840000000485951580770321293_);fill:#FFFFFF;" width="104.5" height="120"/>
	</g>
</g>
</svg>
