<svg width="150" height="19" viewBox="0 0 150 19" fill="none" xmlns="http://www.w3.org/2000/svg">
<g clip-path="url(#clip0_4047_30)">
<path d="M58.5416 1.76991V1.16893L58.2812 0.997519H47.9062L47.7333 1.16893V1.76991L47.9062 1.94132H52.3229L52.4958 2.11274V14.628L52.6687 14.7994H53.4479L53.6208 14.628V2.19534L53.7937 2.02393H58.2937L58.5541 1.76784L58.5416 1.76991ZM60.8749 4.76448C58.1041 4.76448 56.4583 6.73469 56.4583 9.55578V9.98741C56.4583 12.7341 57.8437 15.1298 61.0416 15.1298C63.8124 15.1298 64.8541 13.3289 65.0208 12.1352L64.8499 11.9659H64.0687L63.8979 12.1352C63.4645 13.3351 62.6833 14.1075 61.127 14.1075C58.5229 14.1075 57.752 11.7119 57.752 10.514L57.927 10.3447H65.1145L65.2895 10.1712V9.57024C65.2895 6.74089 63.7333 4.77893 60.8729 4.77893L60.8749 4.76448ZM60.8749 5.79295C62.0854 5.79295 62.8833 6.28654 63.3749 6.95154C63.8729 7.61654 64.0666 8.45089 64.0666 9.14067L63.8958 9.31415H57.8333L57.6583 9.14067C57.6583 8.45502 57.8526 7.61861 58.3499 6.95154C58.8479 6.28654 59.6499 5.79295 60.8708 5.79295H60.8749ZM67.2708 9.90274C67.2708 7.156 68.6541 5.71035 70.6458 5.71035C72.6354 5.71035 73.4166 6.91024 73.6666 8.106L73.8395 8.27741H74.7041L74.877 8.106C74.7041 6.13371 73.0604 4.76035 70.6479 4.76035C68.0437 4.76035 66.0645 6.3898 66.0645 9.90274C66.0645 13.4962 68.0541 15.0451 70.6479 15.0451C73.0645 15.0451 74.627 13.6738 74.877 11.6995L74.7041 11.5281H73.9249L73.752 11.6995C73.5791 12.8994 72.7145 14.0951 70.7312 14.0951C68.7416 14.0951 67.2708 12.7238 67.2708 9.90274ZM84.5624 14.7147V8.70491C84.5624 6.12339 83.1791 4.76035 80.9374 4.76035C79.5541 4.76035 78.3333 5.36132 77.7291 6.3898H77.5562V1.24741L77.2958 0.991323H76.5166L76.3437 1.16274V14.7106L76.5166 14.882H77.2958L77.4687 14.7106V9.29969C77.4687 7.06926 78.5062 5.70621 80.677 5.70621C82.3208 5.70621 83.2812 6.73469 83.2812 8.70078V14.7106L83.4541 14.882H84.2333L84.5791 14.7106L84.5624 14.7147ZM94.7708 14.7147V8.70491C94.7708 6.12339 93.3874 4.76035 91.1458 4.76035C89.7624 4.76035 88.5416 5.36132 87.9374 6.3898H87.7645L87.5916 5.18991L87.4187 5.0185H86.8124L86.6395 5.18991V14.7106L86.8124 14.882H87.5916L87.7645 14.7106V9.29969C87.7645 7.06926 88.802 5.70621 90.9729 5.70621C92.6166 5.70621 93.577 6.73469 93.577 8.70078V14.7106L93.7499 14.882H94.6145L94.7874 14.7106L94.7708 14.7147ZM100.562 4.84295C97.9583 4.84295 95.9791 6.64589 95.9791 9.98535C95.9791 13.331 97.9708 15.1277 100.562 15.1277C103.154 15.1277 105.146 13.3289 105.146 9.98535C105.146 6.63969 103.154 4.84295 100.562 4.84295ZM100.562 5.78676C101.558 5.78676 102.4 6.19567 103 6.92469C103.594 7.65371 103.94 8.70491 103.94 9.98121C103.94 11.2678 103.594 12.3149 103 13.0377C102.406 13.7668 101.562 14.1715 100.562 14.1715C99.5666 14.1715 98.7249 13.7668 98.1249 13.0377C97.5312 12.3087 97.1854 11.2575 97.1854 9.98121C97.1854 8.65121 97.5312 7.60621 98.1249 6.88339C98.7187 6.16469 99.5624 5.7785 100.562 5.7785V5.78676ZM107.833 14.7085V1.16067L107.573 0.989258H106.794L106.621 1.16067V14.7085L106.794 14.8799H107.573L107.833 14.7085ZM113.812 4.83676C111.208 4.83676 109.229 6.63969 109.229 9.97915C109.229 13.3248 111.221 15.1215 113.812 15.1215C116.404 15.1215 118.396 13.3227 118.396 9.97915C118.396 6.6335 116.408 4.83676 113.812 4.83676ZM113.812 5.78056C114.808 5.78056 115.648 6.18948 116.25 6.9185C116.844 7.64752 117.194 8.69871 117.194 9.97502C117.194 11.2616 116.844 12.3087 116.25 13.0315C115.656 13.7606 114.815 14.1653 113.812 14.1653C112.817 14.1653 111.975 13.7606 111.375 13.0315C110.777 12.3025 110.427 11.2513 110.427 9.97502C110.427 8.64502 110.777 7.60002 111.371 6.87719C111.965 6.1585 112.808 5.7723 113.808 5.7723L113.812 5.78056ZM123.667 4.75208C120.896 4.75208 119.417 6.98252 119.417 9.89448C119.417 12.889 120.802 15.0369 123.667 15.0369C125.483 15.0369 126.437 14.2645 126.875 13.4074V13.4921C126.875 16.0736 126.271 18.0356 123.854 18.0356C122.037 18.0356 121.437 17.2652 121.25 16.2368L121.075 16.0633H120.298L120.123 16.2368C120.296 17.8662 121.51 18.9835 123.935 18.9835C126.54 18.9835 128.185 17.354 128.185 13.4074V5.16719L128.01 4.99785H127.404L127.233 5.16719L127.058 6.36915H126.887C126.454 5.59676 125.502 4.73969 123.679 4.73969L123.667 4.75208ZM123.667 5.69589C124.662 5.69589 125.462 6.03665 126.021 6.73263C126.573 7.42861 126.875 8.4798 126.875 9.89241C126.875 11.3071 126.573 12.35 126.021 13.0522C125.469 13.7482 124.669 14.0931 123.667 14.0931C122.671 14.0931 121.871 13.7482 121.312 13.0522C120.76 12.3562 120.462 11.305 120.462 9.89241C120.462 8.52111 120.762 7.47611 121.312 6.75328C121.865 6.04491 122.665 5.6835 123.667 5.6835V5.69589ZM131.271 3.21763V2.01774L131.098 1.84632H130.319L130.058 2.01774V3.21763L130.231 3.38904H131.01L131.271 3.21763ZM131.271 14.7002V5.17958L131.098 5.00817H130.319L130.058 5.17958V14.7002L130.231 14.8717H131.01L131.271 14.7002ZM137.062 4.74589C134.292 4.74589 132.646 6.71611 132.646 9.53719V9.96882C132.646 12.7156 134.031 15.1112 137.229 15.1112C140 15.1112 141.042 13.3103 141.208 12.1166L141.033 11.9473H140.256L140.081 12.1166C139.648 13.3165 138.871 14.0889 137.31 14.0889C134.706 14.0889 133.935 11.6933 133.935 10.4955L134.11 10.3261H141.298L141.473 10.1526V9.55165C141.473 6.80491 139.827 4.76035 137.056 4.76035L137.062 4.74589ZM137.062 5.77437C138.273 5.77437 139.075 6.26795 139.583 6.93295C140.081 7.59795 140.275 8.4323 140.275 9.12208L140.1 9.29556H134.037L133.867 9.12208C133.867 8.43643 134.061 7.60002 134.558 6.93295C135.056 6.26795 135.854 5.77437 137.058 5.77437H137.062ZM149.958 12.3005C149.958 10.4996 148.921 9.71893 146.937 9.30589C144.948 8.87632 143.729 8.70491 143.729 7.33361C143.729 6.30513 144.508 5.70415 145.979 5.70415C147.796 5.70415 148.396 6.47654 148.396 7.50502L148.569 7.67643H149.348L149.521 7.50502C149.521 5.53274 147.877 4.75828 145.896 4.75828C143.646 4.75828 142.521 5.95817 142.521 7.3398C142.521 8.96926 143.731 9.73545 145.729 10.0865C147.719 10.5161 148.75 10.6875 148.75 12.317C148.75 13.3455 148.144 14.1178 146.146 14.1178C144.329 14.1178 143.542 13.0894 143.542 11.8874L143.369 11.716H142.59L142.416 11.8874C142.416 13.6883 143.8 15.0678 146.229 15.0678C148.729 15.1546 149.958 13.9526 149.958 12.3211L149.958 12.3005Z" fill="#808080"/>
<path d="M47.7084 11.9576V14.787H38.7084V0.784783H41.9792V11.937H47.7084V11.9576ZM20.4167 0L12.4375 6.09239C11.6188 3.05652 8.95837 0.826087 5.68754 0.826087H-0.041626V14.8283H5.68754C8.95837 14.8283 11.8334 12.5978 12.4375 9.56196L20.4167 15.6543L28.3959 9.56196V14.8283H37.3959V11.9783H31.4584V0.826087H28.1875V6.09239L20.625 12.1848L18.9896 10.7639L22.6771 7.91391L26.573 4.87804L24.323 3.05446L16.7605 8.94033L15.125 7.51946L22.6875 1.84011L20.4375 0.0165217H20.4336L20.4167 0ZM3.02087 3.65543H5.47921C5.98962 3.65543 6.49171 3.76902 6.95212 3.97761C7.41254 4.1862 7.83546 4.49185 8.19379 4.87391C8.55212 5.25391 8.84379 5.70826 9.04796 6.22044C9.25254 6.73467 9.36462 7.30674 9.36462 7.91391C9.36462 8.47152 9.26442 9.01467 9.07504 9.51859C8.88629 10.0225 8.61046 10.4851 8.26462 10.8775C7.91879 11.2699 7.50629 11.5921 7.03546 11.8172C6.56462 12.0423 6.03962 12.1683 5.47712 12.1683H3.01879V3.65957L3.02087 3.65543Z" fill="#C1C1C1"/>
</g>
<defs>
<clipPath id="clip0_4047_30">
<rect width="150" height="19" fill="white"/>
</clipPath>
</defs>
</svg>
