<?xml version="1.0" encoding="UTF-8"?>
<svg id="Layer_1" data-name="Layer 1" xmlns="http://www.w3.org/2000/svg" viewBox="0 0 1581.33 217.33">
  <defs>
    <style>
      .cls-1 {
        fill: #fff;
      }
    </style>
  </defs>
  <g id="B8wjUF.tif">
    <g>
      <path class="cls-1" d="m814.28,145.3c0,1.25,0,2.5,0,3.76-.09,1.58-.17,3.15-.26,4.73-.72,7.21-2.66,14.08-5.95,20.55-5.04,9.9-12.25,17.83-21.82,23.5-5.54,3.28-11.48,5.56-17.85,6.77-5.48,1.04-11,1.34-16.55,1.35-24.34.04-48.69.04-73.03.05-.62,0-1.23-.06-1.99-.1V13.56c.69-.05,1.3-.14,1.91-.14,22.23,0,44.47-.07,66.7.05,9.55.05,18.73,2.03,27.14,6.76,11.17,6.28,18.63,15.63,22.72,27.75,1.63,4.84,2.61,9.8,2.54,14.9-.14,9.72-2.84,18.7-8.34,26.75-1.66,2.43-3.7,4.59-5.56,6.88-.3.37-.6.75-1.02,1.29,17.6,10.03,28.23,24.79,31.09,44.89.09.87.18,1.74.27,2.61Zm-109.94-56.68c.11.11.21.21.32.32.77.03,1.54.1,2.31.1,10.26,0,20.53.06,30.79-.02,4.7-.04,9.37-.5,14.01-1.43,6.42-1.29,11.12-4.85,14.61-10.19,3.84-5.88,4.57-12.34,3-19.04-1.59-6.76-5.39-11.94-11.67-15.2-3.57-1.85-7.44-2.47-11.31-2.97-3.54-.46-7.14-.62-10.72-.64-9.84-.07-19.68-.01-29.52,0-.55,0-1.09.06-1.79.1-.04.71-.11,1.33-.11,1.94,0,14.28.02,28.56.04,42.84,0,1.4.03,2.81.05,4.21Zm.07,26.61v64.65c.98,0,1.8,0,2.62,0,13.85-.11,27.7-.25,41.56-.3,5.02-.02,9.96-.54,14.83-1.76,4.22-1.05,8.18-2.68,11.49-5.54,7.71-6.68,11.82-15.06,11.7-25.37-.14-12.99-8.45-26.6-24.33-30-5.62-1.2-11.25-1.64-16.96-1.64-13.02-.01-26.03-.02-39.05-.03-.56,0-1.11,0-1.86,0Z"/>
      <path class="cls-1" d="m45.7,102.21c-1,8.04-.23,16,1.26,23.91,2.12,11.25,6.6,21.46,13.78,30.42,6.07,7.58,13.44,13.57,22.11,17.95,8.65,4.37,17.79,6.82,27.45,7.65,12.05,1.03,23.73-.48,34.96-4.91,6.72-2.65,12.91-6.24,18.1-11.39.92-.91,1.32-1.88,1.32-3.18-.02-15.28,0-30.56,0-45.83,0-.41-.07-.82-.13-1.53-3.03-.01-6.02-.03-9.02-.04-3.03,0-6.05,0-9.08,0-3.1,0-6.19,0-9.29,0s-6.05,0-9.08,0c-3.03,0-6.05,0-9.08,0-3.01,0-6.02,0-8.95,0-.47-1.79-.61-22.85-.22-26.07h82.49c.03.8.08,1.61.08,2.42,0,17.95,0,35.91,0,53.86,0,8.31-.03,16.62.02,24.92.01,1.65-.45,2.96-1.52,4.22-7.96,9.43-17.43,16.93-28.35,22.64-6.63,3.46-13.48,6.38-20.71,8.31-3.39.9-6.84,1.7-10.31,2.16-21.92,2.86-42.89-.32-62.62-10.49-13.36-6.89-24.41-16.52-33.16-28.78-8.75-12.25-14.11-25.89-16.67-40.66-1.94-11.18-1.91-22.37-.3-33.62,2.31-16.2,8.19-30.93,17.67-44.19,7.29-10.2,16.42-18.48,27.08-25.08,11.16-6.9,23.25-11.21,36.21-13.17,6.49-.98,13.01-1.47,19.54-1.1,12.02.67,23.65,3.19,34.78,7.89,11.43,4.83,21.47,11.68,30.16,20.51.29.3.57.62.83.95.08.1.09.25.19.55-5.99,5.92-12.02,11.89-18.1,17.89-.35-.19-.63-.27-.81-.45-7.79-8.21-17.28-13.61-27.94-17.15-7.47-2.48-15.14-3.88-22.98-3.95-4.12-.04-8.27.57-12.37,1.16-5.09.73-9.96,2.31-14.76,4.15-7.32,2.82-13.77,7.04-19.56,12.27-11.51,10.39-18.56,23.37-21.79,38.46-.56,2.6-.73,5.29-1.08,7.94-.07.46-.13.92-.2,1.38Z"/>
      <path class="cls-1" d="m517.38,208.7c-54.18.24-98.02-43.86-99.07-96.74-1.13-57.07,45.26-103.23,102.46-101.33,53.15,1.76,95.66,45.6,95.57,98.95-.05,27.25-9.84,50.82-29.05,70.05-19.19,19.21-42.59,29.06-69.91,29.07Zm-71.23-102.76c-.58,2.13-.59,4.27-.04,6.42.15,4.06.33,8.13,1.4,12.08,1.15,4.27,2.1,8.63,3.66,12.76,3.95,10.43,10.22,19.33,18.47,26.87,12.27,11.21,26.75,17.18,43.22,18.3,8.11.55,16.17-.34,24-2.58,17.86-5.1,31.5-15.83,41.17-31.59,9.69-15.8,12.55-33.04,9.53-51.15-3.64-21.83-15.08-38.65-33.94-50.29-8.2-5.06-17.19-8.01-26.73-9.15-3.89-.47-7.84-.48-11.76-.71-.32.04-.65.08-.97.12-3.25.36-6.54.52-9.75,1.13-14.32,2.7-26.9,8.95-37.17,19.35-13.22,13.4-20.32,29.58-21.09,48.45Z"/>
      <path class="cls-1" d="m1038.54,206.03c-8.51-.02-17.02-.04-25.53-.04-2.31,0-2.32.05-3.21-2.11-6.02-14.63-12.04-29.26-18.06-43.89-.45-1.09-.97-2.16-1.51-3.34-.87,0-1.63,0-2.4,0-25.67,0-51.34,0-77.01-.05-1.35,0-1.84.55-2.28,1.63-3.52,8.74-7.09,17.46-10.63,26.19-2.67,6.58-5.35,13.16-7.96,19.76-.48,1.23-1.1,1.75-2.46,1.74-6.26-.05-12.52,0-18.78,0-2.6,0-5.2,0-7.8,0-.01-.14-.08-.24-.19-.31,1.11-2.73,2.2-5.47,3.33-8.2,8.95-21.64,17.91-43.29,26.87-64.93,6.65-16.05,13.31-32.1,19.95-48.15,7.83-18.91,15.64-37.83,23.46-56.74,1.77-4.29,3.58-8.57,5.28-12.88.38-.95.87-1.31,1.85-1.31,5.63.02,11.26.03,16.88,0,.99,0,1.47.39,1.85,1.31,5.26,12.82,10.56,25.62,15.86,38.43,9.44,22.81,18.89,45.62,28.33,68.43,8.96,21.64,17.91,43.29,26.87,64.93,2.58,6.24,5.18,12.47,7.77,18.7.03.17.06.33.09.5,0,0-.04.08-.04.08-.18.07-.36.14-.54.21Zm-59.47-75.91c-.19-.8-.28-1.65-.6-2.41-8.95-21.63-17.92-43.25-26.89-64.87-.45-1.07-.94-2.13-1.42-3.19-.18-.02-.35-.05-.53-.07-9.79,23.4-19.47,46.85-29.34,70.59,1.1,0,1.86,0,2.62,0,17.58,0,35.15,0,52.73,0,.84,0,1.68.04,2.53.06.3-.04.6-.08.9-.12Z"/>
      <path class="cls-1" d="m1388.31,206.06c-.03-3.31-.09-6.61-.09-9.92,0-8.52.03-17.04-.01-25.55,0-1.67.51-2.92,1.7-4.1,6.41-6.32,12.77-12.71,19.14-19.08,24.83-24.84,49.65-49.67,74.48-74.51,19.85-19.86,39.7-39.72,59.55-59.58.24-.24.51-.46.74-.67,1.39.77,18.16,17.37,19.65,19.49-.83.76-1.74,1.53-2.57,2.37-44.63,44.65-89.25,89.3-133.88,133.95-11.34,11.35-22.69,22.7-34.03,34.05-1.19,1.19-2.38,2.39-3.56,3.59-.37-.01-.74-.02-1.11-.03Z"/>
      <path class="cls-1" d="m1111.27,13.23h28.42v193.25h-28.42V13.23Z"/>
      <path class="cls-1" d="m289.39,206.48h-27.61V13.47c1.48-.44,25.16-.54,27.61-.09v193.11Z"/>
      <path class="cls-1" d="m1562.99,206.51c-22.52-22.54-45.03-45.08-67.26-67.34,6.48-6.64,12.79-13.11,19.18-19.66.28.23.55.44.79.67,15.47,15.48,30.93,30.97,46.41,46.44.77.77,1.35,1.5,1.35,2.71.06,12.17.16,24.34.25,36.51,0,.21-.05.42-.07.63-.22,0-.44.02-.66.03Z"/>
      <path class="cls-1" d="m1235.96,206.5h-69.8c0-9.49,0-18.88,0-28.28,1.44-.43,67.02-.56,69.8-.12v28.4Z"/>
      <path class="cls-1" d="m316.66,206.48v-28.49h69.62c.43,1.59.5,26.25.07,28.49h-69.69Z"/>
      <path class="cls-1" d="m1388.28,31.67c6.51-6.51,12.91-12.9,19.47-19.46,16.38,16.38,32.53,32.54,48.77,48.79-6.53,6.45-12.97,12.81-19.59,19.36-16.1-16.11-32.24-32.25-48.66-48.68Z"/>
      <path class="cls-1" d="m814.02,153.78c.09-1.58.17-3.15.26-4.73-.09,1.58-.17,3.15-.26,4.73Z"/>
      <path class="cls-1" d="m814.28,145.3c-.09-.87-.18-1.74-.27-2.61.09.87.18,1.74.27,2.61Z"/>
      <path class="cls-1" d="m1388.31,206.06c.37.01.74.02,1.11.03-.3.22-.6.44-.91.66-.07-.23-.14-.46-.2-.69Z"/>
      <path class="cls-1" d="m45.7,102.21c.07-.46.13-.92.2-1.38-.07.46-.13.92-.2,1.38Z"/>
      <path class="cls-1" d="m1562.99,206.51c.22,0,.44-.02.66-.03-.19.62-.42.41-.66.03Z"/>
      <path class="cls-1" d="m1039.12,205.73c-.03-.17-.06-.33-.09-.5.03.17.06.33.09.5Z"/>
      <path class="cls-1" d="m860.73,205.63c.12.07.18.18.19.31-.06-.1-.13-.21-.19-.31Z"/>
      <path class="cls-1" d="m1038.54,206.03c.18-.07.36-.14.54-.21-.18.07-.36.14-.54.21Z"/>
      <path class="cls-1" d="m704.34,88.62c.11.11.21.21.32.32-.11-.11-.21-.21-.32-.32Z"/>
      <path class="cls-1" d="m446.15,105.95c-.01,2.14-.03,4.28-.04,6.42-.55-2.14-.54-4.28.04-6.42Z"/>
      <path class="cls-1" d="m515.13,36.9c-.32.04-.65.08-.97.12.32-.04.65-.08.97-.12Z"/>
      <path class="cls-1" d="m978.17,130.24c.3-.04.6-.08.9-.12-.3.04-.6.08-.9.12Z"/>
    </g>
  </g>
</svg>