<svg version="1.1" id="Layer_1" xmlns="http://www.w3.org/2000/svg" x="0" y="0" viewBox="0 0 742 277" style="enable-background:new 0 0 742 277" xml:space="preserve"><style>.st0{fill:#fff}</style><path class="st0" d="M256.98 176c-3.43 13.27-10.17 24.92-18.3 35.71-22.47 29.85-52.41 47.02-89.5 51.42-64.29 7.63-122.39-33.54-139.41-92.15-3.78-13.02-6.21-26.33-5.65-39.81C6.29 78.89 35.74 34.2 85.17 13.8c1.2-.49 2.55-.6 3.83-.89.34-.22.68-.43 1.03-.65.26-.27.57-.34.93-.22 1.58.39 4.68-1.08 4.48 1.29-.3 3.6 2.19 3.92 4.01 5.42 4.56 3.77 11.1 5.61 12.16 12.89.26 1.82 2.46 2.78 4.49 2.11 1.8-.59 2.92-.53 3.07 1.66-.12.52-.23 1.04-.35 1.55-.1.1-.29.21-.28.31.02.25.13.49.2.74.44 21.48 15.7 32.8 32.01 31.96 3.08 1.28 5.87 2.92 7.32 6.15v-.1c-.35.28-.71.56-1.06.84-.44.78-1.11 1.06-1.98.91-1.42-1.09-1.81-.18-2.04 1.05-14.11 7.81-28.55 14.92-43.8 20.28-16.9 5.94-34.55 8.31-52.14 10.93-3.1.46-6.43.64-8.83 3.8 5.96 2.03 11.61 1.5 17.38 1.37 15.29-.35 30.46-1.57 45.48-4.35 9.3-1.72 18.47-4.15 27.96-4.75 2.54 2.05 6.87-.2 8.69 3.66 1.37 2.91 4.24 3.44 6.97 4.25 10.21 3.01 17.05 10.14 20.03 19.81 4.1 13.35 1.34 26.97-2.12 40.08-1.92 7.28-4.83 14.41-8.02 21.35-1.13 2.45-2.99 4.91-2.37 7.97-7.33 17.07-17.99 32.22-28.17 47.74 1.56.7 2.2.05 2.85-.39 17.58-11.92 33.5-25.66 46.9-42.24 8.09-10 15-20.92 19.82-32.64 5.41-13.14 8.51-27.23 8.9-41.67 1.33-.06 2.76-.28 3.76.81 4.47 4.89 10.22 8.39 14.49 13.53 2.59 3.12 5.44 6.12 8.57 8.68 6.3 5.13 10.29 12.54 17.13 17.11.39.27.35 1.21.51 1.85z"/><path class="st0" d="M158.06 76.12c-1.45-3.23-4.24-4.86-7.32-6.15 8.43-2.78 14.66-8.01 16.2-16.97 1.6-9.31-.58-17.75-7.2-25.14-10.76-12.02-33.83-14.61-40.59 7.54-.15-2.19-1.27-2.25-3.07-1.66-2.03.67-4.22-.29-4.49-2.11-1.06-7.28-7.61-9.12-12.16-12.89-1.81-1.5-4.31-1.83-4.01-5.42.2-2.38-2.9-.9-4.48-1.29 10.72-4.89 22.23-6.59 33.78-7.55 15.37-1.28 30.58.25 45.43 4.6 49.06 14.39 86.98 55.05 93.31 110.6 2.17 19.05.89 38.14-6.49 56.31-.17-.63-.12-1.58-.53-1.85-6.85-4.57-10.83-11.98-17.13-17.11-3.14-2.56-5.98-5.56-8.57-8.68-4.27-5.15-10.01-8.65-14.49-13.53-1-1.09-2.43-.87-3.76-.81.32-19.22-3.12-37.7-10.9-55.33-6.9-15.63-9.55-16.73-25.28-10.24-6.09 2.52-12.17 5.12-18.25 7.68zM319.01 123.63c.22 7.21-.19 15.91 1.85 24.41 2.53 10.55 11.58 16.9 23.15 16.39 10.64-.47 19.27-7.9 20.95-18.04 1.96-11.85 1.96-11.83-10.03-11.87-2.49-.01-4.99-.1-7.47-.35-4.68-.48-6.6-3.44-6.55-7.86.05-4.23 2.8-7.18 7.26-7.27 8.83-.18 17.67-.19 26.49.01 4.56.1 7.58 3.29 7.81 8.12.34 7.32.35 14.7-1 21.92-4.04 21.66-24.14 34.65-46.82 30.5-18.33-3.35-29.98-15.08-32.15-34.35-1.74-15.37-1.41-30.93-.04-46.37 1.98-22.41 21.77-36.89 45.63-34.19 16.44 1.86 28.94 11.88 32.41 26.07 1.05 4.28.98 8.38-3 11.26-3.77 2.73-9.21 1.78-11.92-2.15-1.4-2.03-2.36-4.38-3.47-6.61-5-10.08-13.32-14.73-23.44-13.09-10.17 1.66-17.4 9.63-18.66 20.57-.82 7.15-1.01 14.31-1 22.9zM550.25 138.52c-.26 6.53-.57 13.03-2.45 19.3-4.55 15.19-18.1 23.53-35.84 22.17-15.17-1.17-26.95-12.62-28.88-28.32-1.2-9.78-1.45-19.59.7-29.3 3.65-16.49 16.75-26.03 34.49-25.21 16.49.76 28.63 11.74 30.76 27.95.59 4.44.83 8.94 1.22 13.41zm-16.81-.09c-.52-4.87-.15-9.39-1.4-13.79-2.29-8.02-7.92-12.62-15.81-12.63-7.96-.01-14.1 4.4-15.92 12.43-2.18 9.66-2.36 19.5.26 29.13 2.08 7.61 7.69 11.59 15.43 11.59 7.99 0 13.58-4.21 15.85-11.84 1.51-5.01 1.16-10.2 1.59-14.89zM417.46 105.17c5.44-4.61 11.23-7.34 17.9-7.99 17.62-1.71 30.43 9.12 31.07 27.16.55 15.48.26 30.99.06 46.49-.1 7.58-6.74 11.56-12.63 7.89-3.4-2.12-3.85-5.63-3.86-9.22-.02-13.66.15-27.33-.06-40.99-.2-13.29-12.52-20.58-24.29-14.53-6.86 3.53-8.42 9.91-8.46 16.87-.08 13.16-.03 26.33-.01 39.49 0 3.29-.48 6.37-3.55 8.3-5.33 3.34-11.88.16-12.67-6.13-.08-.66-.11-1.33-.11-1.99-.01-21.16-.05-42.33 0-63.49.01-5.75 2.33-8.78 6.82-9.49 4.86-.77 7.84 1.43 9.79 7.63zM702.11 180.1c-8.91.06-17.83-1.54-25.78-6.75-3.32-2.18-6.23-4.79-5.04-9.36 1.43-5.45 6.78-7.12 12.47-3.48 7.37 4.71 15.31 6.22 23.85 5.54 2.69-.21 5.24-.86 7.69-1.98 4.48-2.05 6.58-5.55 6.07-10.41-.52-4.98-4.03-7.08-8.49-7.7-5.6-.77-11.25-1.26-16.88-1.84-12.97-1.34-20.94-7.8-22.04-17.87-1.49-13.69 4.7-23.36 17.92-27.28 12.17-3.6 24.06-2.34 35.44 3.2 5.47 2.66 6.94 5.97 4.99 10.25-1.9 4.2-5.54 5.2-11 2.69-6.3-2.89-12.75-4.79-19.78-4.25-3.26.25-6.26 1.14-8.72 3.27-3.12 2.7-3.64 6.35-2.64 10.07 1.06 3.92 4.48 5.22 8.06 5.7 5.77.78 11.6 1.16 17.38 1.91 13.72 1.79 20.89 8.34 21.89 19.81 1.09 12.54-5.27 22.04-17.74 26.2-5.57 1.88-11.36 2.51-17.65 2.28zM592.08 180.17c-9.29.01-18.24-1.39-26.28-6.44-5.74-3.61-7.31-7.66-4.66-11.84 2.47-3.91 6.75-4.39 12.27-.99 8.88 5.47 18.36 6.66 28.28 4.09 6.28-1.63 9.13-5.66 8.6-11.1-.47-4.83-3.22-7.06-9.73-8.12-7.06-1.15-14.28-.83-21.27-2.63-8.6-2.22-14.74-6.91-16.28-16.11-1.68-10.05 1.16-18.49 9.81-24.38 11.39-7.76 34.43-7.3 45.69.76 3.5 2.51 4.52 5.7 2.47 9.54-2.15 4-5.75 4.45-9.45 2.8-6.44-2.88-12.88-5.38-20.12-4.91-2.19.14-4.33.39-6.32 1.26-4.42 1.92-6.81 5.19-6.4 10.16.42 5.15 4 7.06 8.4 7.66 6.26.87 12.59 1.23 18.85 2.08 11.63 1.58 18.74 7.9 20.14 17.58 1.8 12.52-3.11 21.92-14.05 26.9-5.42 2.45-12.42 3.76-19.95 3.69zM657.16 139.04c0 10.31.06 20.61-.02 30.92-.05 6.85-2.85 10.03-8.41 9.89-5.28-.13-7.87-3.25-7.88-9.91-.05-20.95-.07-41.89 0-62.84.02-6.41 2.92-9.68 8.16-9.66 4.97.02 8.02 3.05 8.1 8.68.15 10.97.04 21.94.04 32.91 0 .01.01.01.01.01zM595.54 246.78c0 3.83.02 7.66-.01 11.49-.02 2.42-.41 4.62-2.96 5.83-2.45 1.16-4.74.8-6.32-1.17-1.69-2.1-2.7-.63-4.1.12-9.99 5.32-21.48-.25-22.16-10.7-.46-7.07 4.04-12.47 11.35-13.29 2.97-.33 5.99-.07 8.98-.29 1.58-.12 4.1 1.15 4.36-1.7.21-2.35-.55-4.69-2.94-5.9-3.04-1.54-6.14-1.18-9.18.05-1.38.56-2.67 1.41-4.09 1.76-2.04.51-4.16.31-5.14-1.9-.91-2.07-1.05-4.36.97-5.93 7.02-5.46 14.89-5.21 22.76-2.66 6.04 1.96 8.46 6.55 8.51 14.29.02 3.33 0 6.66 0 9.99-.02.01-.02.01-.03.01zm-18.86 9.05c5.19-.06 8.03-2.58 8.11-6.81.09-4.93-3.75-2.58-5.79-2.72-3.55-.25-7.98-.55-8.3 4.62-.26 4.21 3.26 4.73 5.98 4.91zM498.26 246.17c-2.99 0-5.99.11-8.97-.03-3.05-.14-3.3 1.28-2.47 3.69.94 2.74 2.75 4.54 5.52 5.22 3.16.78 6.28.61 9.17-1.07 3.07-1.78 6.24-4.07 9.06.11 1.87 2.78-.38 6.34-5.19 8.73-13.76 6.83-27.98-.83-29.7-16-.49-4.34-.28-8.62 1-12.81 2.95-9.65 11.14-14.58 21.23-12.82 8.99 1.57 15.58 10.2 14.96 19.57-.23 3.54-1.83 5.55-5.63 5.43-2.99-.1-5.98-.02-8.98-.02zm-4.16-7.34c.83 0 1.68.14 2.47-.03 1.78-.38 4.6 1.23 5.16-1.11.63-2.63-1.06-5.15-3.56-6.54-3.39-1.87-6.69-1.56-9.54 1.18-1.47 1.42-2.69 3.42-2.22 5.28.61 2.37 3.09.85 4.72 1.17.96.19 1.98.04 2.97.05zM720.71 246.17c-3 0-6.01.16-8.99-.04-3.1-.21-3.42 1.37-2.58 3.64 1.04 2.8 2.95 4.8 6.03 5.39 3.03.58 5.99.36 8.71-1.18 3.07-1.73 6.22-4.16 9.01.15 1.84 2.84-.43 6.41-5.23 8.74-14.59 7.09-29.06-1.5-29.76-17.69-.14-3.33-.12-6.64.73-9.92 2.64-10.25 10.33-15.51 20.86-14.2 9.16 1.14 15.6 9.06 15.6 18.99 0 4.08-1.53 6.31-5.89 6.13-2.82-.11-5.66-.02-8.49-.01zm-4.34-7.35v.02c.66 0 1.36.14 1.98-.03 1.89-.52 4.97 1.48 5.56-1.29.67-3.15-1.43-5.53-4.52-6.85-2.72-1.17-5.21-.75-7.51.82-2.02 1.38-3.46 3.56-2.98 5.9.58 2.81 3.28.96 4.99 1.39.79.2 1.65.04 2.48.04zM535.68 264.87c-4.89-.07-9.59-.83-13.8-3.55-2.5-1.62-4.01-3.78-2.47-6.69 1.64-3.08 4.26-3.31 7.22-1.69 4.19 2.29 8.55 3.65 13.37 2.19 2.05-.62 3.73-1.66 3.76-4.04.03-2.61-2.02-3.27-4.04-3.59-3.28-.52-6.61-.69-9.88-1.25-5.28-.9-8.85-3.87-9.61-9.35-.77-5.57.96-10.37 6.04-13.2 7.76-4.32 15.67-3.59 23.41.21 2.63 1.29 3.45 3.62 2.2 6.29-1.3 2.77-3.59 3.15-6.3 2.08-3.23-1.28-6.42-2.84-10.06-2.35-2.24.3-4.38.94-4.62 3.67-.27 2.96 1.9 3.54 4.17 3.84 3.13.41 6.31.58 9.39 1.22 6.18 1.28 9.15 4.49 9.93 10.25.78 5.74-1.58 10.58-6.66 13.37-3.74 2.06-7.83 2.66-12.05 2.59zM431.16 234.55c0-7.17-.07-14.33.03-21.5.05-3.73.97-7.08 5.55-7.54 3.82-.38 6.22 2.04 6.24 6.54.07 12.16.29 24.34-.1 36.49-.16 4.81 1.47 5.83 5.8 5.53 4.97-.35 9.99-.02 14.99-.1 3.51-.06 6 1.2 6.11 4.97.12 4.12-2.52 5.3-6.25 5.26-8.33-.09-16.66 0-25-.04-5.43-.03-7.21-1.63-7.34-7.11-.16-7.5-.03-15-.03-22.5zM637.83 246.13c0-2.83.04-5.65-.01-8.48-.06-3.19 1.35-7.2-4.36-7.2-1.5 0-2.28-1.81-2.29-3.44-.01-1.8.66-3.76 2.46-3.85 4.37-.23 4.19-2.92 4.29-6.11.26-8.5 6.99-13.56 15.35-11.81 2.31.48 4.08 1.66 4.19 4.22.12 2.64-.98 4.44-3.92 4.75-2.92.31-4.98 1.34-4.77 4.98.13 2.22.53 3.31 3 3.37 2.91.08 5.98.6 5.67 4.6-.27 3.49-2.89 4.17-5.8 3.84-2.78-.32-2.82 1.28-2.81 3.31.06 7.65-.02 15.29.05 22.94.04 3.89-.88 7.07-5.38 7.51-3.71.36-5.58-2.25-5.66-7.64-.06-3.66-.01-7.31-.01-10.97-.01-.02 0-.02 0-.02zM608.99 246.3c0-3.16.03-6.33-.01-9.49-.04-2.93 1.06-6.46-4.15-6.3-1.75.05-2.45-2-2.34-3.85.11-1.83.85-3.58 2.73-3.63 3.94-.11 3.75-2.52 3.82-5.37.19-8.68 5.7-13.33 14.39-12.5 2.76.26 5.02 1.27 5.28 4.26.26 2.93-1.37 4.65-4.4 4.88-3.31.24-4.33 2.03-4.42 5.3-.11 3.76 2.58 2.85 4.37 3.07 2.74.34 4.57 1.51 4.47 4.29-.12 3.06-2.26 4.42-5.15 4-3.51-.51-3.66 1.36-3.62 4.04.13 7.49-.02 14.99.06 22.48.04 3.99-1.12 7.28-5.61 7.2-4.48-.07-5.56-3.43-5.45-7.39.12-3.66.03-7.33.03-10.99zM675.12 249.15c0 3.49.06 6.98-.02 10.47-.07 3.23-2.11 4.96-5.04 5.08-2.89.12-5.33-1.29-5.52-4.54-.67-11.45-.82-22.92.08-34.36.35-4.41 5.48-6.57 8.43-3.47 2.34 2.46 3.57 1.37 5.6.25 4.22-2.32 8.64-2.26 12.92-.18 3.09 1.5 4.54 4.17 3.1 7.41-1.44 3.22-4.11 3.8-7.5 2.52-8.2-3.1-11.94-.42-12 8.35-.02 2.83 0 5.65 0 8.48-.02-.01-.03-.01-.05-.01zM648.78 61.93c5.74-.1 10.23 4.24 10.22 9.89-.01 5.29-4.5 9.9-9.76 10.03-5.44.14-10.22-4.57-10.24-10.08-.01-5.41 4.29-9.75 9.78-9.84zM379 241.04c7.1-2.48 11.16-1.87 13.57 1.74 2.98 4.46 2.53 15.55-.78 18.97-2.49 2.58-5.65 2.49-8.83 2.1-1.82-.23-3.3-2.4-5.56-.14-1.07 1.07-2.22-.75-2.22-2.22-.03-9.97-.02-19.93-.01-29.9 0-1.23.25-2.46 1.72-2.58 1.85-.14 2.1 1.23 2.1 2.67.02 2.99.01 5.97.01 9.36zm.02 10.88c-.07 1.83.15 3.59.77 5.35.85 2.41 2.71 3.33 4.93 3.44 2.33.12 4.24-1.07 5.08-3.26 1.47-3.84 1.44-7.81-.08-11.63-.8-2-2.56-2.93-4.76-2.95-2.17-.02-3.82.81-4.87 2.77-1.08 1.99-1.09 4.13-1.07 6.28zM405.68 256.44c1.48-4.54 2.89-9.1 4.49-13.6.49-1.38.57-3.82 3.03-2.98 2.06.7 1.05 2.63.63 3.89-2.92 8.65-5.96 17.26-8.98 25.87-.76 2.18-2.19 3.79-4.5 4.24-1.4.27-3.33.75-3.89-1.12-.57-1.92 1.52-1.62 2.54-2.25 3.56-2.2 4.66-5.44 3.38-9.34-1.86-5.68-3.94-11.29-5.85-16.96-.49-1.46-1.77-3.48.42-4.3 2.31-.86 2.49 1.55 3 3.01 1.56 4.5 3.03 9.02 4.53 13.54.4-.01.8-.01 1.2 0zM90.02 12.26c-.34.22-.68.43-1.03.65.12-.58.47-.78 1.03-.65zM139.02 106.09c6.77-.82 13.53-.33 20.15.89 12.89 2.38 24.37 12.23 24.85 27.28.51 15.77-3.74 30.44-10.15 44.65-2.43 5.37-4.45 10.93-6.93 16.28-1.3 2.8-2.17 5.94-4.74 8.03-.62-3.06 1.25-5.53 2.37-7.97 3.19-6.94 6.1-14.07 8.02-21.35 3.46-13.11 6.22-26.73 2.12-40.08-2.97-9.67-9.82-16.8-20.03-19.81-2.73-.81-5.59-1.34-6.97-4.25-1.82-3.87-6.14-1.62-8.69-3.67zM155.02 77.77c-.52.66-1.15 1.11-2.05 1.05.23-1.24.63-2.15 2.05-1.05z"/><path class="st0" d="M118.81 36.96c-.03.35-.05.7-.08 1.05-.07-.25-.18-.49-.2-.74-.02-.09.18-.2.28-.31zM158.06 76.02c.03.76-.49.83-1.06.84.35-.28.71-.56 1.06-.84z"/></svg>