<?xml version="1.0" encoding="utf-8"?>
<!-- Generator: Adobe Illustrator 27.7.0, SVG Export Plug-In . SVG Version: 6.00 Build 0)  -->
<svg version="1.1" id="Layer_1" xmlns="http://www.w3.org/2000/svg" xmlns:xlink="http://www.w3.org/1999/xlink" x="0px" y="0px"
	 viewBox="0 0 1330.75 145.06" style="enable-background:new 0 0 1330.75 145.06;" xml:space="preserve">
<style type="text/css">
	.st0{fill:#FFFFFF;}
</style>
<g>
	<path class="st0" d="M581.25,56.56c9.31-12.39,21.4-15.81,35.42-14.07c8.61,1.07,15.41,5.31,20.08,12.56
		c2.09,3.25,3.17,3.13,5.57,0.22c10.26-12.43,26.52-16.56,41.57-10.85c14.71,5.58,19.21,17.9,19.62,31.9
		c0.59,20.31,0.15,40.66,0.22,60.98c0.01,3.25-0.98,4.94-4.58,4.86c-18.27-0.41-14.67,2.73-14.93-14.36
		c-0.23-14.66-0.09-29.33-0.03-43.99c0.02-4.2-0.53-8.33-1.46-12.37c-3.35-14.56-17.92-19.13-29.2-9.15
		c-8.12,7.18-10.41,16.93-10.65,27.11c-0.37,15.49-0.27,30.99-0.05,46.49c0.07,4.7-1.31,6.42-6.21,6.36
		c-13.02-0.17-13.02,0.03-13.03-13.27c-0.01-14.5,0.04-29-0.03-43.49c-0.02-4.65,0.09-9.32-1.06-13.91
		c-3.64-14.6-18.25-19.18-29.74-9.24c-5.84,5.05-8.42,11.84-9.93,19.16c-0.98,4.76-1.11,9.57-1.09,14.42
		c0.06,13.66-0.07,27.33,0.07,40.99c0.04,3.79-1.15,5.41-5.16,5.3c-16.31-0.42-13.39,2.28-13.49-13.29
		c-0.18-26.16,0.07-52.33-0.16-78.49c-0.04-5.04,1.48-6.71,6.49-6.64C579.96,43.93,579.96,43.71,581.25,56.56z"/>
	<path class="st0" d="M111.78,109.68c0,8.16-0.03,16.32,0.02,24.48c0.02,2.54-0.38,4.52-3.34,5.27
		c-21.79,5.47-43.75,7.89-65.45,0.43c-24.17-8.31-37.4-26.27-41.67-51.03C-1.3,73.58-0.25,58.55,6.48,44.38
		C17,22.25,35.12,10.29,58.91,6.68c16.06-2.44,31.84-0.66,47.2,4.84c3.18,1.14,4.61,2.59,3.94,6.18c-0.57,3.08-0.25,6.32-0.55,9.46
		c-0.54,5.61-0.85,5.68-5.91,3.42c-14.25-6.35-29.11-8.25-44.4-5.23c-20.65,4.08-35.81,21.96-37.59,43.2
		c-1.65,19.62,3.6,36.31,19.83,48.38c11.1,8.26,24.01,10.44,37.47,9.13c14.25-1.39,12.37,0.67,12.46-14
		c0.06-8.99,0.15-17.99-0.04-26.98c-0.09-4.13,1.54-5.47,5.6-5.52c14.87-0.2,14.87-0.31,14.87,14.63
		C111.79,99.35,111.79,104.52,111.78,109.68z"/>
	<path class="st0" d="M969.2,80.59c-0.96,1.57-0.47,3.25-0.47,4.84c-0.05,16.99-0.13,33.98,0.04,50.97
		c0.04,4.28-1.29,5.83-5.72,5.83c-13.95,0-13.95,0.16-13.95-13.92c0-37.64,0-75.29,0.01-112.93c0-6.67,0.08-6.82,6.61-6.76
		c15.05,0.14,12.83-1.94,12.96,12.96c0.11,12.66,0,25.32,0.05,37.98c0.01,1.59-0.52,3.3,0.59,4.83c1.95-0.31,2.54-2.05,3.52-3.28
		c12.89-16.14,25.8-32.26,38.54-48.51c2.3-2.94,4.8-4.24,8.48-4.04c4.15,0.23,8.33,0.02,12.49,0.09c1.25,0.02,2.91-0.41,3.46,1.22
		c0.41,1.22-0.71,2.13-1.43,3.02c-7.94,9.86-15.89,19.7-23.86,29.54c-7.02,8.67-13.93,17.44-21.16,25.94
		c-2.45,2.89-2.33,4.79-0.01,7.66c16.14,19.93,32.13,39.99,48.16,60.01c0.83,1.04,1.67,2.08,2.44,3.17
		c1.21,1.71,0.88,2.87-1.36,2.88c-6.66,0.04-13.32,0.04-19.99-0.02c-2.76-0.02-3.87-2.35-5.25-4.17
		c-13.71-18.03-27.39-36.08-41.1-54.11C971.39,82.63,970.79,81.18,969.2,80.59z"/>
	<path class="st0" d="M497.46,144.12c-9.26,0.4-18.19-1.52-27.11-3.65c-3.21-0.76-4.51-2.4-4.1-5.62c0.37-2.97,0.85-5.95,0.87-8.93
		c0.03-4.04,1.9-4.27,5.11-3.21c9.37,3.11,18.94,5.19,28.89,4.8c6.28-0.24,12.19-1.9,17.45-5.36c11.02-7.25,12.1-21.44,2.35-30.32
		c-6.81-6.19-15.55-8.88-23.65-12.7c-6.78-3.2-13.72-6.05-19.77-10.59c-19.04-14.3-18.16-41.49,1.85-54.51
		c10.77-7.01,22.94-8.75,35.43-8.15c7.97,0.39,15.82,1.96,23.49,4.42c3.01,0.97,3.85,2.47,3.41,5.48
		c-1.77,12.18-1.72,12.22-13.51,9.12c-9.33-2.45-18.75-3.18-28.13-0.72c-6.6,1.73-11.94,5.33-13.24,12.71
		c-1.37,7.75,1.67,13.6,8.09,17.94c6.27,4.24,13.45,6.55,20.2,9.77c6.17,2.94,12.26,6,17.84,9.99c11.75,8.4,16.85,19.95,15.54,34.16
		c-1.39,15.07-9.69,25.14-23.63,30.64C516.05,142.88,506.9,144.43,497.46,144.12z"/>
	<path class="st0" d="M857.62,55.89c10.92-12.9,24.45-15.96,39.76-12.85c14.85,3.01,23.99,14.79,25.38,31.9
		c1.68,20.79,0.4,41.63,0.79,62.44c0.06,3.27-1.1,4.88-4.66,4.8c-17.26-0.38-14.32,2.51-14.53-13.88
		c-0.18-13.83-0.08-27.66-0.08-41.49c0-3.84-0.32-7.63-0.97-11.43c-1.83-10.69-5.75-15.58-14.35-17.56
		c-9.39-2.16-18.88,1.29-24.29,8.94c-5,7.08-6.69,15.25-6.86,23.65c-0.3,14.99-0.14,29.99-0.2,44.99c-0.02,6.67-0.1,6.82-6.66,6.74
		c-14.16-0.19-12.52,2.22-12.54-12.34c-0.07-38.66-0.03-77.31-0.02-115.97c0-7.23,0.04-7.32,7.21-7.25
		c13.43,0.13,11.94-1.84,12.01,11.93C857.67,30.96,857.62,43.42,857.62,55.89z"/>
	<path class="st0" d="M234.84,130.51c-10.85,13.69-24.66,15.61-39.74,12.56c-13.14-2.66-20.62-10.88-22.62-24.01
		c-2-13.14,3.28-24.78,14.3-31.07c12.38-7.06,25.9-8.03,39.7-6.89c6.83,0.56,6.9,0.31,6.24-6.47c-1.34-13.89-9.92-18.44-24.58-17.21
		c-7.03,0.59-13.71,2.89-19.48,7.12c-3.34,2.44-4.3,1.43-4.92-2.26c-1.71-10.17-0.97-11.89,8.57-15.88
		c12.41-5.18,25.16-5.92,38.11-2.35c10.75,2.96,17.29,10.21,20.2,20.8c1.28,4.66,2.03,9.45,2.05,14.29
		c0.08,19.65,0.04,39.29,0.2,58.94c0.03,3.03-0.85,4.38-3.92,4.06c-0.66-0.07-1.33-0.01-2,0
		C235.86,142.19,235.86,142.19,234.84,130.51z M221.01,95.76c-1.81,0.09-4.49,0.05-7.12,0.37c-6.5,0.8-12.79,2.22-17.57,7.26
		c-4.27,4.51-4.54,9.92-2.91,15.38c1.59,5.33,5.56,8.66,11.06,9.68c15.16,2.8,26.74-5.8,28.58-21.06
		c1.3-10.8,0.62-11.58-10.19-11.63C222.53,95.76,222.2,95.76,221.01,95.76z"/>
	<path class="st0" d="M1293.15,97.85c-8.99,0-18,0.18-26.98-0.08c-4.21-0.12-5,1.38-4.55,5.28c2.09,18.08,18.55,29.22,37.22,25
		c5.59-1.26,10.77-3.52,15.59-6.54c2.91-1.82,4.28-1.34,4.21,2.21c-0.02,0.83,0.01,1.67,0.01,2.5c0.06,12.98-0.02,13.37-12.7,16.31
		c-11.18,2.6-22.47,2.55-33.62-0.44c-13.34-3.58-22.79-11.82-27.2-24.9c-5.94-17.6-6.57-35.33,1.7-52.5
		c12.23-25.39,43.79-27.56,61.51-16.67c12.42,7.63,15.83,20.37,17.35,33.82c0.36,3.14,0.41,6.31,0.55,9.47
		c0.24,5.46-0.67,6.49-6.12,6.52C1311.14,97.89,1302.15,97.85,1293.15,97.85z M1283.88,82.79c6,0,11.99,0.03,17.99-0.02
		c1.77-0.02,3.78,0.25,4.08-2.48c1.03-9.41-6.56-20.2-15.77-22.32c-14.4-3.31-26.72,5.75-28.29,20.69
		c-0.34,3.22,1.15,4.15,4.01,4.13C1271.89,82.75,1277.88,82.79,1283.88,82.79z"/>
	<path class="st0" d="M402.17,144.14c-21.96,0-39.84-15.42-43.88-39.73c-1.69-10.2-1.28-20.22,1.71-30.1
		c6.95-22.93,24.59-32.73,45.53-32.32c23.26,0.46,39.7,14.3,44.06,36.11c3.67,18.37,1.87,35.93-10.59,50.92
		C430.16,139.65,418.38,144.4,402.17,144.14z M377.71,93c-0.29,7.54,0.92,15.08,4.32,22.1c4.4,9.1,11.76,13.53,21.96,13.73
		c10.27,0.21,18.04-3.97,22.19-13.16c6.53-14.49,6.87-29.37,0.16-44c-4.37-9.52-12-14.71-22.55-14.43
		c-10.66,0.28-18.21,5.72-22.45,15.54C378.59,79.14,377.53,85.84,377.71,93z"/>
	<path class="st0" d="M1159.27,56.9c9.7-12.99,22.45-16.41,37.14-14.33c11.63,1.65,20.03,7.7,24.54,18.75
		c2.35,5.76,3.74,11.77,3.78,17.99c0.1,19.16-0.03,38.33,0.15,57.49c0.04,4.2-1.51,5.49-5.55,5.39
		c-15.59-0.4-12.81,2.09-13.16-12.72c-0.4-17.14,0.91-34.31-0.88-51.44c-1.33-12.69-6.33-19.08-16.51-20.69
		c-10.81-1.71-20.82,3.95-25.43,14.42c-3.57,8.1-4.28,16.76-4.44,25.42c-0.25,13.16-0.19,26.33,0,39.49
		c0.06,4.05-1.18,5.63-5.39,5.52c-15.8-0.42-13.18,2.14-13.27-13.09c-0.15-26.33,0.06-52.66-0.14-78.99
		c-0.04-4.83,1.54-6.82,6.29-6.26c3.74,0.44,8.23-1.55,11.06,1.33C1160.19,47.97,1157.65,52.58,1159.27,56.9z"/>
	<path class="st0" d="M310.02,78.1c5.64-10.58,10.9-20.21,15.9-29.97c1.58-3.09,3.68-4.42,7.09-4.29c3.99,0.16,7.99,0.06,11.99,0.05
		c3.65-0.01,4.42,1.29,2.42,4.5c-7.76,12.43-15.27,25.03-23.19,37.36c-2.34,3.64-2.27,6.32,0,9.9c8.62,13.66,16.97,27.5,25.38,41.29
		c2.93,4.81,2.64,4.49-2.64,5.32c-12.88,2.01-21.4-2.09-25.98-14.9c-2.38-6.65-6.85-12.54-10.18-18.88
		c-1.77-3.37-2.87-2.84-4.48,0.1c-5.34,9.8-10.9,19.48-16.16,29.31c-1.6,2.99-3.48,4.53-7.01,4.31c-4.15-0.26-8.33-0.02-12.49-0.07
		c-4.95-0.06-5.16-0.39-2.56-4.58c8.77-14.16,17.49-28.35,26.48-42.38c2.08-3.24,2.33-5.57,0.17-8.93
		c-7.73-12.06-15.12-24.33-22.57-36.56c-0.89-1.46-2.88-2.91-1.72-4.81c0.95-1.56,3.05-1,4.66-0.96
		c20.47,0.48,14.51-3.41,24.37,14.5C302.93,64.64,306.22,70.97,310.02,78.1z"/>
	<path class="st0" d="M777.24,90.8c0-9-0.1-18,0.05-26.99c0.05-3.39-1.05-5.05-4.6-4.67c-0.99,0.11-2,0.01-3,0.01
		c-9.03-0.01-12.02-4.21-9.32-12.88c0.49-1.55,1.48-2.13,2.87-2.3c1.15-0.14,2.33-0.14,3.49-0.16c11.92-0.12,10.31,1.27,10.52-10.86
		c0.22-12.97-2.14-10.72,10.87-14.79c1.11-0.35,2.25-0.64,3.33-1.08c3.28-1.34,4.56-0.29,4.48,3.24
		c-0.14,6.16,0.11,12.33-0.08,18.49c-0.11,3.64,1.19,5.17,4.9,5.03c4.82-0.18,9.67,0.09,14.49-0.06c3.9-0.12,5.52,1.64,5.23,5.41
		c-0.03,0.33,0,0.67,0.01,1c0.15,8.96,0.15,8.96-8.96,8.96c-4,0-8,0.04-12,0c-2.13-0.02-3.62,0.62-3.59,3.06
		c0.23,17.48-1.05,35.01,0.62,52.43c1.16,12.09,9.54,17.04,20.98,12.98c4.27-1.52,5.46-0.92,5.4,3.72
		c-0.13,11.17-1.06,12.36-12.39,12.73c-3.32,0.11-6.7,0.21-9.98-0.24c-14.47-1.97-22.8-11.24-23.24-26.04
		c-0.27-8.99-0.05-17.99-0.05-26.99C777.28,90.8,777.26,90.8,777.24,90.8z"/>
	<path class="st0" d="M152.41,71.12c0,18.31,0.01,36.62,0,54.94c0,5.43,0.08,10.69,5.95,13.72c2.46,1.26,0.61,2.3-0.81,2.97
		c-13.31,6.31-25.04-0.82-25.1-15.46c-0.1-27.63-0.03-55.27-0.03-82.9c0-10.65,0.12-21.31-0.05-31.96
		c-0.07-4.13,1.09-6.08,5.65-5.95c16.34,0.49,14.26-2.58,14.37,14.2C152.49,37.49,152.41,54.31,152.41,71.12z"/>
	<path class="st0" d="M1052.2,71.11c0-19.49,0.1-38.99-0.07-58.48c-0.04-4.4,1.14-6.29,5.89-6.16c16.23,0.46,13.62-2.17,13.68,13.78
		c0.14,35.32,0.07,70.65,0.01,105.97c-0.01,5.39,0.55,10.32,5.8,13.41c2.28,1.34,0.91,2.28-0.64,3.06
		c-12.87,6.45-24.65-0.73-24.68-15.09C1052.17,108.76,1052.2,89.94,1052.2,71.11z"/>
	<path class="st0" d="M745.57,93.39c0,14.33-0.1,28.66,0.06,42.98c0.05,4.22-1.24,5.97-5.72,5.84
		c-15.75-0.47-13.45,2.33-13.53-13.42c-0.13-25.82-0.04-51.64-0.03-77.47c0-7.2,0.21-7.45,7.15-7.45c13.86,0,11.97-0.96,12.06,12.03
		C745.65,68.4,745.58,80.89,745.57,93.39z"/>
	<path class="st0" d="M1096.4,92.85c0-14.16,0.13-28.33-0.07-42.48c-0.07-4.6,1.26-6.65,6.2-6.57c15.49,0.26,13.01-1.13,13.08,13.06
		c0.13,26.16,0.05,52.32,0.03,78.47c0,6.71-0.1,6.87-6.6,6.78c-14.34-0.19-12.5,2.27-12.61-12.78
		C1096.33,117.17,1096.4,105.01,1096.4,92.85z"/>
	<path class="st0" d="M1106.38,23.08c-6.16-0.01-11.14-4.71-11.06-10.45c0.07-5.62,5.24-10.82,10.88-10.97
		c5.54-0.14,10.53,5.08,10.55,11.05C1116.77,18.66,1112.34,23.09,1106.38,23.08z"/>
	<path class="st0" d="M736.45,23.08c-6.01,0.03-10.27-4.24-10.3-10.34c-0.04-6.2,4.58-11.14,10.35-11.07
		c5.53,0.06,10.94,5.41,10.99,10.87C747.54,18.19,742.46,23.05,736.45,23.08z"/>
</g>
</svg>
