<svg width="454" height="226" viewBox="0 0 454 226" fill="none" xmlns="http://www.w3.org/2000/svg">
<path d="M62.6999 34.1H34.5999V62.2H62.6999V34.1Z" fill="#C1C1C1"/>
<path d="M61.9999 180.5V79.3H35.3999V180.5H61.9999ZM238.8 181.5V156.7C234.9 156.7 231.6 156.5 229.2 156.1C226.4 155.7 224.3 154.7 222.9 153.3C221.5 151.9 220.6 149.9 220.1 147.3C219.7 144.8 219.5 141.5 219.5 137.5V102.1H238.8V79.3H219.5V39.8H192.8V137.7C192.8 146 193.5 153 194.9 158.6C196.3 164.1 198.7 168.6 202 172C205.3 175.4 209.7 177.8 215 179.3C220.4 180.8 227.2 181.5 235.3 181.5H238.8ZM391.6 180.5V32H364.9V180.5H391.6ZM167.1 89.2C159.7 81.2 149.3 77.2 136.1 77.2C129.7 77.2 123.9 78.5 118.6 81.1C113.4 83.7 108.9 87.3 105.4 91.9L103.9 93.8V92.1V79.3H77.5999V180.5H104.1V126.6V130.3C104.1 129.7 104.1 129.1 104.1 128.5C104.4 119 106.7 112 111.1 107.5C115.8 102.7 121.5 100.3 128 100.3C135.7 100.3 141.6 102.7 145.5 107.3C149.3 111.9 151.3 118.4 151.3 126.7V126.9V180.4H178.2V123C178.3 108.6 174.5 97.2 167.1 89.2ZM351.1 129.7C351.1 122.4 349.8 115.6 347.3 109.2C344.7 102.9 341.1 97.3 336.6 92.5C332 87.7 326.5 84 320.1 81.3C313.7 78.6 306.6 77.3 298.9 77.3C291.6 77.3 284.7 78.7 278.3 81.4C271.9 84.2 266.3 87.9 261.6 92.6C256.9 97.3 253.1 102.9 250.4 109.3C247.6 115.7 246.3 122.6 246.3 129.9C246.3 137.2 247.6 144.1 250.2 150.5C252.8 156.9 256.5 162.5 261.1 167.2C265.7 171.9 271.4 175.7 278 178.4C284.6 181.2 291.9 182.6 299.7 182.6C322.3 182.6 336.3 172.3 344.7 162.7L325.5 148.1C321.5 152.9 311.9 159.4 299.9 159.4C292.4 159.4 286.2 157.7 281.5 154.2C276.8 150.8 273.6 146 271.9 140.1L271.6 139.2H351.1V129.7ZM271.8 120.4C271.8 113 280.3 100.1 298.6 100C316.9 100 325.5 112.9 325.5 120.3L271.8 120.4Z" fill="#C1C1C1"/>
<path d="M422 167.3C421.5 166.1 420.8 165.1 419.9 164.2C419 163.3 418 162.6 416.8 162.1C415.6 161.6 414.3 161.3 413 161.3C411.6 161.3 410.4 161.6 409.2 162.1C408 162.6 407 163.3 406.1 164.2C405.2 165.1 404.5 166.1 404 167.3C403.5 168.5 403.2 169.8 403.2 171.1C403.2 172.5 403.5 173.7 404 174.9C404.5 176.1 405.2 177.1 406.1 178C407 178.9 408 179.6 409.2 180.1C410.4 180.6 411.7 180.9 413 180.9C414.4 180.9 415.6 180.6 416.8 180.1C418 179.6 419 178.9 419.9 178C420.8 177.1 421.5 176.1 422 174.9C422.5 173.7 422.8 172.4 422.8 171.1C422.8 169.8 422.5 168.5 422 167.3ZM420.4 174.3C420 175.3 419.4 176.2 418.7 176.9C418 177.6 417.1 178.2 416.1 178.6C415.1 179 414.1 179.2 412.9 179.2C411.8 179.2 410.7 179 409.7 178.6C408.7 178.2 407.8 177.6 407.1 176.9C406.4 176.2 405.8 175.3 405.4 174.3C405 173.3 404.8 172.3 404.8 171.1C404.8 170 405 168.9 405.4 167.9C405.8 166.9 406.4 166 407.1 165.3C407.8 164.6 408.7 164 409.7 163.6C410.7 163.2 411.7 163 412.9 163C414 163 415.1 163.2 416.1 163.6C417.1 164 418 164.6 418.7 165.3C419.4 166 420 166.9 420.4 167.9C420.8 168.9 421 169.9 421 171.1C421.1 172.3 420.8 173.3 420.4 174.3ZM414.8 171.9C415.6 171.8 416.2 171.5 416.7 171C417.2 170.5 417.5 169.8 417.5 168.8C417.5 167.7 417.2 166.9 416.5 166.3C415.9 165.7 414.8 165.4 413.5 165.4H409.1V176.7H411.2V172.1H412.7L415.5 176.7H417.7L414.8 171.9ZM413.7 170.3C413.4 170.3 413.1 170.3 412.7 170.3H411.2V167.1H412.7C413 167.1 413.3 167.1 413.7 167.1C414 167.1 414.3 167.2 414.6 167.3C414.9 167.4 415.1 167.6 415.2 167.8C415.3 168 415.4 168.3 415.4 168.7C415.4 169.1 415.3 169.4 415.2 169.6C415 169.8 414.8 170 414.6 170.1C414.3 170.2 414 170.3 413.7 170.3Z" fill="#C1C1C1"/>
</svg>
