<svg xmlns="http://www.w3.org/2000/svg" width="169.223" height="30" viewBox="0 0 169.223 30">
  <g id="logo" transform="translate(-193.255 -114.053)">
    <g id="logo_icon" transform="translate(310.715 114.053)">
      <path id="Path_3719" d="M432.746,121.553a.424.424,0,1,1,.424.424A.424.424,0,0,1,432.746,121.553Zm2.963.642a.642.642,0,1,0-.642-.642A.642.642,0,0,0,435.708,122.2Zm2.8,8.475a1.2,1.2,0,1,0,1.2,1.2A1.2,1.2,0,0,0,438.509,130.67Zm-.292-2.961a1.022,1.022,0,1,0-1.022-1.022A1.022,1.022,0,0,0,438.218,127.709Zm-3.359-.205a.817.817,0,1,0-.816-.817A.817.817,0,0,0,434.859,127.5Zm-6.428,3.724a.642.642,0,1,0,.642.642A.642.642,0,0,0,428.431,131.228Zm-2.586.219a.424.424,0,1,0,.424.423A.424.424,0,0,0,425.845,131.446Zm2.326,5.134a.424.424,0,1,0,.424.424A.424.424,0,0,0,428.17,136.58Zm16.509-9.893a1.321,1.321,0,1,0,1.32-1.32A1.321,1.321,0,0,0,444.679,126.687Zm-15.384-.424a.424.424,0,1,0,.424.424A.424.424,0,0,0,429.3,126.263Zm20.344-3.389a1.321,1.321,0,1,0-1.321-1.321A1.32,1.32,0,0,0,449.639,122.874Zm-4.1,9a1.4,1.4,0,1,0,1.4-1.4A1.4,1.4,0,0,0,445.535,131.869Zm-6.9-9.5a.817.817,0,1,0-.816-.817A.817.817,0,0,0,438.639,122.37Zm10.2,4.317a1.37,1.37,0,1,0,1.37-1.369A1.369,1.369,0,0,0,448.841,126.687Zm-6.881,1.2a1.2,1.2,0,1,0-1.2-1.2A1.2,1.2,0,0,0,441.96,127.887Zm-.009-5.312a1.022,1.022,0,1,0-1.022-1.022A1.022,1.022,0,0,0,441.951,122.575Zm3.694.178a1.2,1.2,0,1,0-1.2-1.2A1.2,1.2,0,0,0,445.645,122.753Zm-4.416,9.116a1.321,1.321,0,1,0,1.321-1.32A1.321,1.321,0,0,0,441.229,131.869Zm-10.52,4.492a.642.642,0,1,0,.642.642A.642.642,0,0,0,430.709,136.361Zm8.807,4.584a1.022,1.022,0,1,0,1.022,1.022A1.022,1.022,0,0,0,439.516,140.945Zm2.33-3.942a1.2,1.2,0,1,0-1.2,1.2A1.2,1.2,0,0,0,441.846,137Zm.591,8.607a1.022,1.022,0,1,0,1.022,1.022A1.022,1.022,0,0,0,442.436,145.61Zm-5.485-9.629A1.022,1.022,0,1,0,437.973,137,1.022,1.022,0,0,0,436.952,135.981Zm-6.068,5.562a.424.424,0,1,0,.424.424A.423.423,0,0,0,430.883,141.543Zm13.756-5.861A1.321,1.321,0,1,0,445.96,137,1.321,1.321,0,0,0,444.64,135.683Zm-1.479,5.085a1.2,1.2,0,1,0,1.2,1.2A1.2,1.2,0,0,0,443.161,140.768Zm-3.928,5.048a.817.817,0,1,0,.817.816A.816.816,0,0,0,439.233,145.816Zm-5.252.393a.424.424,0,1,0,.424.424A.423.423,0,0,0,433.982,146.208Zm.033-4.241a.642.642,0,1,0-.642.642A.643.643,0,0,0,434.015,141.967Zm-2.134-15.922a.642.642,0,1,0,.642.642A.642.642,0,0,0,431.88,126.045Zm-.471,5.008a.816.816,0,1,0,.816.816A.817.817,0,0,0,431.409,131.053Zm2.231,5.134a.817.817,0,1,0,.816.817A.817.817,0,0,0,433.641,136.187Zm2.77,9.8a.642.642,0,1,0,.642.642A.642.642,0,0,0,436.411,145.99Zm-.621-14.121a1.022,1.022,0,1,0-1.022,1.022A1.022,1.022,0,0,0,435.79,131.869Zm.465,9.281a.817.817,0,1,0,.817.816A.816.816,0,0,0,436.254,141.151Z" transform="translate(-445.992 -117.654)" fill="#1e22aa"></path>
      <path id="Path_3720" d="M510.543,116.634a67.058,67.058,0,0,0-7.5-.765c-.6-.316-1.262-1.531-2.85-1.774-1.879-.289-7.446.977-10.152,1.772-2.31-.571-6.21.216-7.228,1.327a.956.956,0,0,0-.246.606c-.073,1.106.9,2.06,2.138,3.834-5.461,5.494-9.854,14.039-9.992,22.353h26.641a10.113,10.113,0,0,1-.679-8.946,9.5,9.5,0,0,1,1.512-2.17,7.015,7.015,0,0,0,.511-.607l-.046-.1a3.862,3.862,0,0,0-.869-.008c-6.074.55-9.957,3.435-11.58,8.591h-.234c1.306-6.515,5.76-11.137,15.132-10.916a20.528,20.528,0,0,1,4.426.616,5.365,5.365,0,0,0,.707-5.323,16.578,16.578,0,0,0,1.257-3.384C511.7,120.878,512.58,117.031,510.543,116.634Z" transform="translate(-474.712 -114.053)" fill="#1e22aa"></path>
      <path id="Path_3721" d="M557.02,168.146c-4.108-.544-8.637-.061-12.783-1.769-2.178-.9-3.108-1.863-3.568-3.189a1.694,1.694,0,0,0-.064-.16h-.091a1.487,1.487,0,0,0-.115.162,6.926,6.926,0,0,0-.594,1.449,7.937,7.937,0,0,0,2.827,7.885H564.3A10.781,10.781,0,0,0,557.02,168.146Z" transform="translate(-512.534 -142.589)" fill="#1e22aa"></path>
    </g>
    <g id="sub_title" transform="translate(193.987 135.702)">
      <path id="Path_3722" d="M199.8,169.854h2.945v2.829a4.588,4.588,0,0,1-3.464,1.559,4.158,4.158,0,1,1,3.291-6.756l-.808.808a3.074,3.074,0,0,0-2.482-1.213,3,3,0,1,0,2.194,5.139v-1.213H199.8Z" transform="translate(-195.01 -165.928)" fill="#3cdbc0"></path>
      <path id="Path_3723" d="M219.2,166.2h5.717v1.213h-4.446V169.5h3.523v1.213h-3.523v2.367h4.561v1.213H219.2Z" transform="translate(-209.103 -166.089)" fill="#3cdbc0"></path>
      <path id="Path_3724" d="M237.85,166.2H239l4.446,5.947V166.2h1.27v8.084h-1.155l-4.446-5.947v5.947h-1.27Z" transform="translate(-219.972 -166.089)" fill="#3cdbc0"></path>
      <path id="Path_3725" d="M260.516,166.2h5.716v1.213h-4.446V169.5h3.523v1.213h-3.523v2.367h4.562v1.213h-5.832Z" transform="translate(-233.178 -166.089)" fill="#3cdbc0"></path>
      <path id="Path_3726" d="M286.686,167.417h-2.425V166.2h6.121v1.213h-2.425v6.871h-1.27Z" transform="translate(-247.014 -166.089)" fill="#3cdbc0"></path>
      <path id="Path_3727" d="M302.912,166.2h1.27v3.407h3.985V166.2h1.27v8.084h-1.27v-3.522h-3.985v3.522h-1.27Z" transform="translate(-257.881 -166.089)" fill="#3cdbc0"></path>
      <path id="Path_3728" d="M324.748,166.2h5.716v1.213h-4.446V169.5h3.523v1.213h-3.523v2.367h4.562v1.213h-5.832Z" transform="translate(-270.605 -166.089)" fill="#3cdbc0"></path>
      <path id="Path_3729" d="M343.4,166.2h3.349a2.52,2.52,0,0,1,2.656,2.541,2.421,2.421,0,0,1-1.548,2.309l1.836,3.234h-1.443l-1.675-3H344.67v3H343.4Zm3.349,3.927a1.386,1.386,0,0,0,0-2.771H344.67v2.771Z" transform="translate(-281.473 -166.089)" fill="#3cdbc0"></path>
      <path id="Path_3730" d="M363.9,166.2h1.386l3.233,8.084h-1.328l-.808-2.079h-3.579L362,174.288H360.67Zm2.022,4.85-1.328-3.349-1.328,3.349Z" transform="translate(-291.535 -166.089)" fill="#3cdbc0"></path>
      <path id="Path_3731" d="M383.2,166.2h3.234a2.6,2.6,0,1,1,0,5.2h-1.964v2.887H383.2Zm3.234,4.042a1.443,1.443,0,0,0,0-2.887h-1.964v2.887Z" transform="translate(-304.661 -166.089)" fill="#3cdbc0"></path>
      <path id="Path_3732" d="M402,171.4l-3.06-5.2h1.444l2.252,3.927,2.252-3.927h1.443l-3.06,5.2v2.887H402Z" transform="translate(-313.836 -166.089)" fill="#3cdbc0"></path>
    </g>
    <g id="title" transform="translate(193.255 114.841)">
      <path id="Path_3713" d="M194.865,135.163l-1.61-2.491a15.269,15.269,0,0,0,1.613-.971,3.63,3.63,0,0,0,1.491-3.331V116.655h3.775v11.669a6.513,6.513,0,0,1-3.218,5.76C196.506,134.342,194.865,135.163,194.865,135.163Z" transform="translate(-193.255 -116.357)" fill="#1e22aa"></path>
      <path id="Path_3714" d="M225.09,129.445h-6.406l-1.166,3.226h-4.05l6.315-16.016h4.233l6.315,16.016h-4.05Zm-5.308-3.089h4.187l-2.082-5.674Z" transform="translate(-205.032 -116.357)" fill="#1e22aa"></path>
      <path id="Path_3715" d="M262.438,126.33v-2.814H270.7v7.047s-2.265,2.037-6.818,2.037c-6.612,0-9.129-3.89-9.129-8.488,0-4.942,3.112-8.168,9.129-8.168,4.37,0,6.292,1.51,6.292,1.51l-1.373,3.295s-1.487-1.419-4.919-1.419c-3.02,0-5.217,1.922-5.217,4.782,0,2.929,1.647,5.1,5.4,5.1a9.409,9.409,0,0,0,3-.5V126.33Z" transform="translate(-229.086 -115.942)" fill="#1e22aa"></path>
      <path id="Path_3716" d="M313.668,116.655V125.9c0,5.194-2.288,7.093-7.207,7.116-4.85-.023-7.138-1.922-7.138-7.116v-9.243H303.1v9.358c0,2.654,1.007,3.729,3.363,3.729,2.4,0,3.409-1.03,3.409-3.729v-9.358Z" transform="translate(-255.058 -116.357)" fill="#1e22aa"></path>
      <path id="Path_3717" d="M348.172,129.445h-6.406l-1.167,3.226h-4.05l6.315-16.016H347.1l6.315,16.016h-4.05Zm-5.308-3.089h4.187l-2.082-5.674Z" transform="translate(-276.748 -116.357)" fill="#1e22aa"></path>
      <path id="Path_3718" d="M393.412,132.808c-2.448,0-3.318-1.053-4.233-2.906l-1.19-2.448a1.881,1.881,0,0,1-.366.023h-2.539v5.194h-3.8V116.655h6.658c4.37,0,6.544,1.9,6.544,5.4a4.6,4.6,0,0,1-2.723,4.644l1.212,2.334a1.319,1.319,0,0,0,1.327.824,3.477,3.477,0,0,0,1.258-.3l1.007,2.4A5.8,5.8,0,0,1,393.412,132.808Zm-2.677-10.753c0-1.373-.8-2.059-2.448-2.059h-3.2v4.3h2.631C389.8,124.3,390.736,123.565,390.736,122.055Z" transform="translate(-302.815 -116.357)" fill="#1e22aa"></path>
    </g>
  </g>
</svg>