<svg xmlns="http://www.w3.org/2000/svg" id="Layer_2" viewBox="0 0 222.17 222.17"><defs><style>.cls-1{fill:#1e4fad;}.cls-1,.cls-2{stroke-width:0px;}.cls-2{fill:#fff;fill-rule:evenodd;}</style></defs><g id="Layer_1-2"><circle class="cls-1" cx="111.08" cy="111.08" r="111.08" transform="translate(-46.01 111.08) rotate(-45)"></circle><path class="cls-2" d="M131.34,69.84c4.04-.13,8.08-.03,12.13-.04h1.67v-21.01c-2.16-.22-4.42-.53-6.68-.64-4.14-.18-8.29-.39-12.44-.29-6.33.13-12.33,1.68-17.56,5.43-6,4.32-9.3,10.38-10.55,17.55-.52,2.96-.65,6.01-.73,9.02-.12,4.72-.03,9.43-.02,14.15v1.77h-20.11v23.48h19.99v59.01h24.43v-58.91h19.93c1.02-7.8,2.02-15.53,3.07-23.58-1.6,0-3.04,0-4.48,0-5.67.02-18.68,0-18.68,0,0,0,.06-11.64.19-16.68.2-6.92,4.3-9.03,9.84-9.23Z"></path></g></svg>