<svg version="1.1" id="Layer_1" xmlns="http://www.w3.org/2000/svg" x="0" y="0" viewBox="0 0 486 129" style="enable-background:new 0 0 486 129" xml:space="preserve"><style>.st0{fill:#fff}</style><path class="st0" d="M186.5 86.01c-6.99 0-13.99.21-20.97-.08-3.78-.16-4.15 1.51-3.55 4.46 1.13 5.56 5.95 9.8 12.46 10.56 7.27.85 13.85-1.01 19.55-5.68 2.93-2.4 9.52-1.46 11.54 1.61.78 1.19.01 1.83-.57 2.59-11.81 15.37-37.44 18.58-49.24 6.53-8.54-8.71-8.67-19.24-5.74-30.26 4.66-17.5 23.83-30.15 41.76-27.51 14.85 2.19 23.46 15.7 20.69 32.05-.73 4.3-2.2 6.23-6.96 5.85-6.29-.49-12.64-.12-18.97-.12zm-4.6-10.67c3.82 0 7.64.16 11.44-.06 2.16-.13 5.13 1.38 6.34-1.11s-.36-5.14-1.64-7.5c-1.32-2.43-3.44-4.05-5.89-5.14-9.56-4.25-22.65.8-27.19 10.28-1.18 2.47-1.13 3.62 2.01 3.55 4.98-.1 9.96-.02 14.93-.02zM367.84 85.95c-7.16 0-14.32.09-21.48-.04-2.81-.05-3.28.85-2.8 3.53 1.59 8.82 11.03 13.77 21.64 11.1 4.43-1.11 8.27-3.22 11.69-6.32 4.2-3.8 7.06.68 9.73 2.47 3.07 2.06-.66 3.6-1.81 4.79-9.94 10.31-22.19 13.96-35.97 10.64-11.88-2.86-18.32-11.74-18.8-23.95-.9-22.48 18.41-41.39 40.9-40.07 15.11.89 25.31 13.02 23.6 28.1-1.11 9.75-1.11 9.75-10.72 9.75-5.32-.01-10.65-.01-15.98 0zm-4.83-10.33h12.47c7.04 0 8.19-2.09 4.71-8.51-1.05-1.93-2.42-3.56-4.33-4.69-9.8-5.78-25.24-.4-29.59 10.2-1.1 2.68-.12 3.09 2.28 3.03 4.81-.11 9.64-.04 14.46-.03zM328.99 15.92c2.05 0 3.06.11 4.05-.02 3.54-.47 4.42.97 3.37 4.24-.5 1.57-.59 3.27-.84 4.92-.32 2.13-1.38 2.85-3.68 2.97-12.79.7-17.35 5.56-18.38 18.71-.17 2.17.44 2.64 2.3 2.6 2.67-.05 5.34.12 8-.04 2.81-.16 3.54 1.05 2.93 3.6-2.14 8.9.9 8.08-9.01 7.58-5.78-.29-7.17 1.87-7.93 7.04-1.95 13.33-4.66 26.54-6.83 39.84-.56 3.41-1.7 4.7-5.38 4.6-8.86-.23-8.86-.02-7.31-8.67 2.22-12.45 4.34-24.91 6.7-37.34.78-4.1-.17-5.68-4.63-5.48-1.92.08-5.98 2.38-5.94-2.35.05-7.72 1.11-9.26 6.61-8.66 5.63.61 7.28-1.68 8.15-6.82 1.76-10.36 6.06-19.35 16.27-24.25 4.02-1.91 8.19-2.71 11.55-2.47zM109.16 94.75c5.96-10.35 11.41-19.8 16.86-29.27 1.49-2.59 3.41-5.05 4.35-7.84 2.63-7.84 8.24-9.33 15.55-8.39 2.5.32 3.41.6 1.9 3.13-11.41 19.14-22.67 38.37-34.22 57.42-2.7 4.46-7.61 1.56-11.47 2.04-3.26.41-2.78-2.75-3.23-4.61-4.39-17.91-8.59-35.86-13.08-53.74-.87-3.46-.16-4.25 3.3-4.25 9.67 0 9.73-.15 11.82 8.97 2.73 11.82 5.33 23.65 8.22 36.54zM22.83 111.86c-1.16 0-2.33-.08-3.49.02-2.7.22-3.4-.75-2.9-3.5 4.47-24.68 8.8-49.37 13.17-74.07.84-4.74 1.96-9.46 2.42-14.24.34-3.54 1.93-4.25 5.15-4.22 8.94.1 8.91-.04 7.32 8.92-4.88 27.63-9.88 55.25-14.46 82.93-.88 5.3-4.11 4.02-7.21 4.16zM226.3 111.87c-1.73 0-2.91-.09-4.06.02-2.88.25-3.24-1.03-2.78-3.6 4.76-26.49 9.41-52.99 14.1-79.49.46-2.62.9-5.24 1.47-7.83.39-1.8-.37-4.6 2.29-4.86 3.6-.35 7.3-.14 10.91.22 1.13.11.44 1.71.28 2.6-5.26 29.95-10.6 59.88-15.76 89.85-.88 5.06-4.65 2.17-6.45 3.09zM55.98 111.87c-7.38 0-7.33.01-6.2-6.41 3.03-17.15 6.16-34.28 8.89-51.48.62-3.93 2.16-4.89 5.77-4.69 8.78.48 8.67-1.96 6.9 8.18-2.79 16.01-5.87 31.98-8.34 48.04-.78 5.14-2.38 7.7-7.02 6.36zM259.48 111.87c-7.83 0-7.81 0-6.62-6.7 3.04-17.15 6.2-34.29 8.96-51.49.61-3.8 2.17-4.46 5.53-4.41 8.61.12 8.53-.03 6.99 8.5-2.85 15.83-5.7 31.67-8.31 47.54-.77 4.65-1.6 8.44-6.55 6.56zM426.34 25.75c-.05 4.9-5.09 9.41-10.43 9.35-4.53-.05-7.48-2.75-7.54-6.89-.07-4.97 5.36-9.92 10.69-9.74 4.2.14 7.32 3.25 7.28 7.28zM438.69 35.03c-4.71-.05-7.62-2.59-7.6-6.65.02-5.23 5.17-10.16 10.38-9.96 4.69.18 7.63 3.05 7.54 7.39-.09 5.09-4.78 9.28-10.32 9.22zM464.26 18.97c4.92.06 7.67 2.37 7.72 6.47.05 4.73-5.51 9.68-10.77 9.56-4.64-.1-7.19-2.56-7.2-6.97-.01-5.18 4.47-9.14 10.25-9.06z"/></svg>