<?xml version="1.0" encoding="utf-8"?>
<!-- Generator: Adobe Illustrator 27.7.0, SVG Export Plug-In . SVG Version: 6.00 Build 0)  -->
<svg version="1.1"
	 id="svg3047" xmlns:dc="http://purl.org/dc/elements/1.1/" xmlns:cc="http://creativecommons.org/ns#" xmlns:rdf="http://www.w3.org/1999/02/22-rdf-syntax-ns#" xmlns:svg="http://www.w3.org/2000/svg" xmlns:sodipodi="http://sodipodi.sourceforge.net/DTD/sodipodi-0.dtd" xmlns:inkscape="http://www.inkscape.org/namespaces/inkscape"
	 xmlns="http://www.w3.org/2000/svg" xmlns:xlink="http://www.w3.org/1999/xlink" x="0px" y="0px" viewBox="0 0 652.3 177.4"
	 style="enable-background:new 0 0 652.3 177.4;" xml:space="preserve">
<style type="text/css">
	.st0{fill-rule:evenodd;clip-rule:evenodd;fill:#FFFFFF;}
</style>
<sodipodi:namedview  bordercolor="#666666" borderopacity="1.0" fit-margin-bottom="0" fit-margin-left="0" fit-margin-right="0" fit-margin-top="0" id="base" inkscape:current-layer="layer1" inkscape:cx="99.02945" inkscape:cy="-11.280963" inkscape:document-units="px" inkscape:pageopacity="0.0" inkscape:pageshadow="2" inkscape:window-height="1000" inkscape:window-maximized="1" inkscape:window-width="1229" inkscape:window-x="51" inkscape:window-y="24" inkscape:zoom="0.35" pagecolor="#ffffff" showgrid="false">
	</sodipodi:namedview>
<g id="layer1" transform="translate(-250.97055,-343.64315)" inkscape:groupmode="layer" inkscape:label="Ebene 1">
	<path id="path9471" inkscape:connector-curvature="0" class="st0" d="M766.5,355.7c0-5.1-4.6-9.7-10.3-9.7h-14.3
		c-5.7,0-10.3,4.6-10.3,9.7l0.6,153.4c0,5.1,4,9.7,9.7,9.7h14.3c5.7,0,10.3-4.6,10.3-9.7V355.7L766.5,355.7L766.5,355.7z"/>
	<path id="path9473" inkscape:connector-curvature="0" class="st0" d="M784.9,360.3v6.9c0,3.4,2.3,5.7,5.7,5.7h100.7
		c4.6,0,8.6-4,8.6-8.6v-12c0-4.6-4-9.2-8.6-8.6c0,0-97.3,9.7-100.7,10.3C787.2,354,784.9,356.8,784.9,360.3L784.9,360.3L784.9,360.3
		z"/>
	<path id="path9475" inkscape:connector-curvature="0" class="st0" d="M703,518.8c-25.2,0-40.6-18.9-40.6-40.1v-61.2H655
		c-3.4,0-6.9-3.4-6.9-6.9v-10.3c0-4,3.4-6.9,6.9-6.9h7.4v-37.8c0-5.1,4-9.7,9.7-9.7h14.3c5.1,0,9.2,4.6,9.2,9.7v37.8h22.3
		c4,0,6.9,2.9,6.9,6.9v10.3c0,3.4-2.9,6.9-6.9,6.9h-22.3v56.7c0,10.9,6.9,18.9,18.9,18.9h2.3c4,0,7.4,2.9,7.4,7.4v10.9
		c0,4-3.4,7.4-7.4,7.4L703,518.8L703,518.8L703,518.8z"/>
	<path id="path9477" inkscape:connector-curvature="0" class="st0" d="M531.4,454.1c0-32.6-19.5-65.2-63.5-65.2
		c-40.6,0-62.9,32-62.9,65.2c0,35.5,24,67,63.5,67c26.9,0,53.2-13.7,58.4-37.2c0.6-2.9-1.7-7.4-5.7-7.4h-19.5c-3.4,0-6.3,1.7-8,4.6
		c-5.7,8-13.7,12-25.2,12c-17.2,0-28.6-13.2-29.8-28h81.8C527.9,465,531.4,461,531.4,454.1L531.4,454.1z M439.2,440.4
		c1.1-14.3,13.7-25.2,28.6-25.2c15.5,0,28,10.9,29.8,25.2H439.2L439.2,440.4L439.2,440.4z"/>
	<path id="path9479" inkscape:connector-curvature="0" class="st0" d="M903.3,454.1c0-32.6-19.5-65.2-63.5-65.2
		c-40.6,0-62.9,32-62.9,65.2c0,35.5,24,67,63.5,67c26.9,0,53.2-13.7,58.4-37.2c0.6-2.9-1.7-7.4-5.7-7.4h-19.5c-3.4,0-6.3,1.7-8,4.6
		c-5.7,8-13.7,12-25.8,12c-16.6,0-28-13.2-29.2-28h81.8C899.9,465,903.3,461,903.3,454.1L903.3,454.1z M811.2,440.4
		c1.1-14.3,13.7-25.2,28.6-25.2c15.5,0,28,10.9,29.2,25.2H811.2L811.2,440.4L811.2,440.4z"/>
	<path id="path9481" inkscape:connector-curvature="0" class="st0" d="M634.9,347.7H370.6c-6.3,0-10.9,5.2-10.9,10.9l0.6,104.2
		c0,0-56.7-103-59.5-108.2c-2.9-5.1-9.2-9.7-17.2-9.7h-21.7c-6.3,0-10.9,5.2-10.9,10.9v152.2c0,6.3,4.6,10.9,10.9,10.9h13.7
		c6.3,0,10.9-4.6,10.9-10.9l-0.6-106.4c0,0,57.2,103.6,60.1,107.6c2.9,5.7,8.6,9.7,16.6,9.7h20c6.3,0,10.9-4.6,10.9-10.9V373.5
		h241.5c4,0,7.4-3.4,7.4-7.4v-10.9C642.4,351.1,638.9,347.7,634.9,347.7L634.9,347.7L634.9,347.7z"/>
	<path id="path9483" inkscape:connector-curvature="0" class="st0" d="M592,414.1c11.4,0,20,4,23.5,11.4c1.1,3.4,4,4,8,4h16
		c2.3,0,5.7-2.3,5.7-5.7c0-18.3-22.3-34.9-53.2-34.9c-32,0-53.2,15.4-53.2,39.5c0,18.9,14.9,29.8,32.6,34.9
		c8.6,1.7,22.9,5.1,29.8,7.4c6.9,1.7,13.7,4,13.7,10.3c0,10.3-10.3,13.2-22.3,13.2c-10.9,0-21.7-4.6-24.6-12.6
		c-1.7-4.6-5.2-5.1-9.7-5.1h-16c-2.9,0-6.3,2.9-6.3,6.3v2.3c0,17.7,24,36.1,57.2,36.1c22.9,0,55.5-9.7,55.5-40.6
		c0-18.3-12-30.9-32-36c-7.4-1.7-25.8-6.9-29.8-7.4c-7.4-2.3-14.3-4.6-14.3-10.3C572.6,416.9,581.1,414.1,592,414.1L592,414.1z"/>
</g>
</svg>
