<?xml version="1.0" encoding="utf-8"?>
<!-- Generator: Adobe Illustrator 27.7.0, SVG Export Plug-In . SVG Version: 6.00 Build 0)  -->
<svg version="1.1" id="Layer_1" xmlns="http://www.w3.org/2000/svg" xmlns:xlink="http://www.w3.org/1999/xlink" x="0px" y="0px"
	 viewBox="0 0 866.97 260.52" style="enable-background:new 0 0 866.97 260.52;" xml:space="preserve">
<style type="text/css">
	.st0{fill:#FFFFFF;}
</style>
<g>
	<path class="st0" d="M1.56,128.61C0.76,61.43,58.04,1.17,130.13,1.4c66.92,0.21,128.96,53.04,128.42,130.18
		c-0.49,70.23-56.2,126.76-128.56,126.94C55.1,258.71,0.32,197.22,1.56,128.61z M68.05,145.75c0.01,0,0.02,0,0.03,0
		c0,12.66-0.09,25.32,0.05,37.98c0.05,4.7,3.13,7.77,7.36,7.83c4.63,0.07,6.98-2.72,7.85-6.89c0.37-1.77,0.23-3.65,0.24-5.48
		c0.01-21.82-0.02-43.65,0.02-65.47c0.03-20.34,14.97-39.46,34.33-44.03c21.8-5.14,43.3,4.3,53.1,23.09
		c4.37,8.37,5.8,17.33,5.85,26.56c0.12,21.16,0.01,42.32,0.06,63.47c0.01,5.51,2.83,8.71,7.39,8.72c4.54,0.02,8.16-3.26,8.12-8.35
		c-0.2-24.47,1.38-48.99-0.73-73.41c-2.94-34.17-29.22-57.47-63.38-56.93c-33.14,0.52-60.16,27.8-60.29,60.92
		C68.02,124.43,68.05,135.09,68.05,145.75z"/>
	<path class="st0" d="M853.58,151.01c0-18.14,0-36.28,0-54.42c0-6.89,1.79-9.9,5.75-9.72c3.76,0.17,5.56,3.2,5.56,9.64
		c0.02,22.15,0.01,44.3,0.01,66.46c0,1,0.03,2-0.06,3c-0.28,2.89-0.75,5.84-4.05,6.79c-3.15,0.92-5.5-0.74-7.26-3.19
		c-4.26-5.96-8.48-11.95-12.66-17.97c-9.22-13.26-18.41-26.55-27.62-39.82c-0.64-0.93-1.38-1.79-2.17-2.81
		c-1.72,1.76-0.99,3.68-1,5.36c-0.07,16.32-0.03,32.64-0.05,48.97c0,1.66,0.05,3.37-0.32,4.96c-0.68,2.9-2.58,4.71-5.7,4.56
		c-2.89-0.13-4.48-2.03-5.09-4.7c-0.29-1.28-0.28-2.65-0.28-3.97c-0.01-22.98-0.01-45.97-0.01-68.95c0-2.18-0.05-4.38,1.27-6.26
		c2.15-3.08,6.41-2.91,9.31,0.87c4.96,6.47,9.62,13.17,14.29,19.86c9.71,13.9,19.35,27.84,29.01,41.77
		C852.88,151.29,853.23,151.15,853.58,151.01z"/>
	<path class="st0" d="M334.11,108.77c0,17.97,0,35.94,0,53.91c0,7.2-1.85,10.35-5.91,10.17c-3.8-0.17-5.47-3.22-5.48-10.19
		c-0.01-22-0.01-43.99,0-65.99c0-1.17-0.03-2.34,0.09-3.5c0.28-2.56,0.91-5.06,3.69-6.01c2.72-0.94,5.05,0.29,6.64,2.32
		c3.49,4.45,6.81,9.04,10.05,13.68c10.29,14.76,20.49,29.58,30.75,44.37c0.85,1.22,1.8,2.36,2.97,3.88
		c1.21-1.72,0.72-3.38,0.72-4.88c0.04-16.83,0.02-33.66,0.04-50.49c0-1.66-0.04-3.38,0.35-4.96c0.63-2.52,2.54-3.9,5.07-4.16
		c2.73-0.27,4.4,1.32,5.22,3.74c0.42,1.24,0.64,2.6,0.64,3.91c0.04,23.66,0.03,47.33,0.03,70.99c0,0.17,0,0.33-0.01,0.5
		c-0.13,2.75-0.51,5.5-3.5,6.6c-3.13,1.15-5.62-0.36-7.38-2.8c-5.94-8.24-11.78-16.56-17.6-24.89
		c-8.48-12.14-16.91-24.32-25.36-36.49C334.78,108.58,334.45,108.68,334.11,108.77z"/>
	<path class="st0" d="M400.57,129.75c0.61-14.93,4.62-28.33,17.88-37.08c16.02-10.58,37.05-6.93,47.84,8.96
		c11.36,16.72,12.02,34.75,2.66,52.56c-7.21,13.71-19.38,19.95-34.8,18.59c-14.94-1.32-26.96-12.25-31.38-27.69
		C401.35,140.1,400.4,135.02,400.57,129.75z M462.84,131.63c-0.03-12.46-2.13-20.03-6.93-26.37c-8.7-11.51-28.12-11.51-36.33,0.31
		c-9.05,13.01-8.44,27.32-3.88,41.6c3.21,10.08,11.61,16.28,21.76,16.12c9.9-0.16,17.43-4.7,21.69-14.11
		C461.88,143.12,463.03,136.85,462.84,131.63z"/>
	<path class="st0" d="M747.05,137.86c0,8.82,0.01,17.11-0.01,25.41c-0.01,1.66,0.02,3.36-0.29,4.97c-0.55,2.84-2.58,4.33-5.34,4.35
		c-2.76,0.02-4.79-1.45-5.42-4.26c-0.32-1.44-0.34-2.98-0.34-4.47c-0.02-22.49-0.04-44.97,0-67.46c0.01-7.6,1.38-8.88,9.13-8.89
		c6.33-0.01,12.67-0.19,18.98,0.08c11.24,0.49,20.38,8.36,22.66,19.13c2.24,10.6-2.26,20.57-11.4,25.41c-4.24,2.25-9,2.16-14.26,3.3
		c3.99,4.46,7.68,8.63,11.41,12.74c4.37,4.81,8.77,9.58,13.17,14.35c2.44,2.64,4.33,5.71,1.33,8.76c-3.37,3.43-6.44,0.99-8.94-1.7
		c-8.73-9.39-17.38-18.85-26.1-28.25C750.55,140.16,749.69,138.62,747.05,137.86z M757.74,125.56c2.49,0,5,0.16,7.48-0.04
		c3.1-0.25,5.78-1.53,7.64-4.14c6.28-8.83,1.62-21.19-8.88-23.66c-4.28-1.01-8.62-0.42-12.92-0.63c-3.02-0.15-4.2,1.24-4.14,4.16
		c0.08,4.66-0.02,9.32,0.01,13.97C747,126.92,745.68,125.74,757.74,125.56z"/>
	<path class="st0" d="M511.58,135.42c8.12,8.93,15.61,17.16,23.11,25.4c0.9,0.99,1.85,1.92,2.68,2.96c1.96,2.46,2.71,5.2,0.27,7.63
		c-2.49,2.49-5.3,1.68-7.54-0.53c-3.44-3.39-6.7-6.95-9.97-10.49c-6.33-6.84-12.61-13.73-18.93-20.58c-0.65-0.7-1.22-1.61-3.14-1.57
		c0,7.87,0.02,15.77-0.01,23.68c-0.01,2.16,0.05,4.36-0.36,6.46c-0.55,2.82-2.71,4.2-5.44,4.29c-2.9,0.1-4.65-1.68-5.27-4.39
		c-0.33-1.44-0.31-2.97-0.32-4.47c-0.02-22.48-0.03-44.96,0-67.44c0.01-7.45,1.4-8.83,8.66-8.85c6.16-0.02,12.33-0.14,18.48,0.04
		c17.2,0.5,28.17,16.27,22.67,32.52c-2.65,7.81-8.36,12.19-16.22,13.95C517.68,134.6,515.05,134.87,511.58,135.42z M497.91,111.28
		c0.01,0,0.02,0,0.03,0c0,3.49,0.03,6.98-0.01,10.47c-0.03,2.64,1.11,4.08,3.85,4.03c4.98-0.09,9.97-0.04,14.95-0.33
		c2.94-0.17,5.35-1.8,7.12-4.14c3.65-4.82,3.53-13.3-0.16-18.34c-3.64-4.97-17.28-8.78-23.58-5.51c-4.65,2.41-1.29,7.85-2.18,11.83
		C497.79,109.92,497.91,110.61,497.91,111.28z"/>
	<path class="st0" d="M667.98,130.31c0,10.83,0.01,21.66-0.01,32.49c0,1.5,0.05,3.02-0.21,4.48c-0.56,3.22-2.02,5.77-5.79,5.68
		c-3.85-0.09-5.15-2.82-5.27-6.05c-0.21-5.49-0.11-10.99-0.13-16.49c-0.01-3.5-0.17-7.01,0.04-10.49c0.21-3.62-1.1-5.08-4.85-5.03
		c-11.16,0.16-22.33,0.17-33.49-0.01c-3.86-0.06-5.35,1.2-5.24,5.17c0.23,7.99,0.09,15.99,0.04,23.99
		c-0.01,1.65-0.07,3.35-0.44,4.95c-0.53,2.3-2.02,3.79-4.52,3.98c-2.67,0.2-4.44-1.03-5.48-3.45c-0.89-2.06-0.86-4.22-0.86-6.39
		c0-21.99-0.01-43.99,0.02-65.98c0-1.82,0.15-3.67,0.51-5.45c0.59-2.95,2.5-4.86,5.55-4.74c3.11,0.13,4.76,2.37,5.04,5.28
		c0.29,3.14,0.19,6.32,0.2,9.49c0.03,6.16,0.11,12.33-0.02,18.49c-0.07,3.2,1.16,4.49,4.39,4.46c11.5-0.1,22.99-0.11,34.49,0.01
		c3.44,0.04,4.75-1.24,4.68-4.7c-0.16-7.83-0.05-15.66-0.03-23.49c0-1.5-0.03-3.02,0.2-4.49c0.48-2.99,2.31-4.89,5.33-5.04
		c2.89-0.14,4.65,1.72,5.31,4.39c0.43,1.75,0.51,3.62,0.52,5.44C668.01,107.98,667.98,119.14,667.98,130.31z"/>
	<path class="st0" d="M683.59,130.03c0-11.49-0.04-22.97,0.02-34.46c0.03-6.28,1.7-7.91,8.08-7.95c8.32-0.06,16.65,0,24.97-0.02
		c3.73-0.01,7.53,0.37,7.6,5.11c0.08,5.11-3.96,5.39-7.82,5.39c-5.49,0-11,0.19-16.48-0.06c-4-0.18-5.31,1.46-5.17,5.27
		c0.2,5.32,0.24,10.66-0.01,15.98c-0.2,4.25,1.61,5.57,5.62,5.36c4.65-0.24,9.32-0.04,13.98-0.05c3.71-0.02,7.46,0.26,7.54,5.11
		c0.08,5.23-3.92,5.38-7.77,5.38c-4.83,0-9.66,0.13-14.48-0.03c-3.32-0.11-4.95,0.99-4.87,4.54c0.14,5.82,0.14,11.65,0,17.48
		c-0.08,3.5,1.51,4.69,4.84,4.62c5.82-0.13,11.65-0.06,17.48,0.01c3.82,0.05,7.25,0.98,7.09,5.72c-0.15,4.34-3.53,4.66-6.87,4.66
		c-8.82,0.01-17.65,0.06-26.47-0.02c-5.8-0.05-7.25-1.57-7.27-7.57C683.55,153.01,683.59,141.52,683.59,130.03z"/>
	<path class="st0" d="M562.49,134.44c0-10.48-0.11-20.97,0.06-31.45c0.06-3.63-1.12-5.19-4.87-4.95c-3.48,0.22-6.99,0.09-10.48-0.04
		c-3.34-0.12-5.37-1.94-5.31-5.33c0.06-3.18,2.18-4.93,5.19-4.95c13.98-0.11,27.95-0.11,41.93-0.01c3.04,0.02,4.99,1.77,5.03,5.03
		c0.04,3.54-2.05,5.11-5.33,5.25c-2.99,0.13-6.02,0.34-8.98,0.02c-4.79-0.51-5.92,1.65-5.88,6.05c0.15,18.97,0.03,37.94-0.02,56.91
		c0,1.99-0.05,4-0.28,5.97c-0.42,3.59-2.27,6.09-6.14,5.78c-3.65-0.29-4.9-2.94-4.9-6.36c0.02-10.65,0.01-21.3,0.01-31.95
		C562.51,134.44,562.5,134.44,562.49,134.44z"/>
</g>
</svg>
