<svg width="2414" height="614" viewBox="0 0 2414 614" fill="none" xmlns="http://www.w3.org/2000/svg">
<path d="M86.9999 52C227.91 52 368.82 52 514 52C514 86.65 514 121.3 514 157C489.91 157 465.82 157 441 157C441.115 172.125 441.236 187.25 441.375 202.375C441.385 203.486 441.395 204.598 441.406 205.743C441.69 236.35 442.155 266.898 443.718 297.47C444.053 304.317 444.095 311.145 444 318C441.402 315.654 439.869 313.222 438.207 310.152C437.667 309.168 437.128 308.183 436.572 307.169C435.991 306.103 435.411 305.036 434.812 303.938C427.307 290.35 419.245 277.152 411 264C410.466 263.141 409.931 262.281 409.381 261.396C403.379 251.744 397.17 242.234 390.883 232.766C390.327 231.925 389.772 231.085 389.2 230.22C386.221 225.726 383.201 221.27 380.102 216.86C373.068 206.755 366.938 196.968 362.786 185.305C358.061 173.489 350.515 168.207 341 158C314.93 157.67 288.86 157.34 262 157C262 239.5 262 322 262 407C285.1 407 308.2 407 332 407C331.908 388.823 331.908 388.823 331.791 370.646C331.737 363.186 331.686 355.727 331.653 348.266C331.503 315.077 330.442 282.102 328 249C328.66 249 329.32 249 330 249C331.138 250.534 331.138 250.534 332.398 252.707C332.871 253.511 333.345 254.316 333.832 255.145C334.341 256.025 334.85 256.905 335.375 257.812C336.464 259.663 337.555 261.511 338.648 263.359C339.206 264.304 339.764 265.248 340.339 266.221C343.728 271.891 347.292 277.452 350.84 283.023C352.813 286.126 354.777 289.234 356.727 292.351C364.195 304.271 371.922 316.002 379.75 327.688C380.998 329.555 382.247 331.423 383.495 333.291C385.923 336.925 388.353 340.559 390.784 344.192C393.997 348.995 397.21 353.798 400.402 358.616C401.616 360.429 402.846 362.232 404.101 364.018C407.498 368.914 410.426 373.727 413.014 379.085C420.782 395.541 420.782 395.541 434.197 407.032C446.051 410.882 459.287 409.539 471.523 408.729C476.32 408.449 481.121 408.361 485.926 408.256C495.297 408.022 504.644 407.581 514 407C514.1 411.158 514.172 415.316 514.22 419.476C514.239 420.884 514.267 422.292 514.302 423.699C514.662 438.552 512.085 450.78 503 463C502.29 463.967 502.29 463.967 501.566 464.953C468.468 506.584 391.249 519.409 342.875 533.18C340.07 533.98 337.267 534.785 334.464 535.592C330.235 536.809 326.004 538.016 321.769 539.214C320.234 539.649 318.7 540.087 317.167 540.528C315.071 541.129 312.971 541.719 310.871 542.305C309.705 542.635 308.539 542.964 307.338 543.304C299.635 544.91 293.413 543.28 286.016 541.176C284.943 540.878 283.871 540.581 282.767 540.274C279.258 539.297 275.754 538.305 272.25 537.312C269.808 536.626 267.367 535.941 264.925 535.255C139.741 499.976 139.741 499.976 109 474C108.11 473.283 107.221 472.567 106.305 471.828C95.0623 462.364 89.0652 450.495 86.9999 436C86.913 433.756 86.8761 431.51 86.8768 429.265C86.8751 428.281 86.8751 428.281 86.8733 427.278C86.8707 425.086 86.8752 422.893 86.8796 420.7C86.8792 419.115 86.8783 417.53 86.877 415.945C86.8748 411.582 86.8788 407.219 86.8838 402.856C86.8882 398.082 86.8867 393.307 86.886 388.532C86.8855 379.262 86.8901 369.992 86.8965 360.722C86.9037 350.001 86.9045 339.279 86.9053 328.557C86.9105 300.247 86.9245 271.936 86.9374 243.625C86.958 180.389 86.9786 117.152 86.9999 52Z" fill="#C1C1C1"/>
<path d="M1502.05 257.222C1504.42 259.426 1506.72 261.697 1509 264C1510.98 265.98 1510.98 265.98 1513 268C1513.33 260.74 1513.66 253.48 1514 246C1521.68 245.977 1529.35 245.959 1537.03 245.948C1540.59 245.943 1544.15 245.936 1547.72 245.925C1551.81 245.912 1555.9 245.907 1560 245.902C1561.92 245.895 1561.92 245.895 1563.89 245.887C1565.66 245.887 1565.66 245.887 1567.47 245.886C1569.04 245.883 1569.04 245.883 1570.64 245.88C1573 246 1573 246 1574 247C1574.1 249.232 1574.13 251.467 1574.13 253.7C1574.14 254.41 1574.14 255.119 1574.14 255.85C1574.15 258.246 1574.15 260.641 1574.15 263.037C1574.15 264.749 1574.15 266.461 1574.16 268.173C1574.16 272.846 1574.17 277.519 1574.17 282.193C1574.17 285.125 1574.17 288.057 1574.17 290.989C1574.18 301.258 1574.19 311.526 1574.19 321.795C1574.18 331.293 1574.2 340.792 1574.21 350.291C1574.22 358.485 1574.23 366.679 1574.23 374.873C1574.23 379.748 1574.23 384.622 1574.24 389.497C1574.28 407.664 1574.23 425.792 1573.1 443.929C1572.98 445.833 1572.98 445.833 1572.86 447.775C1571.34 469.606 1567.57 487.209 1551.25 502.687C1533.69 517.818 1509.18 524.074 1486.36 524.203C1485.55 524.209 1484.74 524.215 1483.9 524.22C1482.19 524.23 1480.49 524.236 1478.78 524.24C1476.23 524.25 1473.69 524.281 1471.14 524.312C1445.96 524.475 1419.1 520.234 1400.11 502.323C1387.6 489.882 1382.12 472.664 1381.81 455.25C1382 452 1382 452 1383 451C1384.96 450.906 1386.93 450.883 1388.9 450.886C1390.16 450.887 1391.42 450.887 1392.72 450.887C1394.11 450.892 1395.49 450.897 1396.88 450.902C1398.29 450.904 1399.7 450.906 1401.11 450.907C1404.83 450.91 1408.55 450.92 1412.27 450.931C1416.07 450.942 1419.86 450.946 1423.65 450.951C1431.1 450.962 1438.55 450.979 1446 451C1446.12 452.029 1446.25 453.058 1446.38 454.119C1446.55 455.483 1446.72 456.847 1446.89 458.211C1446.98 458.888 1447.06 459.564 1447.14 460.261C1448.04 467.31 1449.62 472.433 1455.31 476.875C1461.38 481.075 1468.27 481.318 1475.38 481.25C1476.17 481.258 1476.97 481.265 1477.8 481.273C1486.95 481.244 1494.69 479.73 1502 474C1508.06 467.776 1510.13 460.045 1510.11 451.567C1510.11 450.506 1510.11 449.446 1510.11 448.353C1510.11 447.219 1510.1 446.086 1510.1 444.918C1510.1 443.749 1510.09 442.579 1510.09 441.375C1510.09 437.646 1510.08 433.917 1510.06 430.188C1510.06 427.657 1510.05 425.126 1510.05 422.596C1510.04 416.397 1510.02 410.199 1510 404C1509.27 404.749 1508.54 405.498 1507.78 406.27C1506.8 407.266 1505.82 408.262 1504.83 409.258C1504.11 409.996 1504.11 409.996 1503.38 410.749C1489.94 424.319 1471.8 429.105 1453.19 429.312C1431.36 429.232 1412.42 421.646 1396.56 406.648C1378.5 387.977 1371.17 361.721 1370.69 336.25C1371.58 307.448 1379.55 280.551 1400.75 260.187C1427.7 237.276 1474.38 232.626 1502.05 257.222ZM1450 297C1449.46 297.491 1448.91 297.982 1448.36 298.488C1438.78 308.258 1437.81 322.289 1437.75 335.188C1437.73 336.261 1437.71 337.334 1437.69 338.439C1437.63 350.866 1440.61 363.557 1449.31 372.875C1457.26 380.151 1466.79 382.342 1477.38 382C1486.69 381.055 1495.22 376.966 1501.54 369.98C1511.55 356.412 1512.25 339.163 1510.25 323C1508.39 311.199 1504.64 301.528 1495.38 293.687C1482.05 284.336 1461.67 285.959 1450 297Z" fill="#C1C1C1"/>
<path d="M779.789 197.871C781.646 197.866 781.646 197.866 783.541 197.861C784.902 197.863 786.264 197.865 787.625 197.867C789.011 197.867 790.397 197.866 791.784 197.864C794.692 197.863 797.601 197.865 800.51 197.87C804.246 197.875 807.982 197.872 811.718 197.866C814.582 197.862 817.445 197.864 820.309 197.866C821.687 197.867 823.065 197.866 824.443 197.864C826.365 197.861 828.288 197.866 830.211 197.871C831.855 197.872 831.855 197.872 833.533 197.873C836 198 836 198 837 199C837.093 200.474 837.117 201.952 837.114 203.428C837.113 204.382 837.113 205.336 837.113 206.319C837.108 207.329 837.103 208.339 837.098 209.379C837.097 210.302 837.096 211.225 837.095 212.176C837.089 215.638 837.075 219.1 837.063 222.562C837.042 230.297 837.021 238.031 837 246C861.75 246 886.5 246 912 246C911.96 230.577 911.96 230.577 911.91 215.155C911.907 213.229 911.904 211.304 911.902 209.379C911.897 208.369 911.892 207.36 911.887 206.319C911.887 204.888 911.887 204.888 911.887 203.428C911.884 202.595 911.882 201.763 911.88 200.905C912 199 912 199 913 198C914.964 197.906 916.931 197.883 918.897 197.886C920.158 197.887 921.419 197.887 922.719 197.887C924.105 197.892 925.492 197.897 926.879 197.902C928.29 197.904 929.701 197.906 931.112 197.907C934.832 197.91 938.553 197.92 942.273 197.931C946.733 197.943 951.194 197.948 955.654 197.954C962.436 197.963 969.218 197.983 976 198C976 213.84 976 229.68 976 246C988.461 245.96 988.461 245.96 1000.92 245.91C1002.48 245.907 1004.03 245.904 1005.59 245.902C1006.81 245.895 1006.81 245.895 1008.06 245.887C1010.04 245.887 1012.02 245.938 1014 246C1015.76 247.761 1015.13 250.079 1015.14 252.424C1015.14 253.56 1015.14 253.56 1015.13 254.719C1015.13 255.878 1015.13 255.878 1015.14 257.061C1015.14 258.699 1015.13 260.337 1015.13 261.974C1015.13 264.489 1015.13 267.004 1015.14 269.52C1015.14 271.107 1015.13 272.694 1015.13 274.281C1015.13 275.039 1015.14 275.796 1015.14 276.576C1015.11 281.885 1015.11 281.885 1014 283C1011.19 283.089 1008.4 283.115 1005.59 283.098C1004.75 283.096 1003.91 283.095 1003.04 283.093C1000.34 283.088 997.638 283.075 994.938 283.062C993.111 283.057 991.285 283.053 989.459 283.049C984.973 283.038 980.486 283.021 976 283C976.085 293.597 976.18 304.195 976.288 314.792C976.337 319.714 976.384 324.636 976.422 329.558C976.459 334.317 976.505 339.076 976.558 343.835C976.576 345.642 976.592 347.448 976.603 349.254C975.728 368.444 975.728 368.444 983 385C989.295 388.525 995.337 388.539 1002.44 388.688C1008.16 388.842 1008.16 388.842 1014 389C1014 401.54 1014 414.08 1014 427C1009.28 428.572 1005.16 429.559 1000.3 430.105C999.561 430.189 998.824 430.273 998.066 430.36C990.257 431.18 982.47 431.338 974.624 431.316C972.237 431.312 969.851 431.336 967.465 431.361C952.754 431.422 938.076 429.757 926.75 419.438C905.701 396.73 911.727 354.388 911.863 325.876C911.887 320.17 911.896 314.463 911.908 308.757C911.927 300.171 911.965 291.586 912 283C887.25 283 862.5 283 837 283C837.12 298.421 837.12 298.421 837.258 313.842C837.318 320.136 837.376 326.429 837.422 332.723C837.459 337.8 837.505 342.877 837.558 347.954C837.577 349.886 837.592 351.819 837.603 353.751C837.62 356.468 837.649 359.184 837.681 361.9C837.683 362.691 837.686 363.481 837.688 364.296C837.788 371.091 838.556 379.018 842 385C844.395 386.325 844.395 386.325 847 387C847.99 387.33 848.98 387.66 850 388C851.833 388.137 853.67 388.225 855.508 388.281C856.576 388.319 857.645 388.356 858.746 388.395C861.007 388.465 863.267 388.535 865.527 388.605C866.593 388.643 867.659 388.68 868.758 388.719C869.739 388.749 870.72 388.779 871.731 388.811C874 389 874 389 875 390C875.089 392.739 875.115 395.453 875.098 398.191C875.096 399.421 875.096 399.421 875.093 400.676C875.088 403.305 875.075 405.934 875.063 408.562C875.058 410.34 875.053 412.118 875.049 413.896C875.038 418.264 875.021 422.632 875 427C861.634 430.923 847.899 431.224 834.045 431.352C832.582 431.367 831.119 431.388 829.655 431.417C814.423 431.683 798.277 429.899 786.793 418.883C771.168 401.2 772.841 374.256 772.902 352.141C772.904 350.14 772.906 348.139 772.907 346.139C772.91 340.911 772.92 335.683 772.931 330.455C772.942 325.106 772.946 319.756 772.951 314.406C772.962 303.937 772.979 293.469 773 283C772.066 283.005 771.132 283.01 770.17 283.016C766.717 283.033 763.264 283.045 759.81 283.055C758.314 283.06 756.817 283.067 755.32 283.075C753.173 283.088 751.026 283.093 748.879 283.098C746.939 283.106 746.939 283.106 744.959 283.114C742 283 742 283 741 282C740.899 279.418 740.86 276.864 740.867 274.281C740.866 273.508 740.865 272.735 740.864 271.939C740.864 270.301 740.865 268.663 740.87 267.026C740.875 264.511 740.87 261.996 740.863 259.48C740.864 257.893 740.865 256.306 740.867 254.719C740.865 253.961 740.863 253.204 740.861 252.424C740.885 247.115 740.885 247.115 742 246C744.292 245.912 746.586 245.893 748.879 245.902C749.909 245.904 749.909 245.904 750.96 245.907C753.161 245.912 755.362 245.925 757.563 245.937C759.051 245.943 760.54 245.947 762.029 245.951C765.686 245.962 769.343 245.979 773 246C772.998 245.413 772.996 244.827 772.993 244.222C772.971 238.14 772.956 232.057 772.945 225.974C772.94 223.702 772.933 221.429 772.925 219.156C772.913 215.897 772.907 212.638 772.902 209.379C772.897 208.356 772.892 207.333 772.887 206.279C772.887 204.868 772.887 204.868 772.887 203.428C772.884 202.595 772.882 201.763 772.88 200.905C773.141 196.765 776.349 197.873 779.789 197.871Z" fill="#C1C1C1"/>
<path d="M2156.31 241.688C2157.31 241.692 2158.31 241.696 2159.35 241.7C2175.28 241.942 2190.9 245.869 2202.46 257.469C2205.83 261.18 2209.04 264.954 2212 269C2212.56 268.359 2213.11 267.719 2213.69 267.059C2226.71 252.301 2240.75 243.31 2260.78 241.789C2279.36 240.924 2298.36 242.36 2313 255C2315.69 257.5 2315.69 257.5 2318 260C2319.24 261.33 2319.24 261.33 2320.5 262.688C2328.54 272.596 2332.13 286.219 2332.12 298.809C2332.12 300.512 2332.12 300.512 2332.12 302.25C2332.12 303.482 2332.12 304.713 2332.11 305.982C2332.11 307.29 2332.11 308.598 2332.11 309.945C2332.11 313.519 2332.11 317.093 2332.1 320.667C2332.1 324.406 2332.09 328.146 2332.09 331.886C2332.09 338.962 2332.08 346.037 2332.07 353.113C2332.06 362.679 2332.05 372.245 2332.05 381.81C2332.04 396.873 2332.02 411.937 2332 427C2311.54 427 2291.08 427 2270 427C2269.95 419.222 2269.9 411.444 2269.85 403.43C2269.82 398.48 2269.78 393.531 2269.74 388.582C2269.68 380.739 2269.62 372.896 2269.58 365.053C2269.54 358.725 2269.49 352.397 2269.44 346.068C2269.42 343.663 2269.41 341.257 2269.4 338.852C2270.52 315.154 2270.52 315.154 2262 294C2253.99 287.699 2243.69 288.045 2234 289C2228.05 290.49 2224.2 293.214 2220.56 298.125C2214.07 309.179 2213.87 322.113 2213.79 334.59C2213.78 335.596 2213.77 336.602 2213.76 337.639C2213.73 340.929 2213.71 344.218 2213.68 347.508C2213.66 349.803 2213.64 352.098 2213.62 354.393C2213.57 360.406 2213.52 366.42 2213.47 372.434C2213.41 379.663 2213.34 386.893 2213.28 394.123C2213.18 405.082 2213.09 416.041 2213 427C2194.19 427 2175.38 427 2156 427C2155.94 414.397 2155.94 414.397 2155.89 401.539C2155.85 395.529 2155.82 389.518 2155.78 383.508C2155.73 375.728 2155.68 367.949 2155.65 360.169C2155.63 353.348 2155.59 346.527 2155.54 339.706C2155.52 337.108 2155.51 334.509 2155.5 331.91C2155.49 328.262 2155.46 324.615 2155.43 320.967C2155.43 319.9 2155.44 318.832 2155.44 317.733C2155.33 308.967 2154.09 299.728 2148 293C2140.59 287.3 2129.85 287.881 2121 289C2115.01 290.533 2111.2 293.213 2107.56 298.188C2101.47 308.552 2100.86 319.906 2100.79 331.639C2100.78 332.674 2100.77 333.709 2100.76 334.775C2100.73 338.173 2100.71 341.571 2100.68 344.969C2100.66 347.334 2100.64 349.699 2100.62 352.064C2100.57 358.272 2100.52 364.479 2100.47 370.687C2100.41 378.144 2100.34 385.602 2100.28 393.059C2100.18 404.373 2100.09 415.686 2100 427C2079.21 427 2058.42 427 2037 427C2036.98 403.548 2036.96 380.096 2036.95 356.645C2036.94 345.756 2036.94 334.868 2036.92 323.98C2036.91 314.493 2036.91 305.007 2036.91 295.52C2036.9 290.494 2036.9 285.467 2036.89 280.441C2036.89 275.716 2036.89 270.991 2036.89 266.265C2036.89 264.526 2036.88 262.786 2036.88 261.047C2036.88 258.682 2036.88 256.318 2036.88 253.954C2036.88 253.256 2036.87 252.559 2036.87 251.84C2036.89 247.114 2036.89 247.114 2038 246C2039.9 245.906 2041.81 245.883 2043.71 245.886C2044.93 245.887 2046.16 245.887 2047.41 245.887C2048.76 245.892 2050.1 245.897 2051.44 245.902C2052.81 245.904 2054.17 245.906 2055.54 245.907C2059.14 245.91 2062.74 245.92 2066.35 245.931C2070.02 245.942 2073.69 245.946 2077.37 245.951C2084.58 245.962 2091.79 245.98 2099 246C2099.33 253.26 2099.66 260.52 2100 268C2101.92 265.773 2101.92 265.773 2103.88 263.5C2118.3 247.641 2135.1 241.565 2156.31 241.688Z" fill="#C1C1C1"/>
<path d="M1609 157C1630.12 157 1651.24 157 1673 157C1673.33 193.3 1673.66 229.6 1674 267C1677.63 263.37 1681.26 259.74 1685 256C1704.71 242.201 1726.44 238.86 1749.97 242.625C1763.69 245.159 1776.17 252.367 1784.62 263.5C1796.92 281.978 1795.29 304.362 1795.2 325.57C1795.19 329.145 1795.19 332.721 1795.19 336.296C1795.18 343.042 1795.16 349.788 1795.14 356.535C1795.12 365.668 1795.11 374.801 1795.1 383.935C1795.08 398.29 1795.04 412.645 1795 427C1773.55 427 1752.1 427 1730 427C1729.96 418.765 1729.93 410.531 1729.89 402.047C1729.85 396.149 1729.82 390.251 1729.78 384.354C1729.73 376.724 1729.68 369.095 1729.65 361.466C1729.63 354.774 1729.59 348.083 1729.54 341.392C1729.52 338.845 1729.51 336.298 1729.5 333.751C1729.49 330.171 1729.46 326.591 1729.43 323.011C1729.43 321.969 1729.44 320.928 1729.44 319.855C1729.32 310.763 1728.42 299.946 1722 293C1716.36 289.222 1711.25 288.346 1704.56 288.5C1703.73 288.511 1702.89 288.523 1702.03 288.534C1694.36 288.776 1689.31 290.439 1683.25 295.125C1674.86 305.851 1673.71 317.952 1673.68 331.185C1673.67 332.23 1673.66 333.275 1673.65 334.352C1673.62 337.761 1673.6 341.169 1673.59 344.578C1673.57 346.96 1673.55 349.342 1673.53 351.724C1673.48 357.957 1673.44 364.191 1673.4 370.425C1673.35 377.924 1673.29 385.422 1673.23 392.92C1673.14 404.28 1673.07 415.64 1673 427C1651.88 427 1630.76 427 1609 427C1609 337.9 1609 248.8 1609 157Z" fill="#C1C1C1"/>
<path d="M700.281 259.605C703.333 262.269 706.173 265.099 709 268C709.824 268.826 710.647 269.653 711.496 270.504C729.966 289.908 734.513 316.444 734.215 342.281C733.536 367.475 724.496 390.045 706.887 408.176C686.404 427.46 658.828 433.229 631.625 433.25C630.86 433.251 630.095 433.251 629.307 433.252C603.488 433.216 577.679 427.858 558 410C557.169 409.261 556.337 408.523 555.48 407.762C537.724 391.096 529.537 367.818 528.652 343.836C528.061 313.798 534.228 287.653 555.375 265.313C566.91 254.268 582.55 246.663 598 243C599.239 242.702 600.478 242.404 601.754 242.098C632.899 235.443 674.602 238.416 700.281 259.605ZM606.004 295.465C600.218 302.784 596.198 311.734 595 321C594.892 321.678 594.783 322.356 594.672 323.055C592.238 340.544 593.539 360.49 603.75 375.438C608.76 381.546 616.043 386.348 624.004 387.219C635.875 387.858 645.168 387.102 654.75 379.5C664.255 370.431 667.98 356.981 668.398 344.16C668.406 341.794 668.398 339.428 668.375 337.063C668.387 335.89 668.398 334.718 668.41 333.51C668.368 320.658 665.891 309.881 659 299C658.423 298.072 657.845 297.144 657.25 296.188C649.863 289.006 641.331 286.145 631.25 285.625C621.767 285.89 612.826 288.743 606.004 295.465Z" fill="#C1C1C1"/>
<path d="M1320.75 252.043C1334.05 263.553 1340.28 277.565 1342 295C1342.49 304.415 1342.36 313.852 1342.3 323.277C1342.29 326.934 1342.28 330.591 1342.28 334.247C1342.27 341.146 1342.25 348.044 1342.22 354.943C1342.18 364.283 1342.16 373.624 1342.14 382.964C1342.11 397.643 1342.05 412.321 1342 427C1320.88 427 1299.76 427 1278 427C1277.95 418.982 1277.9 410.964 1277.85 402.703C1277.82 397.608 1277.78 392.513 1277.74 387.418C1277.68 379.34 1277.62 371.262 1277.58 363.184C1277.54 356.668 1277.49 350.151 1277.44 343.635C1277.42 341.155 1277.41 338.676 1277.4 336.196C1277.38 332.709 1277.35 329.222 1277.32 325.735C1277.32 324.722 1277.31 323.708 1277.31 322.664C1277.19 312.206 1276.56 301.582 1270 293C1262.61 287.229 1251.92 288.275 1243 289C1236.8 290.259 1232.1 292.803 1228.25 297.875C1222.72 307.304 1221.86 317.109 1221.79 327.779C1221.78 328.853 1221.77 329.926 1221.76 331.033C1221.73 334.571 1221.71 338.11 1221.68 341.648C1221.66 344.106 1221.64 346.564 1221.62 349.021C1221.57 355.482 1221.52 361.943 1221.47 368.404C1221.41 376.16 1221.34 383.916 1221.28 391.672C1221.18 403.448 1221.09 415.224 1221 427C1199.88 427 1178.76 427 1157 427C1157 367.27 1157 307.54 1157 246C1177.46 246 1197.92 246 1219 246C1220.58 247.584 1220.22 249.277 1220.32 251.473C1220.36 252.372 1220.4 253.271 1220.44 254.197C1220.48 255.143 1220.52 256.088 1220.56 257.063C1220.61 258.012 1220.65 258.961 1220.69 259.939C1220.8 262.293 1220.9 264.646 1221 267C1222.23 265.697 1222.23 265.697 1223.49 264.367C1246.51 240.425 1292.1 230.788 1320.75 252.043Z" fill="#C1C1C1"/>
<path d="M1981.23 259.871C1995.68 273.347 1998.3 291.841 1999.12 310.658C1999.27 316.265 1999.3 321.873 1999.3 327.482C1999.31 330.591 1999.33 333.699 1999.35 336.808C1999.4 345.63 1999.43 354.452 1999.46 363.274C1999.47 368.71 1999.5 374.146 1999.54 379.582C1999.55 381.636 1999.56 383.69 1999.56 385.745C1999.56 388.615 1999.58 391.484 1999.6 394.354C1999.59 395.186 1999.59 396.017 1999.59 396.875C1999.67 403.973 2000.44 411.504 2005.69 416.625C2008 419 2008 419 2008 427C1986.55 427 1965.1 427 1943 427C1942.01 422.71 1941.02 418.42 1940 414C1939.67 412.68 1939.34 411.36 1939 410C1938.36 410.619 1938.36 410.619 1937.71 411.25C1919.68 427.902 1897.49 433.988 1873.45 433.344C1858.1 432.59 1843.14 427.767 1831.77 416.996C1821.61 405.551 1817.62 391.641 1817.79 376.566C1818.69 361.292 1823.83 348.959 1835.02 338.473C1852.53 323.926 1876.43 320.999 1898.2 317.492C1899.4 317.298 1899.4 317.298 1900.62 317.101C1904.59 316.459 1908.56 315.832 1912.54 315.231C1924.22 313.546 1924.22 313.546 1935 309C1937.99 304.519 1937.47 300.252 1937 295C1935.72 290.848 1934.25 288.912 1930.63 286.687C1921.16 282.283 1907.57 282.333 1897.75 285.687C1888.57 289.748 1887.06 292.845 1883 303C1863.53 303 1844.06 303 1824 303C1826.01 284.876 1832.94 270.868 1847 259C1879.84 234.518 1948.73 232.607 1981.23 259.871ZM1934.57 343.883C1924.79 347.408 1914.92 349.679 1904.72 351.68C1894.83 353.722 1885.85 356.321 1880 365C1877.87 371.378 1878.31 377.281 1881.13 383.375C1884.14 388.776 1887.46 391.005 1893.19 393.25C1905.24 395.621 1916.45 393.379 1926.77 386.727C1933.03 381.873 1936.31 375.653 1938 368C1938.34 363.636 1938.29 359.311 1938.19 354.937C1938.17 353.786 1938.16 352.634 1938.15 351.447C1938.11 348.631 1938.06 345.816 1938 343C1936.73 342.943 1936.73 342.943 1934.57 343.883Z" fill="#C1C1C1"/>
<path d="M1052 246C1072.79 246 1093.58 246 1115 246C1115 305.73 1115 365.46 1115 427C1094.21 427 1073.42 427 1052 427C1052 367.27 1052 307.54 1052 246Z" fill="#C1C1C1"/>
<path d="M1052 182C1072.79 182 1093.58 182 1115 182C1115 198.17 1115 214.34 1115 231C1094.21 231 1073.42 231 1052 231C1052 214.83 1052 198.66 1052 182Z" fill="#C1C1C1"/>
<path d="M2047 466C2051.29 466 2055.58 466 2060 466C2063.96 477.55 2067.92 489.1 2072 501C2075.58 489.857 2075.58 489.857 2079.15 478.711C2079.6 477.319 2080.05 475.927 2080.5 474.535C2080.73 473.806 2080.96 473.077 2081.2 472.326C2082.89 467.114 2082.89 467.114 2084 466C2088.29 466 2092.58 466 2097 466C2097 481.84 2097 497.68 2097 514C2094.03 514 2091.06 514 2088 514C2087.67 503.44 2087.34 492.88 2087 482C2086.29 484.226 2085.58 486.452 2084.85 488.746C2084.16 490.894 2083.47 493.042 2082.78 495.19C2082.3 496.686 2081.82 498.183 2081.35 499.68C2080.66 501.828 2079.97 503.975 2079.29 506.121C2079.07 506.794 2078.86 507.467 2078.64 508.16C2077.11 512.886 2077.11 512.886 2076 514C2073.03 514 2070.06 514 2067 514C2063.37 503.11 2059.74 492.22 2056 481C2055.67 491.89 2055.34 502.78 2055 514C2052.36 514 2049.72 514 2047 514C2047 498.16 2047 482.32 2047 466Z" fill="#C1C1C1"/>
<path d="M553 466C557.847 465.938 562.694 465.876 567.688 465.812C569.969 465.772 569.969 465.772 572.296 465.73C574.104 465.718 574.104 465.718 575.949 465.707C577.795 465.683 577.795 465.683 579.678 465.659C584.004 466.103 586.446 467.734 589.75 470.426C592.208 473.521 592.339 477.165 592 481C590.678 483.957 589 486.46 587 489C587.624 489.285 588.248 489.57 588.891 489.863C591.817 491.44 592.656 492.975 594 496C594.571 501.23 593.849 504.578 591 509C586.114 513.52 582.681 514.125 576.145 514.098C574.934 514.095 573.723 514.093 572.476 514.09C570.937 514.081 569.398 514.072 567.812 514.062C562.924 514.042 558.036 514.021 553 514C553 498.16 553 482.32 553 466ZM562 473C562 476.96 562 480.92 562 485C564.584 485.081 567.165 485.141 569.75 485.188C570.48 485.213 571.209 485.238 571.961 485.264C575.219 485.308 577.577 485.226 580.48 483.676C582.272 481.994 582.272 481.994 582.562 479C582.312 475.889 582.312 475.889 579.953 474.324C576.293 472.683 573.111 472.666 569.188 472.812C568.495 472.826 567.802 472.84 567.088 472.854C565.392 472.889 563.696 472.942 562 473ZM562 493C562 497.29 562 501.58 562 506C565.105 506.081 568.207 506.14 571.312 506.188C572.634 506.225 572.634 506.225 573.982 506.264C574.83 506.273 575.678 506.283 576.551 506.293C577.331 506.309 578.111 506.324 578.915 506.341C581.568 505.907 582.425 505.151 584 503C584.592 498.378 584.592 498.378 582.755 494.3C580.527 492.65 579.302 492.652 576.551 492.707C575.279 492.722 575.279 492.722 573.982 492.736C573.101 492.761 572.22 492.787 571.312 492.812C570.42 492.826 569.527 492.84 568.607 492.854C566.405 492.889 564.202 492.943 562 493Z" fill="#C1C1C1"/>
<path d="M2215 466C2226 466 2226 466 2229.18 468.938C2230.05 470.266 2230.88 471.623 2231.67 473C2232.12 473.71 2232.57 474.421 2233.03 475.152C2234.46 477.414 2235.82 479.704 2237.19 482C2238.15 483.544 2239.11 485.086 2240.07 486.625C2242.43 490.39 2244.71 494.189 2247 498C2247.33 487.44 2247.66 476.88 2248 466C2250.97 466 2253.94 466 2257 466C2257 481.84 2257 497.68 2257 514C2247 514 2247 514 2244.48 511.908C2243.6 510.467 2243.6 510.467 2242.7 508.996C2242.03 507.945 2241.37 506.894 2240.68 505.811C2240.02 504.697 2239.36 503.584 2238.69 502.438C2237.34 500.269 2235.99 498.101 2234.64 495.934C2233.77 494.48 2233.77 494.48 2232.88 492.998C2230.73 489.57 2228.35 486.292 2226 483C2225.67 493.23 2225.34 503.46 2225 514C2221.7 514 2218.4 514 2215 514C2215 498.16 2215 482.32 2215 466Z" fill="#C1C1C1"/>
<path d="M1661 466C1671 466 1671 466 1674.15 469.029C1675.07 470.403 1675.95 471.801 1676.79 473.219C1677.26 473.951 1677.74 474.684 1678.23 475.438C1679.73 477.773 1681.18 480.134 1682.62 482.5C1683.64 484.092 1684.65 485.682 1685.67 487.27C1688.16 491.155 1690.57 495.073 1693 499C1693.33 488.11 1693.66 477.22 1694 466C1696.97 466 1699.94 466 1703 466C1703 481.84 1703 497.68 1703 514C1693 514 1693 514 1690.77 512.455C1690.31 511.729 1689.85 511.002 1689.37 510.254C1688.82 509.432 1688.27 508.609 1687.71 507.762C1687.14 506.851 1686.58 505.939 1686 505C1685.36 504.043 1684.72 503.087 1684.06 502.101C1682.02 499.069 1680.04 496.009 1678.06 492.938C1675.73 489.328 1673.4 485.719 1671 482C1670.67 492.56 1670.34 503.12 1670 514C1667.03 514 1664.06 514 1661 514C1661 498.16 1661 482.32 1661 466Z" fill="#C1C1C1"/>
<path d="M824 466C834 466 834 466 836.234 467.668C836.735 468.499 837.235 469.331 837.75 470.188C838.374 471.167 838.998 472.147 839.641 473.156C839.994 473.74 840.348 474.324 840.713 474.926C842.84 478.353 845.118 481.678 847.374 485.021C850.27 489.334 853.131 493.669 856 498C856.33 487.44 856.66 476.88 857 466C859.97 466 862.94 466 866 466C866 481.84 866 497.68 866 514C856 514 856 514 852.845 510.971C851.931 509.597 851.055 508.199 850.211 506.781C849.5 505.683 849.5 505.683 848.774 504.562C847.274 502.227 845.825 499.866 844.375 497.5C843.364 495.908 842.35 494.318 841.332 492.73C838.843 488.845 836.427 484.927 834 481C833.67 491.89 833.34 502.78 833 514C830.03 514 827.06 514 824 514C824 498.16 824 482.32 824 466Z" fill="#C1C1C1"/>
<path d="M902 466C908.713 465.907 908.713 465.907 915.562 465.813C916.961 465.785 918.359 465.758 919.799 465.73C933.076 465.641 933.076 465.641 938.926 470.648C939.383 471.218 939.841 471.788 940.312 472.375C940.783 472.94 941.254 473.504 941.738 474.086C946.084 480.679 946.78 489.037 945.375 496.688C943.858 502.194 941.732 507.004 937.016 510.449C929.629 514.478 923.153 514.598 914.875 514.313C910.626 514.209 906.378 514.106 902 514C902 498.16 902 482.32 902 466ZM912 473C912 483.89 912 494.78 912 506C927.253 507.707 927.253 507.707 934 501C937.006 495.261 937.043 487.808 935.348 481.617C933.781 477.972 932.379 476.258 929.062 474C923.593 472.482 923.593 472.482 912 473Z" fill="#C1C1C1"/>
<path d="M1237 466C1244.49 465.876 1244.49 465.876 1252.12 465.75C1254.47 465.695 1254.47 465.695 1256.86 465.64C1258.11 465.63 1259.35 465.62 1260.63 465.609C1261.9 465.588 1263.17 465.567 1264.47 465.546C1269.53 466.197 1272.64 468.372 1275.88 472.25C1277.38 475.934 1277.61 479.073 1277 483C1275.62 485.812 1275.62 485.812 1274 488C1273.34 488.99 1272.68 489.98 1272 491C1272.47 491.433 1272.95 491.866 1273.44 492.312C1276.43 495.543 1276.23 499.234 1276.5 503.438C1276.73 507.079 1276.97 510.493 1278 514C1276.35 514.027 1274.71 514.046 1273.06 514.062C1271.69 514.08 1271.69 514.08 1270.29 514.098C1268 514 1268 514 1267 513C1266.52 509.58 1266.13 506.159 1265.75 502.727C1265.64 499.055 1265.64 499.055 1264 496C1262.66 495.844 1261.31 495.75 1259.96 495.684C1259.24 495.645 1258.51 495.607 1257.76 495.568C1256.36 495.503 1256.36 495.503 1254.94 495.438C1251.99 495.293 1249.04 495.149 1246 495C1246 501.27 1246 507.54 1246 514C1243.03 514 1240.06 514 1237 514C1237 498.16 1237 482.32 1237 466ZM1246 473C1246 477.62 1246 482.24 1246 487C1248.75 487.081 1251.5 487.141 1254.25 487.188C1255.03 487.213 1255.8 487.238 1256.61 487.264C1260.05 487.308 1262.39 487.305 1265.51 485.738C1267.27 483.679 1267.57 482.689 1267.56 480C1267.58 479.319 1267.61 478.639 1267.63 477.938C1267.12 475.8 1267.12 475.8 1264.98 474.262C1261.17 472.649 1257.75 472.671 1253.69 472.812C1252.58 472.833 1252.58 472.833 1251.44 472.854C1249.63 472.889 1247.81 472.942 1246 473Z" fill="#C1C1C1"/>
<path d="M1022 466C1034.54 466 1047.08 466 1060 466C1060 468.31 1060 470.62 1060 473C1059 474 1059 474 1056.41 474.114C1055.28 474.108 1054.16 474.103 1053 474.098C1051.78 474.094 1050.57 474.091 1049.31 474.088C1048.04 474.08 1046.76 474.071 1045.44 474.062C1044.15 474.058 1042.87 474.053 1041.55 474.049C1038.37 474.037 1035.18 474.021 1032 474C1032 477.63 1032 481.26 1032 485C1040.58 485 1049.16 485 1058 485C1058 487.64 1058 490.28 1058 493C1049.42 493 1040.84 493 1032 493C1032 497.29 1032 501.58 1032 506C1041.57 506 1051.14 506 1061 506C1061 508.64 1061 511.28 1061 514C1048.13 514 1035.26 514 1022 514C1022 498.16 1022 482.32 1022 466Z" fill="#C1C1C1"/>
<path d="M627 466C639.54 466 652.08 466 665 466C665 468.31 665 470.62 665 473C664 474 664 474 661.408 474.114C660.282 474.108 659.156 474.103 657.996 474.098C656.781 474.094 655.566 474.091 654.314 474.088C653.035 474.08 651.756 474.071 650.438 474.062C649.154 474.058 647.871 474.053 646.549 474.049C643.366 474.037 640.183 474.021 637 474C637 477.63 637 481.26 637 485C645.58 485 654.16 485 663 485C663 487.64 663 490.28 663 493C654.42 493 645.84 493 637 493C637 497.29 637 501.58 637 506C646.57 506 656.14 506 666 506C666 508.64 666 511.28 666 514C653.13 514 640.26 514 627 514C627 498.16 627 482.32 627 466Z" fill="#C1C1C1"/>
<path d="M2138 466C2150.54 466 2163.08 466 2176 466C2176 468.31 2176 470.62 2176 473C2175 474 2175 474 2172.41 474.114C2171.28 474.108 2170.16 474.103 2169 474.098C2167.78 474.094 2166.57 474.091 2165.31 474.088C2164.04 474.08 2162.76 474.071 2161.44 474.062C2160.15 474.058 2158.87 474.053 2157.55 474.049C2154.37 474.037 2151.18 474.021 2148 474C2148 477.63 2148 481.26 2148 485C2149.79 484.988 2151.59 484.977 2153.43 484.965C2155.77 484.955 2158.1 484.946 2160.44 484.938C2161.62 484.929 2162.81 484.921 2164.03 484.912C2165.15 484.909 2166.27 484.906 2167.43 484.902C2168.48 484.897 2169.52 484.892 2170.59 484.886C2173 485 2173 485 2174 486C2174.12 489 2174.12 489 2174 492C2173 493 2173 493 2170.59 493.114C2169.55 493.108 2168.51 493.103 2167.43 493.098C2166.31 493.094 2165.18 493.091 2164.03 493.088C2162.84 493.08 2161.66 493.071 2160.44 493.062C2159.25 493.058 2158.06 493.053 2156.84 493.049C2153.89 493.037 2150.95 493.019 2148 493C2148 497.29 2148 501.58 2148 506C2157.57 506 2167.14 506 2177 506C2177 508.64 2177 511.28 2177 514C2164.13 514 2151.26 514 2138 514C2138 498.16 2138 482.32 2138 466Z" fill="#C1C1C1"/>
<path d="M700 466C702.97 466 705.94 466 709 466C709 471.94 709 477.88 709 484C716.59 484 724.18 484 732 484C732 478.06 732 472.12 732 466C735.3 466 738.6 466 742 466C742 481.84 742 497.68 742 514C738.7 514 735.4 514 732 514C732 507.07 732 500.14 732 493C724.41 493 716.82 493 709 493C709 499.93 709 506.86 709 514C706.03 514 703.06 514 700 514C700 498.16 700 482.32 700 466Z" fill="#C1C1C1"/>
<path d="M1819 466C1831.54 466 1844.08 466 1857 466C1857 468.31 1857 470.62 1857 473C1856 474 1856 474 1853.32 474.114C1852.15 474.108 1850.98 474.103 1849.78 474.098C1848.52 474.094 1847.26 474.091 1845.96 474.088C1844.62 474.08 1843.28 474.071 1841.94 474.062C1840.59 474.057 1839.25 474.053 1837.9 474.049C1834.6 474.037 1831.3 474.021 1828 474C1828 477.63 1828 481.26 1828 485C1829.17 484.992 1829.17 484.992 1830.37 484.984C1833.89 484.963 1837.42 484.95 1840.94 484.938C1842.79 484.925 1842.79 484.925 1844.67 484.912C1845.84 484.909 1847.01 484.906 1848.21 484.902C1849.84 484.894 1849.84 484.894 1851.5 484.886C1854 485 1854 485 1855 486C1855.12 489 1855.12 489 1855 492C1854 493 1854 493 1851.5 493.114C1850.42 493.108 1849.33 493.103 1848.21 493.098C1847.05 493.094 1845.88 493.091 1844.67 493.088C1843.44 493.08 1842.21 493.071 1840.94 493.062C1839.08 493.056 1839.08 493.056 1837.19 493.049C1834.13 493.037 1831.06 493.019 1828 493C1828 497.29 1828 501.58 1828 506C1830.08 505.988 1832.16 505.977 1834.31 505.965C1836.32 505.958 1838.33 505.951 1840.34 505.945C1841.73 505.94 1843.13 505.933 1844.53 505.925C1846.54 505.912 1848.55 505.907 1850.56 505.902C1852.37 505.894 1852.37 505.894 1854.22 505.886C1857 506 1857 506 1858 507C1858 509.31 1858 511.62 1858 514C1845.13 514 1832.26 514 1819 514C1819 498.16 1819 482.32 1819 466Z" fill="#C1C1C1"/>
<path d="M1928 468C1931.8 471.804 1933.75 474.557 1934 480C1933 481 1933 481 1931.15 481.098C1929.1 481.065 1927.05 481.033 1925 481C1924.57 480.051 1924.13 479.103 1923.69 478.125C1922.21 474.8 1922.21 474.8 1919 473C1916.59 472.683 1916.59 472.683 1914 472.75C1912.7 472.742 1912.7 472.742 1911.38 472.734C1908.73 472.846 1908.73 472.846 1906 475C1905.75 478.584 1905.75 478.584 1906 482C1906.65 482.17 1907.31 482.34 1907.98 482.516C1929.62 488.261 1929.62 488.261 1934 494C1935.87 497.744 1935.63 502.018 1934.39 505.941C1931.88 511.052 1928.23 513.089 1923 515C1915.69 517.139 1908.82 516.114 1902 513C1897.93 510.481 1895.19 507.74 1894 503C1893.88 500.188 1893.88 500.188 1894 498C1896.97 498 1899.94 498 1903 498C1903.21 499.114 1903.41 500.228 1903.62 501.375C1904.61 505.156 1904.61 505.156 1907.62 506.438C1912.8 507.3 1917.13 507.933 1922 505.5C1922.66 505.005 1923.32 504.51 1924 504C1923.89 501.096 1923.89 501.096 1923 498C1918.34 494.524 1913.02 493.555 1907.47 492.16C1902.58 490.526 1899.05 488.489 1896.06 484.25C1894.72 480.133 1894.76 477.134 1896 473C1899.14 467.564 1903.55 466.12 1909.31 464.25C1915.9 463.638 1922.43 464.244 1928 468Z" fill="#C1C1C1"/>
<path d="M1165 466C1177.21 466 1189.42 466 1202 466C1202 468.64 1202 471.28 1202 474C1192.76 474 1183.52 474 1174 474C1174 477.63 1174 481.26 1174 485C1182.58 485 1191.16 485 1200 485C1200 487.64 1200 490.28 1200 493C1191.42 493 1182.84 493 1174 493C1174 497.29 1174 501.58 1174 506C1183.57 506 1193.14 506 1203 506C1203 508.64 1203 511.28 1203 514C1190.46 514 1177.92 514 1165 514C1165 498.16 1165 482.32 1165 466Z" fill="#C1C1C1"/>
<path d="M1739 466C1742.3 466 1745.6 466 1749 466C1750.57 470.643 1752.14 475.288 1753.7 479.934C1754.23 481.515 1754.77 483.095 1755.3 484.675C1756.07 486.944 1756.83 489.216 1757.59 491.488C1757.83 492.195 1758.07 492.901 1758.32 493.629C1759.3 496.547 1760 498.901 1760 502C1760.66 502 1761.32 502 1762 502C1762.23 500.805 1762.47 499.61 1762.71 498.379C1764.19 491.742 1766.44 485.366 1768.62 478.938C1769.05 477.69 1769.47 476.443 1769.9 475.158C1770.93 472.104 1771.96 469.051 1773 466C1776.3 466 1779.6 466 1783 466C1782.4 469.313 1781.6 472.364 1780.42 475.515C1780.1 476.375 1779.78 477.236 1779.45 478.123C1779.1 479.037 1778.76 479.952 1778.4 480.895C1778.05 481.842 1777.69 482.789 1777.33 483.765C1776.2 486.782 1775.07 489.797 1773.94 492.812C1773.17 494.861 1772.4 496.91 1771.64 498.959C1769.76 503.974 1767.88 508.988 1766 514C1762.7 514 1759.4 514 1756 514C1751.42 501.938 1751.42 501.938 1749.36 496.491C1748.85 495.163 1748.35 493.835 1747.85 492.508C1747.6 491.853 1747.35 491.199 1747.1 490.525C1745.72 486.886 1744.33 483.25 1742.93 479.617C1742.65 478.88 1742.37 478.144 1742.08 477.385C1741.37 475.513 1740.65 473.643 1739.93 471.773C1739 469 1739 469 1739 466Z" fill="#C1C1C1"/>
<path d="M1089 466C1092.3 466 1095.6 466 1099 466C1102.06 473.429 1104.7 480.923 1107.19 488.562C1107.89 490.711 1108.59 492.858 1109.29 495.004C1109.6 495.94 1109.9 496.877 1110.22 497.842C1110.81 499.951 1110.81 499.951 1112 501C1115.96 489.45 1119.92 477.9 1124 466C1127.3 466 1130.6 466 1134 466C1132.09 472.526 1130.02 478.921 1127.64 485.289C1127.34 486.118 1127.03 486.948 1126.72 487.802C1125.75 490.411 1124.78 493.018 1123.81 495.625C1123.15 497.41 1122.49 499.195 1121.83 500.98C1120.22 505.322 1118.61 509.661 1117 514C1113.7 514 1110.4 514 1107 514C1103.06 504.838 1099.52 495.549 1096.07 486.196C1095.17 483.777 1094.28 481.36 1093.38 478.943C1092.81 477.406 1092.24 475.869 1091.67 474.332C1091.4 473.609 1091.13 472.886 1090.85 472.142C1089 467.116 1089 467.116 1089 466Z" fill="#C1C1C1"/>
<path d="M1301 466C1304.96 466 1308.92 466 1313 466C1316.63 472.6 1320.26 479.2 1324 486C1327.58 479.793 1327.58 479.793 1331.15 473.584C1331.59 472.815 1332.04 472.046 1332.5 471.254C1332.95 470.463 1333.41 469.672 1333.88 468.858C1335 467 1335 467 1336 466C1337.69 465.928 1339.38 465.916 1341.06 465.938C1341.98 465.947 1342.9 465.956 1343.85 465.965C1344.56 465.976 1345.27 465.988 1346 466C1344.65 469.703 1342.95 472.789 1340.78 476.07C1332.57 488.895 1327.73 498.623 1329 514C1326.03 514 1323.06 514 1320 514C1320.12 512.291 1320.12 512.291 1320.24 510.547C1320.65 496.545 1315.78 488.355 1307.62 477.312C1305.09 473.701 1303.06 469.888 1301 466Z" fill="#C1C1C1"/>
<path d="M2294 466C2307.53 466 2321.06 466 2335 466C2335 468.31 2335 470.62 2335 473C2334.67 473.33 2334.34 473.66 2334 474C2329.05 474 2324.1 474 2319 474C2319 487.2 2319 500.4 2319 514C2316.03 514 2313.06 514 2310 514C2310 500.8 2310 487.6 2310 474C2305.05 474 2300.1 474 2295 474C2294.67 473.67 2294.34 473.34 2294 473C2294 470.69 2294 468.38 2294 466Z" fill="#C1C1C1"/>
<path d="M1969 466C1982.53 466 1996.06 466 2010 466C2010 468.31 2010 470.62 2010 473C2009.67 473.33 2009.34 473.66 2009 474C2004.05 474 1999.1 474 1994 474C1994 487.2 1994 500.4 1994 514C1991.03 514 1988.06 514 1985 514C1985 500.8 1985 487.6 1985 474C1980.05 474 1975.1 474 1970 474C1969.67 473.67 1969.34 473.34 1969 473C1969 470.69 1969 468.38 1969 466Z" fill="#C1C1C1"/>
<path d="M778 466C781.3 466 784.6 466 788 466C788 481.84 788 497.68 788 514C784.7 514 781.4 514 778 514C778 498.16 778 482.32 778 466Z" fill="#C1C1C1"/>
<path d="M1610 466C1612.97 466 1615.94 466 1619 466C1619 481.84 1619 497.68 1619 514C1616.03 514 1613.06 514 1610 514C1610 498.16 1610 482.32 1610 466Z" fill="#C1C1C1"/>
</svg>
