<svg id="header-logo.png_header-logo.svg" data-name="header-logo.png, header-logo.svg" xmlns="http://www.w3.org/2000/svg" width="149" height="28" viewBox="0 0 149 28">
  <path fill="#FFF" d="M253.285,52.61a6.438,6.438,0,0,0-.427-2.261,4.348,4.348,0,0,0-1.022-1.466,4.947,4.947,0,0,0-1.565-.977,10.671,10.671,0,0,0-2.569-.57q-1.659-.2-4.316-0.265t-6.84-.061q-4.182,0-6.861.061t-4.407.265a13.253,13.253,0,0,0-2.768.57,7.694,7.694,0,0,0-1.9.977,7.051,7.051,0,0,0-1.531,1.487,9.207,9.207,0,0,0-1.2,2.24,24.728,24.728,0,0,0-1,3.361q-0.464,2-.955,4.847-0.519,3.015-.755,5.071a23.208,23.208,0,0,0-.179,3.462,7.057,7.057,0,0,0,.4,2.281,3.849,3.849,0,0,0,1.038,1.487,4.949,4.949,0,0,0,1.563.977,10.679,10.679,0,0,0,2.571.571q1.657,0.2,4.356.265t6.88,0.061q4.1,0,6.781-.061t4.407-.265a13.2,13.2,0,0,0,2.767-.571,7.664,7.664,0,0,0,1.9-.977,7.2,7.2,0,0,0,1.528-1.467,8.887,8.887,0,0,0,1.206-2.261A26.152,26.152,0,0,0,251.4,65.95q0.47-2.036.976-4.97t0.734-4.949A23.085,23.085,0,0,0,253.285,52.61Zm-8.719,6.558q-0.147,1.08-.406,2.587-0.21,1.222-.421,2.1a10.509,10.509,0,0,1-.452,1.466,4.49,4.49,0,0,1-.528.978,2.94,2.94,0,0,1-.693.673,3.684,3.684,0,0,1-1.024.509,7.9,7.9,0,0,1-1.542.285q-0.974.1-2.514,0.142t-3.97.041q-2.511,0-4.076-.041t-2.524-.142a6.185,6.185,0,0,1-1.445-.285,2.429,2.429,0,0,1-.828-0.509,1.993,1.993,0,0,1-.481-0.673,2.6,2.6,0,0,1-.191-0.978,11.424,11.424,0,0,1,.074-1.466q0.092-.876.309-2.139,0.448-2.606.817-3.93a6.853,6.853,0,0,1,.846-2.017,3.147,3.147,0,0,1,.858-0.937,3.919,3.919,0,0,1,1.462-.509,18.222,18.222,0,0,1,2.747-.224q1.76-.04,4.747-0.041,2.787,0,4.434.041a25.3,25.3,0,0,1,2.561.163,3.535,3.535,0,0,1,1.311.366,2.363,2.363,0,0,1,.684.652,2.162,2.162,0,0,1,.317.815,6.186,6.186,0,0,1,.085,1.242A15.952,15.952,0,0,1,244.566,59.168Zm43.9-5.948a6.766,6.766,0,0,0-.533-2.912,3.778,3.778,0,0,0-1.69-1.751,9.513,9.513,0,0,0-2.972-.9c-0.362-.054-0.7-0.1-1.015-0.122s-0.72-.054-1.22-0.081-1.135-.041-1.905-0.041H257.9l-4.685,27.169h8.086l1.145-6.639h10.2q2.151,0,3.631-.041t2.531-.122a17.087,17.087,0,0,0,1.81-.224,10.7,10.7,0,0,0,1.482-.387,8.34,8.34,0,0,0,2.208-1.14,6.38,6.38,0,0,0,1.627-1.813,11.875,11.875,0,0,0,1.187-2.729,31.725,31.725,0,0,0,.89-3.89A27.29,27.29,0,0,0,288.468,53.221ZM279.926,57.6a7.832,7.832,0,0,1-.577,2.077A2.441,2.441,0,0,1,278.4,60.7a2.647,2.647,0,0,1-.5.245,3.052,3.052,0,0,1-.7.122q-0.465.041-1.265,0.061t-2.194.02H263.623l1.194-6.925h10.117q1.314,0,2.067.021c0.5,0.014.885,0.027,1.148,0.041a3.585,3.585,0,0,1,.567.061,2.142,2.142,0,0,1,.357.122,1.4,1.4,0,0,1,.927.978A5.6,5.6,0,0,1,279.926,57.6Zm47.947-10.347H315.486L303.243,57.274h-4.421l1.7-9.858h-8.085l-4.685,27.169h8.085L297.629,64.2h4.421l10.118,10.387h12.268L310.174,60.737Zm36.138,5.357a6.441,6.441,0,0,0-.426-2.261,4.362,4.362,0,0,0-1.022-1.466A4.958,4.958,0,0,0,361,47.905a10.681,10.681,0,0,0-2.57-.57q-1.658-.2-4.315-0.265t-6.841-.061q-4.182,0-6.86.061T336,47.335a13.256,13.256,0,0,0-2.767.57,7.7,7.7,0,0,0-1.9.977,7.051,7.051,0,0,0-1.531,1.487,9.241,9.241,0,0,0-1.2,2.24,24.74,24.74,0,0,0-1,3.361q-0.464,2-.955,4.847-0.52,3.015-.755,5.071a23.074,23.074,0,0,0-.179,3.462,7.087,7.087,0,0,0,.4,2.281,3.849,3.849,0,0,0,1.038,1.487,4.965,4.965,0,0,0,1.564.977,10.658,10.658,0,0,0,2.57.571q1.659,0.2,4.356.265t6.88,0.061q4.1,0,6.782-.061t4.407-.265a13.21,13.21,0,0,0,2.767-.571,7.717,7.717,0,0,0,1.9-.977,7.222,7.222,0,0,0,1.528-1.467,8.918,8.918,0,0,0,1.206-2.261,26.012,26.012,0,0,0,1.011-3.442q0.471-2.036.977-4.97t0.733-4.949A23.085,23.085,0,0,0,364.011,52.61Zm-8.718,6.558q-0.147,1.08-.406,2.587-0.212,1.222-.422,2.1a10.376,10.376,0,0,1-.452,1.466,4.448,4.448,0,0,1-.527.978,2.959,2.959,0,0,1-.693.673,3.7,3.7,0,0,1-1.024.509,7.9,7.9,0,0,1-1.543.285q-0.974.1-2.514,0.142t-3.97.041q-2.51,0-4.076-.041t-2.524-.142a6.175,6.175,0,0,1-1.444-.285,2.41,2.41,0,0,1-.828-0.509,2,2,0,0,1-.482-0.673,2.6,2.6,0,0,1-.19-0.978,11.07,11.07,0,0,1,.074-1.466q0.092-.876.309-2.139,0.448-2.606.817-3.93a6.882,6.882,0,0,1,.845-2.017,3.137,3.137,0,0,1,.859-0.937,3.912,3.912,0,0,1,1.462-.509,18.207,18.207,0,0,1,2.746-.224q1.761-.04,4.748-0.041,2.787,0,4.434.041a25.252,25.252,0,0,1,2.56.163,3.529,3.529,0,0,1,1.311.366,2.367,2.367,0,0,1,.685.652,2.162,2.162,0,0,1,.317.815,6.2,6.2,0,0,1,.084,1.242A15.7,15.7,0,0,1,355.293,59.168Z" transform="translate(-215 -47)"/>
</svg>
