<svg width="441" height="136" viewBox="0 0 441 136" fill="none" xmlns="http://www.w3.org/2000/svg">
<g clip-path="url(#clip0_4047_14)">
<path d="M343.37 98.1201C342.3 97.0501 341.3 95.9201 340.34 94.7401C339.39 93.5601 338.5 92.3301 337.68 91.0601L331.04 95.2601C333.32 98.8301 336.01 102.07 339.09 104.96C342.17 107.85 345.57 110.32 349.26 112.36C352.96 114.39 356.85 115.93 360.93 116.99C365.01 118.04 369.16 118.57 373.37 118.57L373.42 118.66C374.5 118.66 375.57 118.62 376.65 118.55C377.72 118.48 378.81 118.37 379.86 118.24C380.93 118.1 381.99 117.93 383.05 117.72C384.11 117.51 385.15 117.27 386.2 116.99C387.25 116.72 388.27 116.4 389.3 116.06C390.32 115.72 391.34 115.34 392.34 114.93C393.34 114.52 394.33 114.08 395.3 113.61C396.26 113.14 397.23 112.63 398.16 112.1C399.1 111.57 400.02 111.01 400.93 110.41C401.84 109.82 402.72 109.2 403.58 108.54C404.44 107.89 405.29 107.21 406.11 106.51C406.93 105.8 407.73 105.08 408.5 104.31C409.28 103.56 410.03 102.77 410.75 101.97C411.47 101.16 412.17 100.34 412.84 99.4901C413.52 98.6401 414.16 97.7601 414.77 96.8801C415.39 95.9901 415.98 95.0801 416.54 94.1401C417.1 93.2101 417.63 92.2601 418.13 91.2901C418.63 90.3301 419.09 89.3501 419.54 88.3501C419.98 87.3501 420.38 86.3501 420.76 85.3301C421.13 84.3101 421.47 83.2701 421.78 82.2301C422.09 81.1801 422.36 80.1401 422.6 79.0701C422.84 78.0101 423.05 76.9401 423.22 75.8601C423.39 74.7901 423.54 73.7101 423.64 72.6301C423.75 71.5501 423.82 70.4501 423.85 69.3701C423.89 68.2801 423.89 67.1901 423.85 66.1001C423.82 65.0101 423.75 63.9201 423.65 62.8401C423.54 61.7601 423.42 60.6801 423.24 59.5901C423.06 58.5201 422.87 57.4501 422.62 56.3801C422.39 55.3201 422.11 54.2601 421.8 53.2201C421.49 52.1801 421.16 51.1401 420.79 50.1201C420.42 49.1001 420.02 48.0901 419.58 47.0901C419.15 46.0901 418.68 45.1101 418.18 44.1501C417.68 43.1901 417.16 42.2301 416.6 41.3001C416.04 40.3701 415.46 39.4501 414.84 38.5601C414.22 37.6701 413.58 36.8001 412.91 35.9401C412.24 35.0801 411.54 34.2601 410.82 33.4501C410.1 32.6401 409.35 31.8601 408.57 31.1001C407.79 30.3401 407 29.6101 406.19 28.9001C405.37 28.1901 404.53 27.5101 403.66 26.8501C402.8 26.1901 401.92 25.5701 401.01 24.9801C400.1 24.3801 399.18 23.8201 398.25 23.2901C397.31 22.7501 396.36 22.2401 395.39 21.7701C394.42 21.3001 393.43 20.8501 392.44 20.4401C391.44 20.0301 390.43 19.6501 389.4 19.3101C388.38 18.9701 387.34 18.6501 386.3 18.3701C385.25 18.0901 384.21 17.8501 383.15 17.6401C382.09 17.4301 381.03 17.2501 379.96 17.1101C378.89 16.9701 377.82 16.8601 376.75 16.7901C375.68 16.7201 374.6 16.6801 373.51 16.6801C372.42 16.6801 371.36 16.7201 370.27 16.7701C369.2 16.8401 368.12 16.9301 367.04 17.0801C365.97 17.2201 364.91 17.3901 363.85 17.6001C362.79 17.8101 361.74 18.0501 360.7 18.3201C359.65 18.5901 358.63 18.9001 357.61 19.2401C356.59 19.5801 355.57 19.9601 354.57 20.3601C353.57 20.7701 352.58 21.2101 351.62 21.6801C350.64 22.1501 349.69 22.6601 348.75 23.1901C347.81 23.7201 346.89 24.2801 345.98 24.8701C345.07 25.4601 344.19 26.0801 343.33 26.7301C342.47 27.3801 341.62 28.0601 340.79 28.7601C339.96 29.4701 339.17 30.1901 338.39 30.9501C337.61 31.7001 336.87 32.4901 336.13 33.2901C335.4 34.0901 334.7 34.9201 334.03 35.7701C333.35 36.6201 332.72 37.4901 332.09 38.3801L338.85 42.4401C339.73 41.2101 340.68 40.0301 341.68 38.8901C342.68 37.7601 343.75 36.6801 344.87 35.6701C345.98 34.6501 347.15 33.6901 348.37 32.8001C349.59 31.9101 350.85 31.0801 352.15 30.3201C353.46 29.5701 354.79 28.8701 356.18 28.2601C357.57 27.6501 358.96 27.1101 360.39 26.6401C361.82 26.1801 363.28 25.7901 364.75 25.4801C366.23 25.1701 367.71 24.9401 369.21 24.8001C370.71 24.6501 372.21 24.5801 373.71 24.5901C375.21 24.5901 376.71 24.7001 378.21 24.8601C379.7 25.0401 381.19 25.2801 382.65 25.6101C384.12 25.9401 385.57 26.3501 386.99 26.8301C388.41 27.3101 389.82 27.8801 391.18 28.5101C392.54 29.1501 393.88 29.8501 395.17 30.6301C396.46 31.4101 397.71 32.2501 398.92 33.1601C400.13 34.0701 401.28 35.0401 402.37 36.0801C403.48 37.1101 404.52 38.2101 405.5 39.3501C406.49 40.5001 407.41 41.6901 408.28 42.9401C409.14 44.1901 409.93 45.4701 410.66 46.8101C411.39 48.1401 412.05 49.5001 412.63 50.9001C413.21 52.3001 413.73 53.7301 414.15 55.1801C414.58 56.6301 414.94 58.1101 415.22 59.6001C415.5 61.0901 415.7 62.6001 415.82 64.1201C415.95 65.6401 415.98 67.1501 415.95 68.6701C415.92 70.1901 415.8 71.7001 415.6 73.2101C415.4 74.7201 415.13 76.2101 414.77 77.6901C414.42 79.1701 413.99 80.6201 413.49 82.0501C412.99 83.4801 412.41 84.8801 411.76 86.2601C411.11 87.6401 410.39 88.9601 409.59 90.2601C408.8 91.5501 407.94 92.8001 407.02 94.0001C406.1 95.2001 405.11 96.3501 404.08 97.4501C403.04 98.5401 401.94 99.5801 400.79 100.57C399.64 101.55 398.44 102.46 397.19 103.31C395.94 104.16 394.65 104.94 393.33 105.65C392 106.37 390.64 107 389.24 107.57C387.84 108.13 386.42 108.63 384.97 109.04C383.53 109.45 382.06 109.79 380.57 110.05C379.09 110.31 377.59 110.49 376.09 110.58C374.59 110.67 373.09 110.7 371.59 110.63C370.09 110.57 368.59 110.42 367.1 110.21C365.61 109.99 364.15 109.68 362.68 109.3C361.22 108.92 359.79 108.47 358.38 107.92C356.97 107.38 355.6 106.78 354.25 106.1C352.9 105.42 351.6 104.67 350.33 103.84C349.06 103.02 347.84 102.13 346.68 101.18C345.51 100.23 344.39 99.2201 343.32 98.1501L343.37 98.1201Z" fill="#C1C1C1"/>
<path d="M440.4 66.49C440.37 65.03 440.31 63.57 440.18 62.12C440.06 60.66 439.9 59.22 439.68 57.77C439.47 56.32 439.22 54.89 438.91 53.47C438.61 52.05 438.26 50.62 437.86 49.22C437.46 47.82 437.02 46.42 436.55 45.05C436.06 43.67 435.54 42.31 434.97 40.97C434.4 39.63 433.78 38.31 433.13 37.01C432.48 35.7 431.78 34.43 431.04 33.18C430.31 31.92 429.53 30.7 428.71 29.49C427.89 28.29 427.03 27.1 426.15 25.96C425.25 24.81 424.33 23.69 423.37 22.61C422.4 21.52 421.41 20.47 420.38 19.45C419.35 18.43 418.29 17.44 417.19 16.49C416.09 15.54 414.97 14.62 413.82 13.74C412.67 12.86 411.48 12.02 410.28 11.21C409.08 10.4 407.83 9.65002 406.59 8.92002C405.33 8.20002 404.05 7.52002 402.76 6.87002C401.46 6.23002 400.14 5.64002 398.8 5.08002C397.46 4.53002 396.11 4.02002 394.74 3.55002C393.37 3.09002 391.98 2.67002 390.59 2.29002C389.19 1.91002 387.78 1.58002 386.37 1.30002C384.95 1.02002 383.53 0.78002 382.09 0.59002C380.66 0.40002 379.22 0.26002 377.77 0.17002C376.34 0.0600195 374.9 0.0200195 373.44 0.0200195C367.96 0.0200195 362.55 0.690019 357.23 2.04002C351.91 3.38002 346.83 5.36002 341.99 7.97002C337.15 10.58 332.69 13.73 328.62 17.45C324.55 21.17 320.97 25.32 317.92 29.92L324.68 33.98C325.87 32.23 327.15 30.55 328.51 28.92C329.87 27.31 331.31 25.77 332.85 24.31C334.37 22.85 335.98 21.48 337.64 20.19C339.32 18.91 341.05 17.71 342.84 16.6C344.63 15.49 346.48 14.5 348.39 13.6C350.3 12.69 352.24 11.91 354.22 11.21C356.21 10.52 358.22 9.94002 360.27 9.46002C362.32 8.99002 364.39 8.63002 366.47 8.37002C368.55 8.12002 370.65 7.98002 372.76 7.96002C374.86 7.94002 376.96 8.02002 379.04 8.22002C381.13 8.42002 383.2 8.73002 385.27 9.15002C387.33 9.57002 389.35 10.1 391.37 10.75C393.37 11.4 395.34 12.14 397.26 13C399.18 13.86 401.06 14.81 402.88 15.86C404.71 16.92 406.47 18.07 408.16 19.31C409.86 20.54 411.49 21.89 413.06 23.31C414.62 24.73 416.11 26.23 417.51 27.81C418.92 29.39 420.23 31.04 421.45 32.76C422.68 34.48 423.81 36.26 424.86 38.11C425.9 39.96 426.84 41.85 427.69 43.8C428.53 45.74 429.27 47.73 429.9 49.76C430.53 51.79 431.05 53.84 431.47 55.92C431.89 58 432.19 60.09 432.38 62.21C432.58 64.33 432.66 66.44 432.62 68.57C432.58 70.7 432.45 72.8 432.19 74.92C431.94 77.02 431.57 79.12 431.1 81.19C430.62 83.26 430.04 85.29 429.35 87.3C428.66 89.31 427.87 91.27 426.98 93.19C426.08 95.11 425.09 96.98 424 98.79C422.9 100.6 421.72 102.35 420.45 104.03C419.17 105.71 417.81 107.33 416.37 108.86C414.93 110.4 413.4 111.86 411.8 113.23C410.19 114.61 408.53 115.89 406.8 117.09C405.07 118.29 403.27 119.38 401.41 120.38C399.56 121.38 397.66 122.29 395.71 123.08C393.77 123.88 391.78 124.57 389.76 125.15C387.74 125.74 385.7 126.21 383.63 126.57C381.56 126.93 379.48 127.18 377.38 127.32C375.29 127.46 373.19 127.48 371.08 127.4C368.97 127.32 366.89 127.12 364.81 126.8C362.73 126.48 360.68 126.07 358.65 125.53C356.61 124.99 354.61 124.35 352.64 123.6C350.67 122.85 348.75 122 346.88 121.05C345 120.1 343.18 119.04 341.42 117.89C339.66 116.74 337.95 115.49 336.32 114.16C334.69 112.82 333.13 111.41 331.64 109.9C330.15 108.39 328.76 106.82 327.44 105.16C326.13 103.5 324.89 101.79 323.76 100L317.12 104.2C317.9 105.43 318.71 106.63 319.58 107.81C320.44 108.99 321.32 110.13 322.25 111.26C323.18 112.38 324.15 113.46 325.15 114.52C326.15 115.58 327.19 116.59 328.25 117.58C329.32 118.57 330.42 119.52 331.54 120.44C332.67 121.36 333.82 122.23 335.01 123.07C336.2 123.92 337.39 124.7 338.64 125.47C339.87 126.23 341.13 126.95 342.41 127.62C343.69 128.3 344.99 128.94 346.31 129.53C347.63 130.12 348.97 130.67 350.32 131.18C351.67 131.69 353.04 132.14 354.43 132.56C355.82 132.97 357.21 133.35 358.62 133.67C360.03 134 361.45 134.27 362.88 134.5C364.31 134.73 365.74 134.91 367.18 135.05C368.62 135.19 370.06 135.27 371.51 135.32C372.95 135.37 374.4 135.36 375.84 135.32C377.28 135.27 378.73 135.17 380.17 135.03C381.61 134.89 383.04 134.69 384.46 134.45C385.89 134.21 387.3 133.92 388.71 133.59C390.12 133.26 391.52 132.88 392.9 132.46C394.29 132.04 395.65 131.57 397.01 131.06C398.37 130.55 399.7 129.99 401.01 129.39C402.33 128.79 403.63 128.14 404.9 127.46C406.18 126.78 407.42 126.05 408.66 125.28C409.89 124.52 411.09 123.7 412.27 122.86C413.44 122.01 414.6 121.13 415.71 120.21C416.83 119.29 417.92 118.33 418.98 117.34C420.04 116.35 421.06 115.32 422.06 114.26C423.05 113.2 424.02 112.11 424.93 110.99C425.85 109.87 426.75 108.72 427.6 107.53C428.45 106.35 429.27 105.14 430.03 103.91C430.79 102.68 431.54 101.42 432.23 100.14C432.93 98.86 433.58 97.55 434.19 96.24C434.8 94.91 435.37 93.57 435.89 92.21C436.42 90.85 436.89 89.47 437.33 88.08C437.76 86.69 438.16 85.28 438.51 83.86C438.86 82.44 439.15 81.01 439.41 79.58C439.66 78.15 439.87 76.7 440.04 75.24C440.2 73.79 440.32 72.34 440.39 70.88C440.46 69.42 440.48 67.96 440.45 66.51L440.4 66.49Z" fill="#C1C1C1"/>
<path d="M356.42 48.39H346.74V83.42H356.42V48.39Z" fill="#C1C1C1"/>
<path d="M399.46 65.9C399.46 55.16 391.56 47.5 380.42 47.5C369.28 47.5 361.32 55.19 361.32 65.9C361.32 76.61 369.27 84.3 380.42 84.3C382.65 84.31 384.84 83.99 386.98 83.32L390.88 88.18L401.04 88.19L393.85 79.38C395.7 77.64 397.11 75.59 398.08 73.24C399.06 70.89 399.52 68.44 399.47 65.89L399.46 65.9ZM388.96 69.52C388.52 70.68 387.86 71.72 387 72.61C386.14 73.5 385.13 74.19 383.99 74.66C382.84 75.13 381.65 75.35 380.42 75.32C379.19 75.35 378 75.13 376.85 74.66C375.7 74.19 374.68 73.51 373.82 72.61C372.96 71.72 372.3 70.68 371.85 69.52C371.41 68.36 371.21 67.14 371.25 65.9C371.23 64.67 371.44 63.47 371.89 62.31C372.34 61.16 373 60.13 373.86 59.25C374.72 58.37 375.72 57.69 376.85 57.2C377.98 56.72 379.16 56.48 380.38 56.48C381.6 56.48 382.79 56.71 383.92 57.2C385.05 57.68 386.04 58.36 386.9 59.25C387.76 60.13 388.41 61.16 388.87 62.31C389.32 63.46 389.53 64.66 389.51 65.9C389.57 67.15 389.38 68.36 388.94 69.52H388.96Z" fill="#C1C1C1"/>
<path d="M24.69 47.09L24.66 47.07C21.39 44.58 17.65 43.44 13.59 43.68H0V81.45H3.94V69.53H13.56C17.64 69.78 21.38 68.63 24.69 66.12C26.06 64.96 27.12 63.52 27.84 61.85C28.56 60.19 28.88 58.43 28.79 56.67C28.89 54.87 28.57 53.09 27.85 51.4C27.12 49.72 26.06 48.28 24.7 47.11L24.69 47.09ZM24.16 60.37C23.66 61.56 22.93 62.59 21.97 63.42L21.93 63.46C19.43 65.26 16.73 66.03 13.6 65.82H3.94V47.39H13.63C16.74 47.18 19.48 47.98 21.96 49.8C22.91 50.63 23.65 51.66 24.15 52.86C24.65 54.05 24.86 55.3 24.79 56.66C24.87 57.96 24.66 59.18 24.17 60.37H24.16Z" fill="#C1C1C1"/>
<path d="M55.6099 56.4L55.6699 56.34L55.1799 55.88C52.8099 53.62 49.9499 52.56 46.7499 52.74C44.3399 52.7 42.0699 53.23 39.9699 54.36C38.7299 55.05 37.6799 55.93 36.8199 57.01V41.5H32.9399V81.45H36.8199V66.28C36.6799 63.5 37.5199 61.13 39.3599 59.08C41.3099 57.13 43.5899 56.26 46.3999 56.4C48.7299 56.27 50.6599 56.99 52.2799 58.57C53.8699 60.43 54.5899 62.62 54.4099 65.12V81.45H58.2899V64.95C58.5099 61.72 57.5999 58.85 55.5999 56.4H55.6099Z" fill="#C1C1C1"/>
<path d="M83.44 55.53L82.3 54.33V54.66C80.21 53.22 77.85 52.59 75.28 52.77C73.24 52.73 71.13 53.11 69.14 53.82C67.28 54.45 65.58 55.45 64.08 56.78L63.64 57.17L65.69 60.13L66.25 59.63C67.4 58.59 68.72 57.79 70.19 57.25C71.74 56.65 73.39 56.35 75.13 56.35C77.21 56.19 79 56.79 80.55 58.12C81.94 59.63 82.55 61.36 82.41 63.46V64.99H73.84C70.17 64.99 67.45 65.75 65.74 67.27C64.9 68.04 64.25 68.97 63.79 70.04C63.33 71.12 63.12 72.22 63.14 73.38C63.17 74.54 63.43 75.66 63.91 76.69C64.4 77.74 65.09 78.64 66 79.4C68.04 80.92 70.32 81.69 72.76 81.69C72.99 81.69 73.22 81.69 73.46 81.67C75.65 81.72 77.74 81.26 79.71 80.27C80.8 79.7 81.73 78.96 82.51 78.07V81.46H86.3V63.61C86.52 60.52 85.56 57.8 83.45 55.54L83.44 55.53ZM82.4 72.65C81.74 74.35 80.65 75.73 79.16 76.76L79.12 76.79C77.52 77.8 75.75 78.29 73.79 78.23C71.89 78.34 70.23 77.87 68.71 76.82C67.5 75.89 66.95 74.7 67.01 73.11C66.95 71.68 67.45 70.54 68.49 69.68C69.91 68.75 71.4 68.3 73.07 68.3C73.34 68.3 73.61 68.31 73.88 68.33H82.39V72.66L82.4 72.65Z" fill="#C1C1C1"/>
<path d="M101.25 54.42L100.53 54.85L100.56 54.89C99.71 55.49 98.98 56.2 98.37 57.03V52.97H94.58V81.47H98.46V66.61C98.29 63.82 99.09 61.32 100.81 59.2C101.64 58.3 102.64 57.62 103.76 57.16C104.89 56.7 106.08 56.51 107.28 56.57L108.6 56.67V52.77L107.96 52.75C105.56 52.68 103.3 53.24 101.23 54.42H101.25Z" fill="#C1C1C1"/>
<path d="M157.53 56.69L157.69 56.64L156.92 55.88C154.61 53.62 151.79 52.56 148.62 52.73C146.11 52.69 143.74 53.31 141.59 54.6C140.01 55.55 138.74 56.81 137.82 58.35C137.08 56.78 135.95 55.49 134.45 54.5C132.45 53.25 130.23 52.66 127.91 52.73C125.55 52.67 123.31 53.23 121.25 54.41C120.07 55.12 119.06 56.01 118.25 57.06V52.94H114.46V81.44H118.35V66.27C118.21 63.49 119.02 61.13 120.82 59.05C122.66 57.12 124.85 56.25 127.58 56.38C129.81 56.25 131.66 56.97 133.21 58.54C134.75 60.43 135.45 62.62 135.27 65.1V81.43H139.15V66.26C139.01 63.48 139.82 61.12 141.62 59.04C143.46 57.11 145.65 56.24 148.38 56.37C150.61 56.23 152.46 56.96 154.01 58.53C155.55 60.42 156.25 62.61 156.07 65.09V81.42H159.95V64.92C160.16 61.84 159.35 59.07 157.54 56.66L157.53 56.69Z" fill="#C1C1C1"/>
<path d="M186.1 55.53L184.96 54.33V54.66C182.87 53.22 180.51 52.59 177.94 52.77C175.89 52.75 173.79 53.11 171.8 53.82C169.94 54.45 168.24 55.45 166.74 56.78L166.3 57.17L168.35 60.13L168.9 59.63C170.05 58.59 171.37 57.79 172.84 57.25C174.39 56.65 176.04 56.35 177.79 56.35C179.87 56.19 181.66 56.79 183.21 58.12C184.6 59.63 185.21 61.36 185.07 63.46V64.99H176.5C172.83 64.99 170.11 65.75 168.4 67.27C167.56 68.04 166.91 68.97 166.45 70.04C165.99 71.12 165.78 72.21 165.81 73.38C165.83 74.54 166.09 75.65 166.58 76.69C167.07 77.74 167.76 78.64 168.67 79.4C170.71 80.92 172.99 81.69 175.44 81.69C175.67 81.69 175.9 81.69 176.14 81.67C178.33 81.72 180.42 81.26 182.39 80.26C183.48 79.69 184.41 78.95 185.18 78.06V81.45H188.97V63.6C189.19 60.51 188.23 57.79 186.12 55.53H186.1ZM185.06 72.65C184.4 74.35 183.31 75.73 181.82 76.76L181.77 76.79C180.18 77.79 178.39 78.28 176.45 78.22C174.56 78.33 172.89 77.86 171.37 76.81C170.16 75.88 169.61 74.69 169.67 73.1C169.61 71.67 170.11 70.53 171.15 69.67C172.57 68.74 174.06 68.28 175.73 68.28C176 68.28 176.27 68.29 176.54 68.31H185.05V72.64L185.06 72.65Z" fill="#C1C1C1"/>
<path d="M198.06 81.4401H201.99V65.3601H221.21V61.6501H201.99V47.3901H223.48V43.6801H198.06V81.4401Z" fill="#C1C1C1"/>
<path d="M246.1 54.59C243.88 53.36 241.46 52.73 238.91 52.73C236.36 52.73 233.96 53.35 231.7 54.59C229.55 55.82 227.85 57.56 226.63 59.77C225.41 62.07 224.8 64.57 224.8 67.19C224.8 69.81 225.42 72.29 226.64 74.62C227.84 76.8 229.55 78.54 231.7 79.79C233.92 81.03 236.35 81.65 238.9 81.65C241.45 81.65 243.85 81.03 246.1 79.79C248.25 78.56 249.95 76.82 251.17 74.61C252.39 72.31 253 69.82 253 67.19C253 64.56 252.38 62.09 251.16 59.76C249.96 57.57 248.25 55.84 246.09 54.59H246.1ZM247.73 72.83C246.89 74.42 245.67 75.7 244.12 76.63C242.51 77.54 240.76 78 238.91 78C237.06 78 235.3 77.54 233.71 76.63C232.15 75.7 230.96 74.46 230.1 72.84C229.2 71.06 228.75 69.17 228.75 67.2C228.75 65.23 229.2 63.32 230.09 61.57C230.93 59.97 232.15 58.69 233.7 57.78C235.31 56.87 237.06 56.41 238.92 56.41C240.78 56.41 242.53 56.87 244.12 57.78C245.68 58.71 246.86 59.95 247.73 61.57C248.62 63.35 249.08 65.24 249.08 67.21C249.08 69.18 248.63 71.09 247.74 72.84L247.73 72.83Z" fill="#C1C1C1"/>
<path d="M265.32 54.42L264.99 54.62V54.64C263.98 55.29 263.13 56.09 262.44 57.02V52.96H258.65V81.46H262.55V66.6C262.38 63.81 263.19 61.31 264.9 59.19C265.73 58.29 266.73 57.61 267.85 57.15C268.98 56.69 270.17 56.5 271.37 56.56L272.69 56.66V52.76L272.05 52.74C269.65 52.67 267.39 53.23 265.31 54.41L265.32 54.42Z" fill="#C1C1C1"/>
<path d="M284.24 57.7699C285.89 56.8399 287.66 56.3799 289.57 56.4199C291.09 56.4099 292.59 56.7199 293.99 57.3699C295.32 57.9999 296.44 58.9499 297.32 60.1999L297.71 60.7499L300.66 58.5699L300.31 58.0499C299.16 56.3299 297.63 54.9999 295.73 54.0899C293.78 53.1699 291.7 52.7399 289.56 52.7499C286.94 52.6899 284.5 53.3099 282.22 54.5699C280.04 55.7999 278.32 57.5299 277.12 59.7299C275.91 62.0399 275.29 64.5499 275.29 67.1699C275.29 69.7899 275.91 72.2799 277.13 74.6199C278.28 76.7099 279.88 78.3799 281.89 79.5999L282.22 79.8199C284.42 81.0599 286.79 81.6799 289.25 81.6799C289.34 81.6799 289.44 81.6799 289.53 81.6799C291.66 81.7099 293.77 81.2699 295.72 80.3499C297.6 79.4599 299.14 78.1299 300.29 76.3899L300.64 75.8699L297.69 73.6899L297.3 74.2399C296.43 75.4799 295.31 76.4299 293.98 77.0699C292.58 77.7199 291.1 78.0599 289.53 78.0199C287.69 78.0499 285.87 77.5999 284.22 76.6699C282.62 75.7599 281.42 74.53 280.56 72.91C279.66 71.12 279.21 69.1999 279.21 67.2199C279.21 65.2399 279.67 63.3199 280.55 61.5499C281.43 59.9199 282.63 58.6799 284.22 57.7799L284.24 57.7699Z" fill="#C1C1C1"/>
<path d="M318.94 81.64C321.02 81.64 323.05 81.24 324.99 80.44C326.83 79.67 328.4 78.5 329.65 76.97L330 76.54L327.62 73.81L327.13 74.42C326.18 75.6 325.01 76.49 323.65 77.06C322.19 77.68 320.63 77.98 319.02 77.97C317.14 78 315.28 77.58 313.58 76.69C311.99 75.87 310.72 74.67 309.79 73.12C308.94 71.68 308.45 70.12 308.32 68.47H330.78L331.4 68.45L331.49 67.08C331.54 64.47 330.95 61.98 329.74 59.69C328.62 57.54 327 55.82 324.9 54.55C322.77 53.34 320.44 52.72 317.99 52.72C315.52 52.73 313.2 53.36 311.07 54.59C308.98 55.85 307.35 57.59 306.22 59.76C305.02 62.05 304.43 64.55 304.47 67.17C304.42 69.82 305.05 72.34 306.33 74.64C307.57 76.83 309.31 78.56 311.52 79.79C313.61 80.89 315.85 81.51 318.18 81.62C318.43 81.63 318.69 81.64 318.94 81.64ZM309.84 60.89C310.66 59.46 311.8 58.34 313.22 57.54C314.7 56.73 316.31 56.34 318.01 56.35C319.66 56.3 321.25 56.71 322.71 57.53C324.17 58.34 325.34 59.48 326.2 60.93C326.98 62.24 327.45 63.65 327.61 65.15H308.42C308.6 63.65 309.08 62.22 309.85 60.9L309.84 60.89Z" fill="#C1C1C1"/>
</g>
<defs>
<clipPath id="clip0_4047_14">
<rect width="440.41" height="135.33" fill="white"/>
</clipPath>
</defs>
</svg>
