<?xml version="1.0" encoding="UTF-8"?>
<svg id="Layer_2" data-name="Layer 2" xmlns="http://www.w3.org/2000/svg" viewBox="0 0 1920 1080">
  <defs>
    <style>
      .cls-1 {
        fill: #fff;
      }
    </style>
  </defs>
  <path class="cls-1" d="M384.03,655.64c-7.65-1.23-15.43-1.96-22.94-3.76-58.6-14.06-101.03-47.93-123.03-104.36-22.58-57.95-10.84-130.04,40.62-178.43,28.83-27.11,63.01-42.54,102.32-46.2,77.48-7.22,144.34,34.65,173.26,98.99,29.68,66.02,12.15,144.38-42.85,191.57-25.43,21.82-54.65,35.4-87.78,40.56-3.94,.61-7.91,1.09-11.86,1.62h-27.74Zm130.37-166.75c-.06-29.74-10.1-56.67-29.6-79.39-35.69-41.6-96.63-52.04-144.11-24.67-46.84,27-69.35,82.65-55.09,136.2,16.64,62.46,80.48,99.55,142.55,82.83,50.49-13.61,86.35-61.41,86.24-114.96Z"/>
  <path class="cls-1" d="M1702.2,655.64c-8.73-1.45-17.55-2.47-26.16-4.43-61.73-14.06-115.66-63.7-127.48-129.62-10.99-61.29,5.96-114.19,52.51-156.45,26.78-24.31,58.71-37.98,94.73-41.84,42.96-4.6,82.81,4.28,118.38,29.08,38.97,27.16,62.72,64.35,70.18,111.35,1.51,9.5,.93,19.36,1.01,29.06,.41,49.39-20.3,89.1-56.76,121.16-24.87,21.86-54.09,34.89-86.83,40.03-3.94,.62-7.89,1.11-11.84,1.66h-27.74Zm130.33-166.81c-.44-5.68-.59-11.4-1.37-17.04-7.41-53.1-49.53-95.66-101.63-101.24-33.49-3.58-63.63,4.85-88.89,27.26-35.68,31.65-47.81,71.84-38.17,117.88,12.85,61.37,74.18,105.78,142.57,88.3,51.34-13.12,87.29-60.95,87.49-115.17Z"/>
  <path class="cls-1" d="M1394.19,655.64c-8.16-1.21-16.37-2.14-24.47-3.66-63.91-11.99-114.22-61.18-127.22-124.79-8.85-43.28-4.2-84.97,18.22-123.54,22.72-39.09,56.33-64.89,100.34-75.97,52.6-13.24,101.97-5.27,147.4,24.91,1.56,1.03,2.82,1.86,2.68,4.2-.95,15.88-1.71,31.76-2.55,47.64-.02,.45-.19,.88-.41,1.82-1.22-.92-2.15-1.6-3.05-2.32-32.51-26.34-69.47-37.97-111.32-33.82-49.88,4.94-90.03,41.86-98.78,91.44-4.88,27.68-4.06,55.21,8.14,80.95,20.47,43.18,55,65.3,103.2,65.21,37.37-.07,69.62-13.79,98.15-37.18,.92-.76,1.86-1.49,3.19-2.54,.13,1.31,.29,2.2,.29,3.09,.02,17.36-.03,34.73,.07,52.09,.01,2.24-.79,3.47-2.56,4.69-23.41,16.01-49.39,24.63-77.54,27.12-1.05,.09-2.08,.44-3.13,.67h-30.66Z"/>
  <path class="cls-1" d="M16.9,329.96c1.15-.23,2.31-.67,3.46-.67,28.22-.03,56.44-.42,84.65,.18,14.16,.3,28.52,1.23,42.37,3.97,27.31,5.38,45.23,22.53,54.31,48.56,9.14,26.18,8.22,52.27-3.11,77.67-11.01,24.68-30.72,38.13-57.08,42.24-23.18,3.61-46.57,2.65-69.91,2.79-1.79,.01-3.59,0-5.71,0v142.46c-1.25,.12-2.18,.28-3.12,.28-14.11,.02-28.22,.02-42.33-.01-1.18,0-2.37-.34-3.55-.52,0-105.64,0-211.29,0-316.93Zm52.55,43.73v88.06c10.86,0,21.43,.37,31.96-.1,10.79-.49,21.55-1.71,31.84-5.48,9.59-3.52,15.71-10.2,18.78-19.85,2.44-7.67,2.61-15.55,1.94-23.43-1.63-19.03-10.81-29.96-29.21-34.9-18.07-4.85-36.56-4.39-55.31-4.3Z"/>
  <path class="cls-1" d="M976.13,373.16h-84.6v-43.68h220.51v43.56h-84.06v274.1h-51.85V373.16Z"/>
  <path class="cls-1" d="M614.83,329.36h51.44v271.58h115.83v46.25h-167.26V329.36Z"/>
  <path class="cls-1" d="M863.54,329.58v317.6h-51.53V329.58h51.53Z"/>
  <path class="cls-1" d="M1139.58,647.14V329.48h51.38v317.66h-51.38Z"/>
</svg>