<?xml version="1.0" encoding="utf-8"?>
<!-- Generator: Adobe Illustrator 27.7.0, SVG Export Plug-In . SVG Version: 6.00 Build 0)  -->
<svg version="1.1" id="Layer_1" xmlns="http://www.w3.org/2000/svg" xmlns:xlink="http://www.w3.org/1999/xlink" x="0px" y="0px"
	 viewBox="0 0 726.5 137.6" style="enable-background:new 0 0 726.5 137.6;" xml:space="preserve">
<style type="text/css">
	.st0{fill:#FFFFFF;}
</style>
<g transform="translate(-125.69145 -33.413857)">
	<g>
		<path class="st0" d="M337.7,85.6h16.8c-0.8-13.4-9.8-27.3-33.5-27.3c-22.7,0-35.2,15.4-33.2,29.9c2,14.6,10.7,19.1,23.4,22.3
			c13.6,3.4,28.5,5,27.9,15.3c-0.5,8.9-9.6,11.6-17,11.6c-6.3,0-17.5-0.9-18.7-15h-17.2c0.2,11.9,8.3,29.5,35.6,29.5
			c26.7,0,35.9-17.5,35.9-27.3c0-10.1-4.1-20-16.1-24.1c-15.1-5.2-32.9-5.2-35.4-13c-2.9-9.1,5-14.6,14.4-14.6
			C330,72.9,336.2,77.7,337.7,85.6"/>
		<path class="st0" d="M417.9,61.1v34.5h-34.6V61.1h-17.7v87.2h17.7v-38.1h34.6v38.1h17.7V61.1"/>
		<path class="st0" d="M447.5,148.3h18V61.1h-18V148.3z"/>
		<path class="st0" d="M518,57.8c-23.6,0-42.3,17.2-42.3,47c0,24.3,15,46.9,42.3,46.9c27.3,0,42.3-22.6,42.3-46.9
			C560.3,75,541.6,57.8,518,57.8 M518,136.7c-16.7,0-24.1-16.2-24.1-31.9c0-17.1,8.3-32.1,24.1-32.1c15.8,0,24.1,15,24.1,32.1
			C542.1,120.5,534.7,136.7,518,136.7"/>
		<path class="st0" d="M691.5,57.8c-23.6,0-42.3,17.2-42.3,47c0,24.3,15,46.9,42.3,46.9c27.3,0,42.3-22.6,42.3-46.9
			C733.8,75,715.1,57.8,691.5,57.8 M691.5,136.7c-16.7,0-24.1-16.2-24.1-31.9c0-17.1,8.3-32.1,24.1-32.1c15.8,0,24.1,15,24.1,32.1
			C715.6,120.5,708.2,136.7,691.5,136.7"/>
		<path class="st0" d="M586.5,86.5v61.8h-17.6V61.1h20.2l33.6,60.8V61.1h16.9v87.2h-18.8"/>
		<path class="st0" d="M832.2,148.3h18V61.1h-18V148.3z"/>
		<path class="st0" d="M783.9,102.1v13.6h22c-2.3,12.1-10.5,21-24.4,21c-16.7,0-24.1-16.2-24.1-31.9c0-17.1,8.3-32.1,24.1-32.1
			c11.5,0,18.5,6,22.1,15.8h16.4c-3.6-20-19.5-30.7-38.5-30.7c-23.6,0-42.3,17.2-42.3,47c0,24.3,15,46.9,42.3,46.9
			c11.1,0,19-3.7,24.8-9.8l1,7.7h13.1v-47.5"/>
	</g>
	<path class="st0" d="M221.1,102.2c0-12.7,8.7-23.4,20.4-26.4c-9.3-16.8-27.2-28.2-47.7-28.2s-38.4,11.4-47.7,28.2
		c11.7,3,20.4,13.7,20.4,26.4c0,12.7-8.7,23.4-20.4,26.4c9.3,16.8,27.2,28.1,47.7,28.1s38.4-11.3,47.7-28.1
		C229.8,125.6,221.1,114.9,221.1,102.2"/>
	<path class="st0" d="M193.8,36c-36.6,0-66.2,29.6-66.2,66.2c0,36.6,29.6,66.3,66.2,66.3s66.3-29.6,66.3-66.3
		C260.1,65.6,230.4,36,193.8,36 M193.8,163c-33.5,0-60.7-27.2-60.7-60.7c0-33.5,27.2-60.8,60.7-60.8c33.6,0,60.7,27.2,60.7,60.8
		C254.6,135.8,227.4,163,193.8,163"/>
</g>
</svg>
