<?xml version="1.0" encoding="utf-8"?>
<!-- Generator: Adobe Illustrator 27.7.0, SVG Export Plug-In . SVG Version: 6.00 Build 0)  -->
<svg version="1.1" id="Layer_1" xmlns="http://www.w3.org/2000/svg" xmlns:xlink="http://www.w3.org/1999/xlink" x="0px" y="0px"
	 viewBox="0 0 1450 208.07" style="enable-background:new 0 0 1450 208.07;" xml:space="preserve">
<style type="text/css">
	.st0{fill:#FFFFFF;}
</style>
<path class="st0" d="M301.36,63.75l-25.29,68.74h49.15L301.36,63.75z M54.54,198.73c-17.81-0.71-35.26-4.27-51.64-11.04v-35.97h4.63
	c4.99,16.74,14.6,33.84,48.08,33.84c33.84,0,42.38-13.54,40.96-33.84c-1.07-20.66-15.67-32.41-48.08-48.08
	C16.08,87.97,2.9,69.81,3.97,49.51C5.04,28.85,30.33,0,70.22,0c14.96,0.36,29.92,2.85,44.52,7.12v32.77h-4.99
	c-2.14-15.67-15.67-26.71-40.96-26.71c-25.29,0-37.04,11.04-38.46,28.85c-1.07,18.16,9.62,26.71,30.27,34.9
	c45.59,21.73,62.33,34.9,63.75,63.75c1.07,29.2-22.79,59.12-69.81,59.12L54.54,198.73L54.54,198.73z M242.24,68.74
	c-3.56-14.6-9.62-20.66-32.41-20.66h-11.04V164.9c0,18.16,4.99,24.22,21.73,24.22v4.63h-69.81v-4.63c15.67,0,21.73-6.06,21.73-24.22
	V48.08h-10.68c-23.15,0-30.27,6.06-32.77,20.66h-4.63V38.46H245.8v30.27H242.24z M324.15,193.75v-4.63c8.55,0,15.67-2.5,15.67-9.62
	c-0.36-3.56-1.07-6.77-2.49-9.62l-8.55-24.22h-57.7l-7.12,20.3c-1.42,3.92-2.14,8.19-2.49,12.11c0,7.48,2.49,11.04,14.6,11.04v4.63
	h-48.08v-4.63c11.75,0,16.74-8.55,22.79-26.71l45.59-123.94h21.73l47.01,127.5c6.05,17.1,8.55,21.73,22.79,23.15v4.63H324.15z
	 M485.49,68.74c-2.49-14.6-9.62-20.66-32.41-20.66h-11.04V164.9c0,18.16,4.99,24.22,21.73,24.22v4.63h-68.74v-4.63
	c17.09,0,21.72-6.06,21.72-24.22V48.08h-10.68c-22.79,0-30.27,6.06-32.41,20.66h-4.98V38.46h121.45v30.27H485.49z M496.17,193.75
	v-4.63c17.09,0,21.72-6.06,21.72-24.22V66.25c0-18.16-6.05-24.22-21.73-24.22V37.4h112.19v29.92h-4.99
	c-2.49-14.25-9.61-20.3-32.41-20.3h-13.18c-11.04,0-14.6,6.05-14.6,19.23v39.53h26.35c4.63,0.36,8.9-1.07,12.47-3.92
	c3.21-2.85,5.34-7.12,5.7-11.4h4.99v44.52h-4.99c0-4.99-1.78-9.26-5.34-12.47c-3.21-3.21-7.84-4.98-12.82-4.63h-26.35v48.08
	c0,15.67,2.49,17.1,14.6,17.1h21.72c17.81,0,27.42-9.62,29.92-21.73h4.99v31.34L496.17,193.75z M727.32,198.73
	c-17.45-0.36-35.26-3.56-51.64-9.61v-36.33h4.63c4.98,17.09,14.6,33.83,48.43,33.83c33.48,0,42.03-13.18,40.96-33.83
	c-1.43-20.3-15.67-32.41-48.44-48.08c-32.41-15.67-44.52-34.9-44.52-55.2C676.74,28.85,703.45,0,742.99,0
	c15.31,0.36,30.27,2.85,44.52,7.12v32.77h-4.63c-2.49-15.67-15.67-26.71-40.96-26.71s-37.4,11.04-38.46,28.85
	c-1.43,18.16,9.61,26.71,29.92,34.9c45.94,21.73,62.68,34.9,63.75,63.75c1.43,29.2-23.86,59.12-69.8,59.12V198.73z M916.43,68.74
	c-3.56-14.6-9.62-20.66-32.41-20.66h-11.04V164.9c0,18.16,4.98,24.22,21.73,24.22v4.63h-70.88v-4.63c16.74,0,21.37-6.06,21.37-24.22
	V48.08h-10.68c-22.8,0-29.92,6.06-32.41,20.66h-4.99V38.46h122.87v30.27H916.43z M1024.7,193.75l-47.01-81.91
	c21.72-1.07,40.96-10.69,40.96-32.41c0-21.73-14.24-31.34-33.48-31.34c-19.59,0-17.1,2.49-17.1,15.67V164.9
	c0,18.16,4.99,24.22,21.72,24.22v4.63h-69.8v-4.63c15.67,0,21.73-6.06,21.73-24.22V66.25c0-12.11,0-22.79-16.74-22.79v-4.99h58.77
	c30.27,0,60.19,7.12,60.19,38.47c-1.07,20.66-16.74,37.4-37.4,39.89l31.34,50.57c8.55,14.25,12.11,21.73,24.22,21.73
	c12.11,0,18.16-7.48,18.16-24.22V66.25c0-18.16-4.98-24.22-21.73-24.22V37.4h111.83v29.92h-4.63c-3.92-14.25-9.62-20.3-32.77-20.3
	h-13.18c-12.11,0-14.25,6.05-14.25,19.23v39.53h26.36c4.27,0.36,8.9-1.07,12.11-3.92c3.56-2.85,5.7-7.12,6.05-11.4h3.56v44.52h-3.56
	c0-4.99-2.14-9.26-5.34-12.47c-3.56-3.21-8.19-4.98-12.82-4.63h-26.36v48.08c0,15.67,2.14,17.1,14.25,17.1h21.72
	c14.25,1.42,27.07-7.84,29.92-21.73h4.99v31.34L1024.7,193.75z M1184.97,193.75v-4.63c15.67,0,21.37-6.06,21.37-24.22V66.25
	c0-18.16-4.63-24.22-21.37-24.22V37.4h110.76v29.92h-4.98c-3.56-14.25-9.62-20.3-32.41-20.3h-13.18c-12.11,0-14.6,6.05-14.6,19.23
	v39.53h26.35c4.63,0.36,8.9-1.07,12.47-3.92c3.2-2.85,5.34-7.12,5.7-11.4h4.99v44.52h-4.99c0-4.99-1.78-9.26-5.34-12.47
	c-3.56-3.21-7.83-4.98-12.82-4.63h-26.35v48.08c0,15.67,1.07,17.1,14.6,17.1h21.37c18.16,0,27.78-9.62,30.27-21.73h4.63v31.34
	L1184.97,193.75z M1424.31,67.31c-3.56-14.25-9.62-20.3-32.41-20.3h-10.68v116.82c0,17.81,4.63,23.86,21.37,23.86v4.98h-68.38v-4.98
	c15.67,0,21.73-6.06,21.73-23.86V48.08h-11.04c-22.79,0-28.85,6.06-32.41,20.66h-4.99V38.46h121.81v30.27L1424.31,67.31z
	 M1430.36,178.08c2.49,0,6.06,0,6.06-3.56c0-3.56-2.49-3.56-4.63-3.56h-3.92v6.06h3.92L1430.36,178.08z M1426.8,187.69h-2.49v-19.23
	h7.48c3.56,0,5.7,1.42,5.7,4.98c0,1.07-0.35,2.49-1.43,3.2c-0.71,1.07-2.14,1.42-3.21,1.42l6.06,8.55h-2.49l-4.63-8.55h-3.92v8.55
	L1426.8,187.69z M1417.18,178.08c0,5.34,3.2,10.33,8.19,12.46c4.98,1.78,10.68,0.71,14.24-2.85c3.92-3.92,4.98-9.62,2.85-14.6
	c-1.78-4.99-6.77-8.19-12.11-8.19C1423.23,164.9,1417.18,170.95,1417.18,178.08z M1447.1,178.08c0,8.9-6.76,15.67-15.31,15.67
	c-8.9,0-15.67-6.77-15.67-15.67c0-8.55,6.77-15.67,15.67-15.67c3.92,0,7.84,1.78,11.04,4.63
	C1445.67,169.88,1447.1,174.16,1447.1,178.08z"/>
</svg>
