<?xml version="1.0" encoding="utf-8"?>
<!-- Generator: Adobe Illustrator 27.7.0, SVG Export Plug-In . SVG Version: 6.00 Build 0)  -->
<svg version="1.1" id="Layer_1" xmlns="http://www.w3.org/2000/svg" xmlns:xlink="http://www.w3.org/1999/xlink" x="0px" y="0px"
	 viewBox="0 0 349.28 127.23" style="enable-background:new 0 0 349.28 127.23;" xml:space="preserve">
<style type="text/css">
	.st0{fill:#FFFFFF;}
</style>
<g>
	<path class="st0" d="M348.8,70.93c0.62,2.39,0.68,4.65-0.13,7.24c-112.44,0-224.86,0-337.17,0c-0.94-2.64-0.98-4.32-0.26-7.06
		C13.4,70.17,345.06,69.91,348.8,70.93z"/>
	<path class="st0" d="M172.87,36.92c2.17,4.18,4.39,8.29,6.44,12.48c1.05,2.15,3.12,4.32,0.55,7.14c-3.06,0.63-6.33,0.32-9.76,0.16
		c-3.89-6.02-6.28-12.79-10.16-18.89c-2.89-0.53-5.74-0.36-9.08-0.07c0,6.38,0,12.47,0,18.7c-4.21,0.68-7.91,0.52-11.77,0.13
		c0-18.76,0-37.14,0-55.36c1.17-0.92,2.28-0.71,3.33-0.71c8-0.02,16.01-0.04,24.01,0c8.77,0.05,13.55,4.86,13.61,13.63
		c0.02,3.12-0.02,6.25,0.01,9.37c0.04,5.22-1.62,9.57-6.29,12.39C173.52,36.01,173.38,36.3,172.87,36.92z M167.46,11.94
		c-5.65-0.35-10.9-0.3-16.47-0.08c-0.11,4.96-0.3,9.46,0.13,14.42c5.48,0,10.73,0.28,16.19-0.23
		C167.97,21.28,167.78,16.87,167.46,11.94z"/>
	<path class="st0" d="M100.3,33.68c-7.08,0-13.46,0-20.08,0c-0.67,7.68,0.17,15.17-0.51,22.79c-3.96,0.62-7.69,0.49-11.31,0.14
		C67.38,54.04,67.24,4,68.24,0.64c3.62-0.31,7.35-0.19,11.63-0.01c0,7.19,0,14.14,0,21.35c6.99,0,13.44,0,20.33,0
		c0-7.11,0-13.98,0-21.11c4.04-0.68,7.67-0.41,11.62-0.22c0,18.69,0,37.14,0,55.82c-3.78,0.69-7.41,0.36-11.53,0.2
		C100.3,48.88,100.3,41.44,100.3,33.68z"/>
	<path class="st0" d="M346.57,22.17c0.47,3.98,0.46,7.24,0.01,11.07c-7.77,0-15.4,0-23.21,0c-0.83,4.28-0.46,8.01-0.32,12.24
		c8.61,0,17.04,0,25.67,0c0.78,3.89,0.66,7.3,0.13,11.04c-12.76,0-25.34,0-38.11,0c0-18.7,0-37.08,0-55.75c12.73,0,25.25,0,38.07,0
		c0.7,3.46,0.57,6.87,0.02,10.88c-8.55,0-16.96,0-25.5,0c-0.68,3.72-0.52,6.86-0.17,10.52C330.96,22.17,338.6,22.17,346.57,22.17z"
		/>
	<path class="st0" d="M286.93,0.54c2.1,1.51,2.08,3.03,1.53,4.77c-4.71,14.85-8.92,29.85-13.24,44.82
		c-0.62,2.14-1.45,4.21-2.25,6.48c-6.11,0-12.1,0-18.14,0c-2.32-4.38-3.06-9.14-4.43-13.68c-3.64-12.02-7.22-24.06-10.79-36.1
		c-0.59-2.01-1.65-4.12,0.75-6.18c3.09-0.31,6.46-0.22,10.23-0.03c4.24,14.9,8.46,29.74,12.68,44.57c0.3,0.02,0.59,0.04,0.89,0.05
		c4.74-14.69,8.27-29.75,12.95-44.57C280.58,0.29,283.86,0.51,286.93,0.54z"/>
	<path class="st0" d="M17.21,11.67c-3.41-0.68-6.14-0.28-8.84-0.41c-2.6-0.13-5.23,0.36-8.01-0.45C-0.25,7.42,0.1,4.07,0.14,0.18
		c15.29-0.32,30.29-0.1,45.46-0.15c0.63,3.89,0.35,7.23,0.24,10.83c-5.59,0.96-11.05-0.05-16.8,0.69c0,14.86,0,29.52,0,44.56
		c-4.03,0.52-7.66,0.32-11.83,0.16C17.21,41.33,17.21,26.6,17.21,11.67z"/>
	<path class="st0" d="M147.72,109.32c0-3.02-0.04-6.04,0.01-9.06c0.08-5.04,2.6-7.98,7.52-8.25c4.56-0.25,9.16-0.24,13.73,0.01
		c4.47,0.24,6.9,2.41,7.28,6.89c0.6,7.08,0.6,14.22-0.01,21.3c-0.36,4.22-2.31,5.91-6.62,6.51c-5.03,0.7-10.11,0.71-15.14-0.01
		c-4.51-0.64-6.61-3.12-6.75-7.73C147.65,115.75,147.73,112.54,147.72,109.32C147.73,109.32,147.72,109.32,147.72,109.32z
		 M168.36,119.76c0-7.09,0-13.69,0-20.56c-4.4-0.12-8.41-0.35-12.58,0.12c0,6.93,0,13.54,0,20.38
		C160.09,120.18,164.1,120.13,168.36,119.76z"/>
	<path class="st0" d="M285.39,115.23c-1.68-0.3-3.12-0.44-4.8,0.14c-0.85,3.6,0.19,7.44-0.64,11.22c-2.36,0.73-4.61,0.75-7.16-0.08
		c0-11.35,0-22.67,0-33.81c0.66-0.78,1.36-0.79,2.03-0.79c5.07-0.01,10.14-0.11,15.2,0.03c5.43,0.15,8.13,3.02,8.29,8.5
		c0.04,1.27-0.03,2.54,0.02,3.8c0.17,4.06-0.31,7.84-4.45,10.13c1.43,3.83,3.92,6.95,5.09,10.66c-1.29,2.31-2.81,2.66-7.2,1.56
		C289.3,123.16,288.33,118.7,285.39,115.23z M290.33,107.54c0.28-2.92,0.56-5.46-0.22-8.19c-3.28-0.39-6.38-0.51-9.66,0.08
		c-0.17,2.82-0.46,5.38,0.22,8.12C283.87,107.92,286.91,107.91,290.33,107.54z"/>
	<path class="st0" d="M216.65,56.55c-3.88,0.42-7.5,0.56-11.34-0.09c0-18.58,0-36.94,0-55.69c3.75-0.54,7.37-0.29,11.34-0.16
		C216.65,19.27,216.65,37.71,216.65,56.55z"/>
	<path class="st0" d="M130.62,126.55c-2.36,0.89-4.53,0.58-6.93,0.22c-1.19-4.57,0.1-9.2-0.89-14.03c-3.77-0.39-7.49-0.2-11.5-0.08
		c-0.65,4.76,0.06,9.34-0.47,13.9c-2.49,0.76-4.73,0.79-7.28-0.05c0-11.35,0-22.67,0-34.08c2.41-0.94,4.66-0.51,7.09-0.27
		c0.89,4.3-0.08,8.52,0.68,12.93c3.79,0.48,7.51,0.3,11.43,0.11c1.09-4.35-0.22-8.7,0.83-12.85c2.36-0.76,4.54-0.47,7.03-0.18
		C130.62,103.65,130.62,114.98,130.62,126.55z"/>
	<path class="st0" d="M237.21,92.1c3.49-0.38,7.06-0.21,10.98-0.09c3.82,10.97,6.96,22.08,10.41,33.19
		c-1.82,2.86-4.41,1.75-6.61,1.7c-1.9-1.86-1.35-4.53-3.08-6.48c-4.08-0.56-8.31-0.29-12.52-0.17c-1.34,1.98-1.35,4.26-2.44,6.3
		c-2.17,0.93-4.37,0.74-6.25,0.01c-1.02-1.22-0.82-2.17-0.53-3.12c3.11-10.05,6.21-20.1,9.34-30.15
		C236.62,92.94,236.89,92.63,237.21,92.1z M247.06,112.8c-1.45-4.62-2.77-8.85-4.1-13.08c-2.22,4.16-3.44,8.36-4.29,12.86
		C241.47,113.22,243.95,112.99,247.06,112.8z"/>
	<path class="st0" d="M30.66,99.37c-0.62,1.9-0.67,3.32-0.01,5c2.8,0.96,5.8,1.7,8.86,2.19c5.55,0.9,7.59,3.2,7.68,8.8
		c0.01,0.68,0.01,1.36,0,2.05c-0.04,6.98-2.46,9.47-9.51,9.68c-2.63,0.08-5.27-0.12-7.89,0.06c-2.87,0.19-5.13-0.77-7-2.96
		c-0.47-1.18-0.58-2.39,0.25-3.92c5.08-0.71,10.44,0.22,15.66-0.5c1.03-1.86,0.71-3.58,0.47-5.33c-1.5-1.34-3.47-1.21-5.2-1.75
		c-0.55-0.17-1.16-0.15-1.74-0.23c-9.8-1.35-10.44-5.95-9.6-13.94c0.4-3.77,3.28-6.21,7.49-6.49c3.78-0.26,7.61-0.24,11.39-0.04
		c3.52,0.19,5.36,3.1,4.36,6.82C40.94,99.56,35.77,98.59,30.66,99.37z"/>
	<path class="st0" d="M313.85,119.93c5.13,0,10.18,0,15.11,0c1.32-1.97,0.92-3.77,0.61-5.66c-1.93-1.11-4.05-1.42-6.16-1.69
		c-8.81-1.13-10.9-3.58-10.52-12.41c0.23-5.3,2.92-8.05,8.26-8.24c3.41-0.12,6.83-0.11,10.25,0c3.81,0.12,5.57,2.74,4.51,6.84
		c-4.77,0.82-9.77-0.2-14.54,0.56c-1.11,1.64-0.85,3.14-0.39,4.94c2.69,1.08,5.63,1.74,8.58,2.23c5.96,0.98,8.05,3.34,8.09,9.42
		c0.05,8.73-2.35,11.15-11.06,11.17c-2.83,0.01-5.67,0.12-8.49-0.06C314.03,126.77,312.08,123.71,313.85,119.93z"/>
	<path class="st0" d="M70.31,99.36c0,7.01,0,13.56,0,20.4c5.87,0.62,11.51-0.07,16.91,0.4c1.14,1.33,0.87,2.57,0.58,3.87
		c-1.78,2.07-3.91,3.27-6.83,3.11c-3.21-0.18-6.43,0.05-9.65-0.08c-6.26-0.26-8.99-3.09-9.05-9.36c-0.06-5.46-0.06-10.92,0-16.37
		c0.07-6.71,2.78-9.37,9.48-9.43c3.12-0.03,6.24,0.11,9.35-0.04c2.78-0.14,4.94,0.77,6.66,3.03c0.4,1.16,0.49,2.37-0.28,3.87
		C82,99.6,76.25,98.6,70.31,99.36z"/>
	<path class="st0" d="M192.89,92.27c2.9-0.48,5-0.58,7.57,0.08c0,8.96,0,17.98,0,27.35c5.12,0.72,9.89-0.03,14.56,0.5
		c1.05,2.12,0.77,4.1,0.25,6.56c-7.19,0.69-14.41,0.25-22.31,0.29C192.8,115.23,192.9,103.82,192.89,92.27z"/>
</g>
</svg>
