<?xml version="1.0" encoding="UTF-8"?>
<svg id="Layer_1" xmlns="http://www.w3.org/2000/svg" width="3.268in" height=".764in" version="1.1" viewBox="0 0 235.3 55">
  <!-- Generator: Adobe Illustrator 29.2.1, SVG Export Plug-In . SVG Version: 2.1.0 Build 116)  -->
  <defs>
    <style>
      .st0 {
        fill: #008575;
      }

      .st1 {
        fill: #363636;
      }
    </style>
  </defs>
  <path class="st1" d="M59.7,39v2.6c-1.1.1-2.1.2-2.9.2-3.9,0-5.9-2.1-5.9-6.3v-12.7h-3.6v-2.5h3.7l.1-5.3,2.9-.3v5.5h7.2v2.5h-7.2v13.2c0,2.2,1.1,3.2,3.2,3.2.8.1,1.6,0,2.5-.1Z"/>
  <path class="st1" d="M79.1,41.2h-3.1v-12.7c0-1.5-.1-2.6-.3-3.4-.2-.8-.6-1.4-1.3-1.9-.7-.5-1.5-.8-2.3-.8-1.6,0-3,.7-4.1,2.1s-1.6,3.2-1.6,5.5v11.3h-3.1V12.9h3.1v11.2c1.4-3,3.5-4.5,6.1-4.5,1.2,0,2.3.2,3.2.7.9.5,1.6,1.1,2.1,1.9s.8,1.6,1,2.3c.2.8.3,2.1.3,3.9,0,0,0,12.8,0,12.8Z"/>
  <path class="st1" d="M85.9,41.2h-3.1v-21h2.8v4.9c1-2.3,1.9-3.8,2.9-4.5s2-1,3-1c.3,0,.7,0,1.2.1v3.1h-.6c-1.7,0-3.2.7-4.3,2-1.1,1.3-1.8,3.1-1.9,5.3v11.1Z"/>
  <path class="st1" d="M98.8,14.2v3.6h-3.4v-3.6h3.4ZM98.7,20.2v20.9h-3.1v-20.9h3.1Z"/>
  <path class="st1" d="M128.8,22.572v-2.564h-6.9v-5.308l-2.9.3-.2,5.109-10-.009v-.8c0-1.7.3-2.9,1-3.5.6-.6,1.6-.9,3-.9.6,0,1.2.1,1.9.3v-2.6c-1.1-.2-2.1-.3-2.9-.3-1.7,0-3.2.5-4.4,1.5-1.2,1-1.9,3.1-1.9,6.5h-4.3v2.5h4.3v18.3h3.1v-18.4l10.2-.028v12.828c0,4.2,2,6.3,5.9,6.3.8,0,1.8-.1,2.9-.2v-2.6c-.9.1-1.7.2-2.3.1-2.2,0-3.3-1-3.3-3.2v-13.328h6.8Z"/>
  <path class="st1" d="M132.8,41.2h-2.1V12.9h4.6v10.2c.9-1.6,1.7-2.6,2.6-3.1.9-.5,1.9-.8,3.1-.8,2.2,0,4.1,1,5.5,2.9,1.5,1.9,2.2,4.7,2.2,8.1,0,3.1-.7,5.8-2.2,8-1.4,2.2-3.5,3.3-6.2,3.3s-4.8-1.3-6.3-3.9l-1.2,3.6ZM135.3,32.2c0,1.9.4,3.2,1.2,4.1.8.9,1.8,1.3,3.1,1.3,1.2,0,2.2-.5,3-1.5s1.2-3,1.3-6c0-2.2-.4-3.9-1.1-5-.7-1.2-1.8-1.8-3.1-1.8-1.2,0-2.3.5-3.1,1.5s-1.2,2.4-1.2,4.3l-.1,3.1Z"/>
  <path class="st1" d="M160.1,41.6c-3,0-5.3-1.1-6.9-3.3-1.6-2.2-2.4-4.8-2.4-7.7,0-3.1.9-5.7,2.6-7.7,1.7-2.1,4.1-3.1,6.9-3.1,2.7,0,5,1,6.7,3s2.6,4.6,2.6,7.8c0,3.3-.9,6-2.7,8-1.7,2-4,3-6.8,3ZM160.2,37.7c3.1,0,4.6-2.4,4.6-7.1,0-2.2-.4-3.8-1.1-5.1-.8-1.2-1.9-1.9-3.4-1.9-1.6,0-2.7.6-3.5,1.9s-1.1,3-1.1,5.1c0,2.3.4,4,1.2,5.2.8,1.3,2,1.9,3.3,1.9Z"/>
  <path class="st1" d="M181.1,41.6c-3,0-5.3-1.1-6.9-3.3-1.6-2.2-2.4-4.8-2.4-7.7,0-3.1.9-5.7,2.6-7.7,1.7-2.1,4.1-3.1,6.9-3.1,2.7,0,4.9,1,6.7,3s2.6,4.6,2.6,7.8c0,3.3-.9,6-2.7,8s-4,3-6.8,3ZM181.3,37.7c3.1,0,4.6-2.4,4.6-7.1,0-2.2-.4-3.8-1.1-5.1-.7-1.2-1.9-1.9-3.4-1.9-1.6,0-2.7.6-3.5,1.9s-1.1,3-1.1,5.1c0,2.3.4,4,1.2,5.2.8,1.3,1.9,1.9,3.3,1.9Z"/>
  <path class="st1" d="M211.8,41.2h-4.8l-5.2-10.7-4.5,5.2v5.5h-4.3V12.9h4.4v17.5c.4-.5.7-.9.9-1.2l8-9h4.9l-6.1,6.9,6.7,14.1Z"/>
  <path class="st1" d="M211.7,36.4l4.3-.8c.7,1.7,2.1,2.5,4.3,2.5,2.8,0,4.2-.8,4.2-2.6,0-.6-.2-1-.7-1.4-.4-.4-1-.6-1.6-.7l-3.7-.7c-4.1-.8-6.1-2.9-6.1-6.2,0-1.8.7-3.4,1.9-4.7,1.3-1.3,3.2-1.9,5.8-1.9,4.3,0,6.9,1.6,7.8,4.9l-4.1.8c-.4-1.6-1.6-2.4-3.7-2.4-2.4,0-3.7.8-3.7,2.4,0,1.1,1,1.8,3,2.3l4.4.9c3.4.7,5.1,2.7,5.1,6,0,2.3-.9,4-2.6,5.2-1.7,1.1-3.8,1.7-6.2,1.7-2.1,0-3.9-.4-5.5-1.3-1.4-1-2.4-2.3-2.9-4Z"/>
  <path class="st0" d="M12.8,17.3l2-12c.1-.4-.2-.8-.6-.9l-7.5-1.3s-.1,0-.1.1l-2.1,12.4,8.3,1.7Z"/>
  <path class="st0" d="M4.3,17.3L0,42.5s0,.1.1.1l7.5,1.4c.4,0,.7-.3.8-.7l4.2-24.6-8.3-1.4Z"/>
  <path class="st0" d="M39.2,42.4l-3.4-29.9-6.4.8.6,4.8,2.9-.3.3,2.2-2.9.3,2.7,23.6,5.7-.7c.2,0,.5-.4.5-.8Z"/>
  <path class="st0" d="M14.7,33.7l11.9.2v-1.6h-11.9v1.4Z"/>
  <path class="st0" d="M26.6,36.8v-1.6h-11.9v1.5l11.9.1Z"/>
  <path class="st0" d="M26.6,43.9v-5.5l-11.9-.4v5.9h11.9Z"/>
  <path class="st0" d="M26.6,0v31h-11.9l.1-30.7,11.8-.3Z"/>
  <path class="st1" d="M234.398,22.498c0,.711-.253,1.321-.759,1.83-.506.51-1.113.765-1.821.765-.713,0-1.324-.255-1.832-.765s-.762-1.121-.762-1.834.253-1.323.761-1.832c.507-.508,1.121-.762,1.841-.762.708,0,1.314.254,1.818.762.504.509.755,1.121.755,1.836ZM233.935,22.495c0-.596-.207-1.108-.622-1.536-.415-.428-.912-.642-1.491-.642-.591,0-1.095.213-1.511.64s-.624.94-.624,1.538c0,.604.209,1.118.626,1.544.417.426.917.639,1.502.639.579,0,1.077-.213,1.494-.639.417-.426.626-.94.626-1.544ZM233.113,23.991h-.671l-.486-1.208h-.715v1.208h-.639v-2.988h1.386c.38,0,.662.083.848.248.186.165.279.378.279.639,0,.372-.185.635-.554.788l.551,1.313ZM231.242,22.309h.656c.372,0,.559-.143.559-.427,0-.272-.171-.408-.511-.408h-.704v.836Z"/>
  <g>
    <path class="st1" d="M106.216,52.505c0,.049-.016.091-.049.127-.032.037-.077.055-.133.055h-1.475c-.065,0-.115-.014-.151-.042-.037-.029-.067-.079-.091-.151l-1.39-3.53c-.024-.057-.061-.097-.109-.121-.049-.024-.121-.036-.218-.036h-1.451c-.097,0-.145.045-.145.133v3.494c0,.089-.023.153-.067.193-.045.041-.115.061-.212.061h-1.282c-.089,0-.149-.018-.181-.055-.032-.036-.048-.09-.048-.163v-8.548c0-.137.06-.205.181-.205h3.639c1.039,0,1.845.21,2.418.629s.859,1.015.859,1.789c0,.604-.161,1.108-.484,1.511-.322.403-.725.689-1.209.859-.065.024-.081.077-.049.157l1.62,3.735c.016.024.024.061.024.109ZM104.462,46.266c0-.435-.135-.765-.405-.991-.27-.226-.647-.339-1.13-.339h-1.705c-.081,0-.137.012-.169.036-.032.025-.048.069-.048.133v2.285c0,.065.012.111.036.139.024.029.064.043.121.043h1.62c1.12,0,1.681-.436,1.681-1.306Z"/>
    <path class="st1" d="M108.858,50.867c.153.262.365.468.635.616.27.149.566.224.889.224.331,0,.631-.07.901-.212.27-.141.526-.36.768-.659.04-.04.073-.06.097-.06s.061.012.109.036l.738.326c.056.025.084.061.084.109,0,.024-.016.06-.048.109-.363.524-.764.897-1.203,1.118-.44.222-.981.332-1.626.332-.613,0-1.163-.137-1.65-.411-.488-.274-.869-.657-1.142-1.148-.274-.492-.411-1.052-.411-1.681,0-.677.141-1.274.424-1.789.282-.516.665-.915,1.148-1.197s1.019-.424,1.608-.424c.604,0,1.139.133,1.602.399.464.266.822.651,1.076,1.155.254.504.381,1.102.381,1.795v.049c0,.08-.012.137-.036.169-.025.033-.077.053-.157.061h-4.28c-.089,0-.133.065-.133.193,0,.33.076.627.23.889ZM111.494,48.89c.08,0,.135-.01.163-.03s.043-.067.043-.139c0-.258-.057-.508-.169-.749-.113-.242-.28-.44-.502-.592-.222-.153-.486-.23-.792-.23-.476,0-.861.167-1.155.502-.294.335-.437.748-.429,1.239h2.841Z"/>
    <path class="st1" d="M115.871,52.807c-.612,0-1.098-.163-1.457-.49-.359-.326-.538-.751-.538-1.276,0-.669.298-1.2.895-1.596.596-.394,1.43-.612,2.503-.653l.604-.036c.129-.017.193-.077.193-.181v-.278c0-.355-.107-.631-.32-.828-.214-.197-.506-.296-.877-.296-.612,0-1.084.266-1.414.798-.025.032-.047.058-.067.078-.02.021-.047.031-.079.031-.04,0-.073-.004-.097-.012l-1.015-.254c-.065-.016-.097-.052-.097-.109,0-.04.016-.093.049-.157.21-.451.554-.796,1.033-1.033s1.066-.357,1.759-.357c.902,0,1.565.177,1.989.532.423.355.635.854.635,1.499v4.256c0,.089-.014.151-.042.187-.029.037-.083.055-.163.055h-1.027c-.073,0-.125-.024-.157-.073-.032-.048-.057-.121-.073-.218l-.012-.363c-.008-.072-.036-.109-.085-.109-.024,0-.077.033-.157.097-.564.524-1.225.786-1.983.786ZM118.029,49.603c-.029-.032-.075-.048-.139-.048l-.496.036c-.564.041-1.033.167-1.408.381s-.562.506-.562.877c0,.274.099.492.296.653.197.161.462.242.792.242.419,0,.786-.129,1.1-.387.306-.242.46-.488.46-.738v-.858c0-.073-.014-.125-.042-.157Z"/>
    <path class="st1" d="M125.2,52.469v-.399c0-.073-.02-.109-.06-.109-.024,0-.057.02-.097.06-.234.226-.494.413-.78.562s-.635.224-1.046.224c-.5,0-.943-.123-1.33-.368-.387-.246-.691-.612-.913-1.101-.222-.487-.332-1.086-.332-1.795,0-.661.119-1.249.356-1.765s.562-.915.973-1.197.871-.424,1.378-.424c.338,0,.635.055.889.163.254.109.498.268.731.478.04.04.085.06.133.06.049,0,.073-.052.073-.157v-2.793c0-.129.056-.193.169-.193h1.221c.121,0,.181.069.181.205v8.535c0,.081-.018.139-.055.175-.036.037-.103.055-.199.055h-1.064c-.153,0-.23-.073-.23-.218ZM124.541,47.36c-.205-.109-.438-.163-.695-.163-.484,0-.873.195-1.167.586s-.441.969-.441,1.735c0,.774.143,1.346.429,1.717.286.371.667.556,1.142.556.25,0,.48-.058.689-.175.21-.117.375-.268.496-.453.121-.185.181-.375.181-.568v-2.732c-.218-.226-.429-.393-.635-.502Z"/>
    <path class="st1" d="M130.725,52.638c-.032-.033-.048-.089-.048-.169v-5.984c0-.137.056-.205.169-.205h1.197c.113,0,.169.06.169.181v.629c0,.048.012.077.036.085.025.008.057-.004.097-.037.363-.33.705-.578,1.028-.743.322-.165.665-.248,1.027-.248.435,0,.802.103,1.1.308s.504.474.616.804c.016.025.037.037.061.037.032,0,.068-.02.109-.061.717-.717,1.43-1.076,2.14-1.076.572,0,1.023.169,1.354.508.33.339.496.806.496,1.403v4.364c0,.169-.085.254-.254.254h-1.113c-.072,0-.125-.016-.157-.048-.033-.033-.049-.089-.049-.169v-4.159c0-.314-.081-.558-.242-.731-.161-.173-.395-.26-.701-.26-.25,0-.492.067-.725.199-.234.133-.444.292-.629.478-.097.105-.145.222-.145.35v4.086c0,.169-.085.254-.254.254h-1.112c-.137,0-.205-.073-.205-.218v-4.159c0-.314-.079-.558-.236-.731-.157-.173-.393-.26-.707-.26-.266,0-.514.065-.744.193s-.482.338-.756.629v4.304c0,.089-.02.151-.06.187-.041.037-.113.055-.218.055h-1.076c-.081,0-.137-.016-.169-.048Z"/>
    <path class="st1" d="M142.845,52.39c-.484-.278-.859-.667-1.125-1.167-.266-.5-.399-1.068-.399-1.705,0-.653.137-1.235.411-1.747.274-.512.653-.909,1.136-1.191s1.031-.424,1.644-.424c.621,0,1.173.143,1.656.43.484.286.859.683,1.124,1.191.266.508.399,1.084.399,1.729,0,.637-.135,1.205-.405,1.705s-.647.891-1.13,1.173-1.036.423-1.656.423-1.172-.139-1.656-.417ZM145.692,51.151c.27-.387.405-.943.405-1.669,0-.733-.137-1.298-.411-1.693s-.665-.592-1.173-.592-.901.197-1.178.592c-.278.395-.418.959-.418,1.693,0,.725.139,1.282.418,1.669.278.386.671.58,1.178.58.516,0,.909-.193,1.179-.58Z"/>
    <path class="st1" d="M148.788,52.469v-5.984c0-.137.056-.205.169-.205h1.173c.113,0,.169.06.169.181v.738c0,.065.02.097.06.097.025,0,.057-.02.097-.061.266-.338.56-.602.883-.792.322-.189.637-.284.943-.284.29,0,.435.065.435.193v1.161c0,.113-.053.161-.157.145-.226-.056-.476-.084-.75-.084-.21,0-.429.056-.659.169-.23.113-.419.26-.568.442-.149.181-.224.368-.224.562v3.7c0,.161-.093.242-.278.242h-1.076c-.145,0-.218-.073-.218-.218Z"/>
    <path class="st1" d="M155.072,50.867c.153.262.365.468.635.616.27.149.566.224.889.224.331,0,.631-.07.901-.212.27-.141.526-.36.768-.659.04-.04.073-.06.097-.06s.061.012.109.036l.738.326c.056.025.084.061.084.109,0,.024-.016.06-.048.109-.363.524-.764.897-1.203,1.118-.44.222-.981.332-1.626.332-.613,0-1.163-.137-1.65-.411-.488-.274-.869-.657-1.142-1.148-.274-.492-.411-1.052-.411-1.681,0-.677.141-1.274.424-1.789.282-.516.665-.915,1.148-1.197s1.019-.424,1.608-.424c.604,0,1.139.133,1.602.399.464.266.822.651,1.076,1.155.254.504.381,1.102.381,1.795v.049c0,.08-.012.137-.036.169-.025.033-.077.053-.157.061h-4.28c-.089,0-.133.065-.133.193,0,.33.076.627.23.889ZM157.708,48.89c.08,0,.135-.01.163-.03s.043-.067.043-.139c0-.258-.057-.508-.169-.749-.113-.242-.28-.44-.502-.592-.222-.153-.486-.23-.792-.23-.476,0-.861.167-1.155.502-.294.335-.437.748-.429,1.239h2.841Z"/>
    <path class="st1" d="M162.127,52.432c0,.089-.024.153-.073.193-.048.041-.125.061-.23.061h-1.221c-.089,0-.151-.018-.187-.055-.036-.036-.055-.09-.055-.163v-1.366c0-.137.057-.205.169-.205h1.426c.113,0,.169.061.169.181v1.354Z"/>
    <path class="st1" d="M170.348,45.088c-.29-.141-.661-.212-1.112-.212-.532,0-.941.103-1.227.308s-.429.486-.429.84c0,.492.358.851,1.076,1.076l1.861.556c1.394.42,2.092,1.245,2.092,2.478,0,.54-.141,1.012-.423,1.415s-.683.713-1.203.931-1.135.326-1.843.326c-.79,0-1.496-.135-2.116-.405-.62-.27-1.092-.651-1.414-1.142-.032-.081-.048-.129-.048-.145,0-.064.04-.125.121-.181l.761-.532c.089-.048.157-.073.206-.073.064,0,.116.029.157.085.314.411.631.701.949.871.318.169.743.254,1.275.254.58,0,1.036-.097,1.366-.29.33-.193.496-.488.496-.883,0-.258-.083-.476-.248-.653-.165-.177-.458-.334-.877-.472l-1.825-.556c-.669-.201-1.181-.522-1.536-.961-.355-.439-.532-.933-.532-1.481,0-.516.137-.973.411-1.372.274-.399.663-.711,1.167-.937.503-.226,1.086-.338,1.747-.338.637,0,1.223.111,1.759.332.536.222.961.526,1.276.913.048.065.072.117.072.157,0,.04-.024.081-.072.121l-.859.641c-.032.025-.065.037-.097.037-.041,0-.097-.041-.169-.121-.218-.25-.471-.446-.761-.586Z"/>
    <path class="st1" d="M175.332,46.496v.411c0,.065.02.097.061.097.024,0,.056-.02.097-.061.258-.242.518-.433.78-.574.262-.141.606-.212,1.033-.212.492,0,.929.121,1.312.363s.683.606.901,1.094c.218.488.327,1.086.327,1.795,0,1.104-.242,1.947-.726,2.527-.483.58-1.124.871-1.922.871-.645,0-1.193-.205-1.644-.616-.081-.065-.133-.097-.157-.097-.041,0-.061.057-.061.169v2.224c0,.129-.056.193-.169.193h-1.233c-.113,0-.169-.065-.169-.193v-7.967c0-.089.018-.151.054-.187.037-.036.099-.054.187-.054h1.1c.153,0,.23.072.23.218ZM176.65,51.779c.5,0,.89-.195,1.172-.586s.424-.989.424-1.795c0-.774-.139-1.336-.417-1.687-.278-.351-.655-.526-1.131-.526-.258,0-.492.054-.701.163s-.373.248-.49.418c-.117.169-.175.346-.175.532v2.817c.403.444.843.665,1.318.665Z"/>
    <path class="st1" d="M182.522,50.867c.153.262.365.468.635.616.27.149.566.224.889.224.331,0,.631-.07.901-.212.27-.141.526-.36.768-.659.04-.04.073-.06.097-.06s.061.012.109.036l.738.326c.056.025.084.061.084.109,0,.024-.016.06-.048.109-.363.524-.764.897-1.203,1.118-.44.222-.981.332-1.626.332-.613,0-1.163-.137-1.65-.411-.488-.274-.869-.657-1.142-1.148-.274-.492-.411-1.052-.411-1.681,0-.677.141-1.274.424-1.789.282-.516.665-.915,1.148-1.197s1.019-.424,1.608-.424c.604,0,1.139.133,1.602.399.464.266.822.651,1.076,1.155.254.504.381,1.102.381,1.795v.049c0,.08-.012.137-.036.169-.025.033-.077.053-.157.061h-4.28c-.089,0-.133.065-.133.193,0,.33.076.627.23.889ZM185.158,48.89c.08,0,.135-.01.163-.03s.043-.067.043-.139c0-.258-.057-.508-.169-.749-.113-.242-.28-.44-.502-.592-.222-.153-.486-.23-.792-.23-.476,0-.861.167-1.155.502-.294.335-.437.748-.429,1.239h2.841Z"/>
    <path class="st1" d="M188.007,52.638c-.032-.033-.048-.089-.048-.169v-5.984c0-.137.056-.205.169-.205h1.209c.104,0,.157.06.157.181v.629c0,.048.012.077.036.085.025.008.057-.004.097-.037.379-.33.732-.576,1.058-.737s.679-.242,1.058-.242c.596,0,1.066.171,1.408.514s.514.796.514,1.36v4.401c0,.169-.085.254-.254.254h-1.112c-.081,0-.135-.016-.163-.048-.029-.033-.043-.089-.043-.169v-4.159c0-.314-.087-.558-.26-.731-.173-.173-.426-.26-.756-.26-.282,0-.538.065-.768.193-.23.129-.49.338-.78.629v4.304c0,.089-.02.151-.06.187-.041.037-.113.055-.218.055h-1.076c-.081,0-.137-.016-.169-.048Z"/>
    <path class="st1" d="M199.294,52.469v-.399c0-.073-.02-.109-.06-.109-.024,0-.057.02-.097.06-.234.226-.494.413-.78.562s-.635.224-1.046.224c-.5,0-.943-.123-1.33-.368-.387-.246-.691-.612-.913-1.101-.222-.487-.332-1.086-.332-1.795,0-.661.119-1.249.356-1.765s.562-.915.973-1.197.871-.424,1.378-.424c.338,0,.635.055.889.163.254.109.498.268.731.478.04.04.085.06.133.06.049,0,.073-.052.073-.157v-2.793c0-.129.056-.193.169-.193h1.221c.121,0,.181.069.181.205v8.535c0,.081-.018.139-.055.175-.036.037-.103.055-.199.055h-1.064c-.153,0-.23-.073-.23-.218ZM198.636,47.36c-.205-.109-.438-.163-.695-.163-.484,0-.873.195-1.167.586s-.441.969-.441,1.735c0,.774.143,1.346.429,1.717.286.371.667.556,1.142.556.25,0,.48-.058.689-.175.21-.117.375-.268.496-.453.121-.185.181-.375.181-.568v-2.732c-.218-.226-.429-.393-.635-.502Z"/>
    <path class="st1" d="M206.342,52.42c0,.105-.02.175-.06.212-.041.037-.113.055-.218.055h-1.064c-.089,0-.151-.016-.187-.048-.036-.033-.054-.089-.054-.169l.036-8.548c0-.137.061-.205.181-.205h1.197c.113,0,.169.065.169.193v8.511Z"/>
    <path class="st1" d="M209.285,50.867c.153.262.365.468.635.616.27.149.566.224.889.224.331,0,.631-.07.901-.212.27-.141.526-.36.768-.659.04-.04.073-.06.097-.06s.061.012.109.036l.738.326c.056.025.084.061.084.109,0,.024-.016.06-.048.109-.363.524-.764.897-1.203,1.118-.44.222-.981.332-1.626.332-.613,0-1.163-.137-1.65-.411-.488-.274-.869-.657-1.142-1.148-.274-.492-.411-1.052-.411-1.681,0-.677.141-1.274.424-1.789.282-.516.665-.915,1.148-1.197s1.019-.424,1.608-.424c.604,0,1.139.133,1.602.399.464.266.822.651,1.076,1.155.254.504.381,1.102.381,1.795v.049c0,.08-.012.137-.036.169-.025.033-.077.053-.157.061h-4.28c-.089,0-.133.065-.133.193,0,.33.076.627.23.889ZM211.92,48.89c.08,0,.135-.01.163-.03s.043-.067.043-.139c0-.258-.057-.508-.169-.749-.113-.242-.28-.44-.502-.592-.222-.153-.486-.23-.792-.23-.476,0-.861.167-1.155.502-.294.335-.437.748-.429,1.239h2.841Z"/>
    <path class="st1" d="M218.038,47.342c-.258-.129-.556-.193-.895-.193-.355,0-.647.073-.877.218-.23.145-.345.334-.345.568,0,.137.057.26.169.369s.318.203.616.284l1.439.387c.604.153,1.048.387,1.33.701s.423.689.423,1.124c0,.411-.119.768-.356,1.07-.238.302-.568.534-.991.695-.423.161-.905.242-1.445.242-.669,0-1.253-.123-1.753-.368-.5-.246-.855-.566-1.064-.961-.032-.065-.048-.109-.048-.133,0-.049.024-.089.072-.121l.713-.362c.057-.032.105-.049.145-.049.032,0,.068.02.109.061.193.274.429.492.707.653.278.161.639.242,1.082.242.411,0,.747-.071,1.009-.212.262-.141.393-.337.393-.586,0-.169-.071-.312-.212-.43-.141-.116-.385-.22-.731-.308l-1.233-.29c-.612-.145-1.062-.362-1.348-.653-.286-.29-.43-.661-.43-1.112,0-.395.107-.746.321-1.052.213-.306.52-.544.919-.713s.864-.254,1.396-.254c.572,0,1.08.107,1.523.321s.77.486.979.816c.04.065.061.117.061.157,0,.041-.021.073-.061.097l-.75.375c-.048.017-.077.024-.084.024-.065,0-.117-.028-.157-.084-.161-.218-.371-.391-.629-.52Z"/>
    <path class="st1" d="M224.356,47.342c-.258-.129-.556-.193-.895-.193-.355,0-.647.073-.877.218-.23.145-.345.334-.345.568,0,.137.057.26.169.369s.318.203.616.284l1.439.387c.604.153,1.048.387,1.33.701s.423.689.423,1.124c0,.411-.119.768-.356,1.07-.238.302-.568.534-.991.695-.423.161-.905.242-1.445.242-.669,0-1.253-.123-1.753-.368-.5-.246-.855-.566-1.064-.961-.032-.065-.048-.109-.048-.133,0-.049.024-.089.072-.121l.713-.362c.057-.032.105-.049.145-.049.032,0,.068.02.109.061.193.274.429.492.707.653.278.161.639.242,1.082.242.411,0,.747-.071,1.009-.212.262-.141.393-.337.393-.586,0-.169-.071-.312-.212-.43-.141-.116-.385-.22-.731-.308l-1.233-.29c-.612-.145-1.062-.362-1.348-.653-.286-.29-.43-.661-.43-1.112,0-.395.107-.746.321-1.052.213-.306.52-.544.919-.713s.864-.254,1.396-.254c.572,0,1.08.107,1.523.321s.77.486.979.816c.04.065.061.117.061.157,0,.041-.021.073-.061.097l-.75.375c-.048.017-.077.024-.084.024-.065,0-.117-.028-.157-.084-.161-.218-.371-.391-.629-.52Z"/>
    <path class="st1" d="M229.091,52.432c0,.089-.024.153-.073.193-.048.041-.125.061-.23.061h-1.221c-.089,0-.151-.018-.187-.055-.036-.036-.055-.09-.055-.163v-1.366c0-.137.057-.205.169-.205h1.426c.113,0,.169.061.169.181v1.354Z"/>
  </g>
</svg>