<?xml version="1.0" encoding="utf-8"?>
<!-- Generator: Adobe Illustrator 27.7.0, SVG Export Plug-In . SVG Version: 6.00 Build 0)  -->
<svg version="1.1" id="Layer_1" xmlns="http://www.w3.org/2000/svg" xmlns:xlink="http://www.w3.org/1999/xlink" x="0px" y="0px"
	 viewBox="0 0 2500 406.9" style="enable-background:new 0 0 2500 406.9;" xml:space="preserve">
<style type="text/css">
	.st0{fill-rule:evenodd;clip-rule:evenodd;fill:#FFFFFF;}
</style>
<g>
	<path class="st0" d="M311.8,384.6c-32.6-20.4-56.6-90.9-56.6-174.7c0-3.1,0-6.1,0.1-9.1l0,0C164.5,186.6,99,147.5,97.3,101.3
		l-0.3,0.5c-22.2,27.6-34.9,59.5-34.9,93.5c0,100,109.8,181.9,249,189.2L311.8,384.6z M20.2,202.6C20.2,90.7,159.5,0,331.2,0
		c171.8,0,311,90.7,311,202.6c0,111.9-139.2,202.6-311,202.6C159.5,405.2,20.2,314.5,20.2,202.6L20.2,202.6z M331.2,29.2
		c33.2,0,61.4,50.3,71.8,120.5l0-0.1c64.5-10,109.7-33.2,109.7-60.2c0-36.2-81.3-65.5-181.5-65.5C231,24,149.7,53.3,149.7,89.5
		c0,27,45.2,50.1,109.7,60.2l0,0.1C269.9,79.5,298.1,29.2,331.2,29.2L331.2,29.2z M351.3,384.5c139.2-7.3,249-89.2,249-189.2
		c0-34-12.7-65.9-34.9-93.5l-0.3-0.5c-1.7,46.2-67.2,85.3-157.9,99.5l0,0c0.1,3,0.1,6.1,0.1,9.1c0,83.8-24,154.3-56.6,174.7
		L351.3,384.5z M331.2,154.9c14.4,0,28.8-0.6,43.1-1.8l0,0c-6.9-45-23.6-76.7-43.1-76.7c-19.5,0-36.2,31.8-43.1,76.7l0,0
		C302.5,154.3,316.9,154.9,331.2,154.9L331.2,154.9z M331.2,321.5c25,0,45.3-52,46.4-117.1l0.1,0c-31,2.9-62.1,2.9-93.1,0l0.1,0
		C285.9,269.6,306.3,321.5,331.2,321.5z M1607.2,202.6c0-85.5,69.3-154.8,154.8-154.8c85.5,0,154.9,69.3,154.9,154.8
		c0,85.5-69.3,154.8-154.9,154.8C1676.6,357.4,1607.2,288.1,1607.2,202.6L1607.2,202.6z M1762.1,300.7c47.8,0,86.5-43.9,86.5-98.1
		c0-54.1-38.7-98.1-86.5-98.1s-86.5,43.9-86.5,98.1C1675.6,256.8,1714.3,300.7,1762.1,300.7z M2092.7,112.3v238.2h-65.3V112.3h0.2
		h-91.2V58.4h247.3v53.8H2092.7z M2262.6,284.7L2262.6,284.7l-25.1,65.7h-76.2l120.5-292h81.2l120.5,292h-76.2l-25-65.6l-0.1-0.1
		H2262.6z M2322.4,235.4h41.1l0,0l-40.8-106.9h-0.6l-40.8,106.9l0,0H2322.4z M889.9,112.3v238.2h-65.3V112.3h0.2h-91.3V58.4H981
		v53.8H889.9L889.9,112.3z M997.7,202.6c0-85.5,69.3-154.8,154.9-154.8c85.5,0,154.9,69.3,154.9,154.8
		c0,85.5-69.3,154.8-154.9,154.8C1067,357.4,997.7,288.1,997.7,202.6z M1152.5,300.7c47.7,0,86.5-43.9,86.5-98.1
		c0-54.1-38.7-98.1-86.5-98.1c-47.8,0-86.5,43.9-86.5,98.1C1066.1,256.8,1104.8,300.7,1152.5,300.7z M1457.3,350.4h33.1V239.6
		l113.8-181.1H1528l-70.7,122.7l-70.7-122.7h-76.2l113.8,181.1v110.9L1457.3,350.4L1457.3,350.4z"/>
</g>
</svg>
