<svg version="1.1" id="svg2" xmlns="http://www.w3.org/2000/svg" x="0" y="0" viewBox="0 0 248.17 97.28" style="enable-background:new 0 0 248.17 97.28" xml:space="preserve"><style>.st0{fill:#fff}</style><path id="path22" class="st0" d="M180.3 53.73c.45-.21 1.47-.67 1.93-.89.53-.27.46-.49.3-.92-.69-2.1-1.03-4.33-1.03-6.64 0-11.88 9.66-21.54 21.54-21.54 11.85 0 21.49 9.67 21.49 21.54 0 3.04-.64 5.95-1.77 8.56-.1.18-.12.56.19.72.35.15 1.66.74 2.04.88.39.15.63.06.83-.34 1.3-3.03 2.02-6.34 2.02-9.82 0-13.72-11.12-24.85-24.81-24.85-13.72 0-24.83 11.13-24.83 24.85 0 2.81.47 5.5 1.32 8.02.12.39.33.64.78.43"/><path id="path24" class="st0" d="M174 56.66c.5-.27 2.28-1.07 2.75-1.3.49-.2.37-.61.29-.79-1.03-2.9-1.6-6.01-1.6-9.27 0-15.23 12.37-27.59 27.59-27.59 15.17 0 27.54 12.36 27.54 27.59 0 3.9-.8 7.6-2.28 10.96-.07.18-.21.59.26.77.42.19 2.4 1.08 2.77 1.24.39.16.63.09.83-.37 1.69-3.86 2.61-8.13 2.61-12.6 0-17.52-14.23-31.79-31.74-31.79-17.54 0-31.79 14.27-31.79 31.79 0 3.86.7 7.56 1.97 10.99.09.2.25.62.8.37"/><path id="path26" class="st0" d="M165.41 60.61c.61-.31 4.35-2.03 4.99-2.32.68-.29.38-.8.29-1.08a34.225 34.225 0 0 1-2.14-11.92c0-19.03 15.45-34.49 34.47-34.49 18.96 0 34.43 15.46 34.43 34.49 0 4.81-1 9.38-2.77 13.55-.12.25-.24.76.39 1.03.59.27 4.22 1.87 4.72 2.07.49.24.87.18 1.2-.54 2.1-4.97 3.26-10.42 3.26-16.11 0-22.77-18.49-41.31-41.22-41.31-22.77 0-41.26 18.54-41.26 41.31 0 5.24.98 10.24 2.77 14.83.08.26.27.75.87.49"/><path id="path28" class="st0" d="M203.03 36.32c2.42 0 4.43-1.97 4.43-4.41 0-2.47-2-4.43-4.43-4.43-2.47 0-4.42 1.97-4.42 4.43a4.407 4.407 0 0 0 4.42 4.41"/><path id="path30" class="st0" d="M204.66 59.47c.85 0 1.55-.7 1.55-1.56v-9.7c.05-1.23.92-2.81 1.77-3.72l9.13-9.12c.62-.61.62-1.63 0-2.22l-1.67-1.66c-.6-.62-1.61-.62-2.21 0l-8.24 8.26c-.57.53-.95.87-1.95.87-1.03 0-1.43-.33-1.96-.87l-8.25-8.26c-.63-.62-1.61-.62-2.21 0l-1.68 1.66c-.61.59-.61 1.61 0 2.22l9.14 9.12c.86.92 1.71 2.49 1.75 3.72v9.7c0 .86.7 1.56 1.56 1.56h3.27"/><path id="path32" class="st0" d="M233.44 62.91c-1.54.57-4.43 3.42-5.73 4.58l-.36.05c.46-.51 2.45-3.04 2.97-3.9 1.57-2.61-1.4-5.07-4.65-3.2-1.25.71-3.32 2.89-4.32 3.68l-.31.08c.45-.45 2.29-2.86 2.77-3.65 1.44-2.11-1.55-4.12-4.13-2.56-1.82 1.1-3.32 2.59-4.85 3.78l-.27.07c.41-.4 1.43-1.61 1.82-2.03 1.52-1.71-.66-3.68-2.96-2.48-2.21 1.12-5.37 4.29-8.85 6.51 1.61.87 4.44 1 8.93 2.92 4.5 1.92 5.96 6.4 3.02 9.93-2.71 3.27-6.85 2.17-10.41 1.06-4.13-1.29-5.6-2.63-10.57-4.35-3.25-1.13-4.58-1.12-4.52-2.04.05-1.06 2.86-.43 5.49.52 7.29 2.65 16.98 8.65 19.35 2.18 1.88-5.1-6.52-7.31-9.74-7.92-4.48-.86-7.57-4.14-11.45-6.23-5.86-3.16-10.37-3.24-13.72-2.64-3.6.64-8.73 3.58-11.84 5.45-2.16 1.28-2 3.23.11 6.22 7.48 10.63 19.81 17.58 33.76 17.58 14.8 0 27.79-7.86 35.06-19.56 1.65-2.62-.89-5.37-4.6-4.05"/><path id="path34" class="st0" d="M115.18 91.31c.01 1.19 4.24 2.47 6.46 2.47 2.21 0 5.32-.83 6.92-4.77 1.68-4.14 8.66-28.04 8.66-28.04l.79-.02c1.57-.28 2.13-1.21 2.13-3.61 0-.86-.12-.94-.82-.94h-5.73c-.55.02-.6.1-.78.67l-4.77 18.42-4.91-18.42c-.15-.57-.23-.65-.77-.67h-5.76c-.69 0-.82.07-.82.94 0 2.4.59 3.34 2.16 3.61l.81.02s4.58 16.04 6.99 22.76l-.35 1.3c-.77 2.52-2.11 3.67-4.21 3.67-.51 0-3.33-.43-3.33-.43-1.6-.13-2.02.54-2.2 1.12-.28.83-.47 1.75-.47 1.92"/><path id="path36" class="st0" d="M95.66 47.46h-6.83c-.6 0-.61.06-.7.67l-3.86 23.86-4.64-23.74c-.12-.64-.22-.79-.95-.79h-3.13c-1.15 0-1.2.17-1.33.83l-4.86 23.7-3.64-23.86c-.09-.6-.11-.67-.69-.67H58c-.73 0-.85.07-.85.96 0 2.63.65 3.59 2.5 3.8l.71.05 5.34 29.36c.19.68.25.82.89.82h4.63c.75 0 .77-.04.9-.82l4.62-22.83 3.87 22.85c.15.76.15.8.91.8h4.72c.62 0 .72-.14.88-.82l6.06-29.39.67-.02c1.87-.21 2.49-1.18 2.49-3.8.01-.83-.11-.92-.68-.96"/><path id="path38" class="st0" d="M107.37 76.63c-.64.7-1.98 2.13-3.86 2.13-1.92 0-3.4-1.65-3.4-3.81 0-4.82 5.7-4.53 7.26-4.42v6.1zm6.09 1.23c-.28-1.02-.54-2.31-.54-4.67v-9.24c0-5.82-2.53-8.41-8.27-8.41-4 0-8.23 1.72-8.23 2.81 0 .13.18.99.45 1.76.12.34.38 1.13 2.08 1.01.69-.05 3.62-.61 4.86-.61 3.25 0 3.57 1.9 3.57 4.13v1.84c-4.05 0-12.8.04-12.8 8.84 0 4.96 2.75 8.04 7.19 8.04 3.36 0 5.04-1.84 6.05-2.96l.39-.43.12.67c.21 1.08.41 1.82 1.23 1.82h5.89c.73 0 .82-.06.82-.9 0-2.65-.62-3.58-2.81-3.7"/><path id="path40" class="st0" d="m72.07 34.56-.63-.02V13.72c0-.51-.04-.57-.52-.57h-8.24c-.72 0-.8.06-.8.92 0 2.83.75 3.7 3.2 3.7h.59v16.78l-.63.02c-2.45 0-3.19.87-3.19 3.7 0 .85.11.92.82.92h11.78c.69 0 .82-.07.82-.92 0-2.81-.79-3.71-3.2-3.71"/><path id="path42" class="st0" d="M68.5 3.26c-1.98 0-3.51 1.65-3.51 3.74 0 2.06 1.57 3.76 3.51 3.76 1.9 0 3.43-1.7 3.43-3.76 0-2.05-1.53-3.74-3.43-3.74"/><path id="path44" class="st0" d="M29.53 9.85h.15c2.5 0 3.29-.92 3.29-3.82 0-.85-.11-.94-.83-.94H20.8c-.64 0-.74.11-.8.5l-.03.44c0 2.89.78 3.8 3.24 3.82h.16v17.09c0 3.28 0 7.73-5.25 7.73-4.86 0-5.25-3.5-5.25-7.73V9.85h.17c2.44-.02 3.23-.93 3.23-3.82l-.04-.53c-.07-.31-.17-.4-.79-.4H4.11c-.72 0-.84.09-.84.94 0 2.93.75 3.82 3.3 3.82h.15v17.09c0 9.2 3.41 13.14 11.4 13.14s11.41-3.94 11.41-13.14V9.85"/><path id="path46" class="st0" d="M55.8 34.56V20.49c0-5.7-1.87-8.26-6.06-8.26-3.75 0-5.82 2.19-7.43 3.84-.14-.6-.26-1.08-.26-1.08-.25-1.14-.47-1.85-1.21-1.85h-6.36c-.71 0-.81.06-.81.92 0 2.68.67 3.63 2.93 3.69.32 1.13.53 2.04.53 4.73v12.08c-2.4.02-3.13.9-3.13 3.7 0 .85.12.92.82.92h7.58c.46 0 .49-.07.49-.56V19.76c.7-.72 2.27-2.29 4.29-2.29 2.87 0 2.87 3.28 2.87 4.68v16.46c0 .49.02.56.51.56h7.54c.69 0 .82-.07.82-.92-.01-2.76-.78-3.67-3.12-3.69"/><path id="path48" class="st0" d="M86.23 40.09c3.36 0 6.09-.87 6.09-1.6 0-.13-.2-1.12-.32-1.6-.47-1.96-.66-2.68-4.22-2.23-.45.05-.86-.05-1.14-.33-.69-.7-.69-2.23-.69-3.47v-13.1h3.2c2.46 0 3.19-.86 3.19-3.7 0-.86-.11-.92-.82-.92h-5.57v-7.3c0-.7-.06-.74-.33-.74-.25 0-1.43.16-2.02.24-1.65.28-3.41 1.55-3.41 4.5v3.31h-3.3c-.7 0-.82.06-.82.92 0 2.83.76 3.7 3.19 3.7h.93v12.2c0 4.96 0 10.12 6.04 10.12"/><path id="path50" class="st0" d="m100.4 23.2.03-.45c.16-1.78.52-5.91 4.21-5.91 3.61 0 3.62 4.21 3.62 6.36h-7.86zm13.81 3.43c0-9.54-3.19-14.39-9.43-14.39-6.2 0-10.34 5.69-10.34 14.19 0 11.28 5.75 13.67 10.59 13.67 3.89 0 8.41-1.83 8.41-2.98 0-.18-.19-1.06-.45-1.85-.18-.57-.52-1.16-2.16-1.08-1.27.06-3.3.65-5.18.65-3.6 0-5.43-2.25-5.46-7.04h13.09c.77-.01.93-.21.93-1.17"/><path id="path52" class="st0" d="M127.04 35.11c-3.5 0-4.2-3.22-4.2-8.79 0-5.91.73-9.1 4.5-9.1 1.49 0 2.59.32 3.84 1.14v14.77c-.75.87-1.81 1.98-4.14 1.98zm10.43-.55c-.32-1.02-.52-2.09-.52-4.65V3.95c0-.48-.04-.55-.52-.55h-7.59c-.71 0-.84.07-.84.9 0 2.74.74 3.66 3.01 3.7h.15v5.99l-.47-.32c-.87-.61-2.05-1.43-4.58-1.43-5.92 0-9.07 5.18-9.07 15 0 8.28 2.87 12.86 8.07 12.86 4.12 0 6.83-3.02 6.83-3.02l.33 1.12c.24.88.29.98.99.98h6.68c.69 0 .81-.07.81-.92.02-2.79-.71-3.7-3.28-3.7"/></svg>