<svg version="1.1" id="Layer_1" xmlns="http://www.w3.org/2000/svg" x="0" y="0" viewBox="0 0 164 35" style="enable-background:new 0 0 164 35" xml:space="preserve"><style>.st0{fill:#fff}</style><path class="st0" d="M52.11 11.28c-.06-.01-.11-.01-.17-.01-.85 0-1.54.69-1.54 1.54v6.32c0 1.94-1.57 3.52-3.5 3.52s-3.5-1.58-3.5-3.52v-6.32a1.54 1.54 0 0 0-3.08 0v6.32c0 3.64 2.95 6.61 6.58 6.61 1.35 0 2.61-.41 3.65-1.11.25.52.78.88 1.39.88.85 0 1.54-.69 1.54-1.54V12.81c0-.8-.6-1.45-1.37-1.53M63.3 11.06c-1.35 0-2.61.41-3.65 1.11-.25-.52-.78-.88-1.39-.88-.85 0-1.54.69-1.54 1.54v11.15c0 .79.6 1.45 1.37 1.53.06.01.11.01.17.01.85 0 1.54-.69 1.54-1.54v-6.32c0-1.94 1.57-3.52 3.5-3.52s3.5 1.58 3.5 3.52v6.32a1.54 1.54 0 0 0 3.08 0v-6.32c0-3.64-2.95-6.6-6.58-6.6zM116.72 11.85a6.563 6.563 0 0 0-6.76.31 1.54 1.54 0 0 0-2.93.67v11.15a1.54 1.54 0 0 0 3.08 0v-6.36c0-1.92 1.56-3.48 3.48-3.48.59 0 1.14.14 1.65.42.75.41 1.69.13 2.09-.62.42-.75.14-1.69-.61-2.09zM79.91 22.68a4.28 4.28 0 0 1-4.27-4.27 4.28 4.28 0 0 1 4.27-4.27 4.28 4.28 0 0 1 4.27 4.27c.01 2.36-1.91 4.27-4.27 4.27zm0-11.62c-4.06 0-7.35 3.3-7.35 7.35 0 4.06 3.3 7.35 7.35 7.35 4.06 0 7.35-3.3 7.35-7.35.01-4.05-3.29-7.35-7.35-7.35zM97.15 22.68c-2.35 0-4.27-1.92-4.27-4.27s1.92-4.27 4.27-4.27c2.35 0 4.27 1.92 4.27 4.27s-1.91 4.27-4.27 4.27zm0-11.62c-1.59 0-3.07.51-4.27 1.37V5.72a1.54 1.54 0 0 0-3.08 0v18.27c0 .85.69 1.54 1.54 1.54.72 0 1.33-.5 1.49-1.17 1.21.88 2.71 1.41 4.32 1.41 4.05 0 7.35-3.3 7.35-7.35s-3.29-7.36-7.35-7.36zM126.07 22.68a4.28 4.28 0 0 1-4.27-4.27 4.28 4.28 0 0 1 4.27-4.27 4.28 4.28 0 0 1 4.27 4.27c0 2.36-1.92 4.27-4.27 4.27zm0-11.62c-4.06 0-7.35 3.3-7.35 7.35 0 4.06 3.3 7.35 7.35 7.35 1.61 0 3.1-.52 4.32-1.41.17.67.77 1.17 1.49 1.17.85 0 1.54-.69 1.54-1.54V18.4c0-4.04-3.3-7.34-7.35-7.34zM156.65 22.68a4.28 4.28 0 0 1-4.27-4.27 4.28 4.28 0 0 1 4.27-4.27 4.28 4.28 0 0 1 4.27 4.27c0 2.36-1.92 4.27-4.27 4.27zm0-11.62c-4.06 0-7.35 3.3-7.35 7.35 0 4.06 3.3 7.35 7.35 7.35s7.35-3.3 7.35-7.35-3.3-7.35-7.35-7.35zM147.18 11.21c-.77-.35-1.69-.01-2.04.76l-3.8 8.32-3.83-8.33a1.548 1.548 0 0 0-2.04-.76c-.77.36-1.11 1.27-.76 2.05l5.24 11.39a1.539 1.539 0 0 0 2.8 0l5.2-11.38c.34-.78 0-1.7-.77-2.05zM8.36 28.47c0-.35.03-.69.09-1.03 0-.02.01-.05.01-.07l.03-.17c0-.02.01-.04.01-.06.01-.06.03-.11.04-.17.68-2.69 2.98-6.04 5.68-8.96-2.74-2.97-5.87-5.49-8.12-6.43-.01 0-.02-.01-.02-.01-.01 0-.01-.01-.02-.01-.46-.19-.97-.3-1.5-.3-1.74 0-3.22 1.14-3.73 2.72 0 .01 0 .01-.01.02 0 .01-.01.02-.01.03C.27 15.81 0 17.65 0 20.11c0 7.85 6.35 14.21 14.2 14.23h.04a5.862 5.862 0 0 1-5.88-5.87z"/><path class="st0" d="M27.58 14.03c0-.01-.01-.02-.01-.03 0-.01 0-.01-.01-.02a3.915 3.915 0 0 0-5.23-2.42c-.01 0-.01.01-.02.01s-.02.01-.02.01c-2.25.95-5.39 3.47-8.12 6.43 2.69 2.92 5 6.27 5.68 8.96.01.06.03.11.04.17 0 .02.01.04.01.06l.03.17c0 .02.01.05.01.07a5.872 5.872 0 0 1-5.78 6.9h.04c7.84-.02 14.2-6.39 14.2-14.23.01-2.46-.26-4.3-.82-6.08z"/><path class="st0" d="M20.08 28.5c0-.35-.03-.69-.09-1.03 0-.02-.01-.05-.01-.07l-.03-.17c0-.02-.01-.04-.01-.06-.01-.06-.03-.11-.04-.17-.68-2.69-2.98-6.04-5.68-8.96-2.69 2.92-5 6.27-5.68 8.96-.01.06-.03.11-.04.17 0 .02-.01.04-.01.06l-.03.17c0 .02-.01.05-.01.07a5.872 5.872 0 0 0 5.78 6.9c3.22 0 5.85-2.63 5.85-5.87zM3.91.84a3.91 3.91 0 1 1 0 7.82A3.897 3.897 0 0 1 0 4.75 3.91 3.91 0 0 1 3.91.84zM24.49.84a3.91 3.91 0 1 1 0 7.82 3.91 3.91 0 0 1-3.91-3.91A3.897 3.897 0 0 1 24.49.84z"/></svg>