<svg version="1.1" id="Layer_1" xmlns="http://www.w3.org/2000/svg" x="0" y="0" viewBox="0 0 532 197" style="enable-background:new 0 0 532 197" xml:space="preserve"><style>.st0{fill:#fff}</style><path class="st0" d="M89.51 32.89c.9.32 1.86.22 2.79.31a73.96 73.96 0 0 1 24.86 6.86c9.37 4.45 17.46 10.6 24.32 18.38 1.62 1.83 1.78 3.81.45 5.89-18.8 29.42-37.6 58.85-56.4 88.27-.11.17-.24.34-.42.59-.81-1.26-1.6-2.48-2.38-3.69-18.1-28.31-36.19-56.63-54.29-84.94-1.52-2.38-1.37-4.24.5-6.32 10.68-11.93 23.79-19.79 39.38-23.48 3.72-.88 7.5-1.43 11.31-1.69.19-.01.43.08.55-.17 3.12-.01 6.22-.01 9.33-.01zm-4.38 78.77c2.35-.01 4.34-2 4.35-4.34.01-2.38-2.02-4.37-4.42-4.35-2.35.02-4.33 2.04-4.3 4.37.03 2.35 2.04 4.34 4.37 4.32zM160.15 107.89c-.36 20.48-7.49 38.18-21.93 52.79-10.76 10.89-23.76 17.72-38.75 20.75-.53.11-1.06.16-1.59.26-.96.18-1.79-.07-2.4-.84-.65-.82-.71-1.74-.29-2.69.71-1.58 1.4-3.16 2.11-4.73 15.52-34.87 31.04-69.74 46.56-104.62.36-.8.72-1.57 1.63-1.92 1.17-.45 2.38-.07 3.1 1.07a74.263 74.263 0 0 1 9.93 24.46c.44 2.1.8 4.22 1.06 6.35.35 3.02.54 6.06.57 9.12zM23.67 66.73c1.37 0 2.08.66 2.55 1.71 2.67 6.01 5.35 12.02 8.02 18.03 13.55 30.45 27.1 60.89 40.65 91.34.47 1.06.59 2.07-.16 3.03-.71.91-1.69 1.02-2.75.81-.7-.14-1.41-.25-2.11-.4-14.27-3.06-26.68-9.61-37.12-19.83-11.48-11.23-18.71-24.77-21.48-40.58-2.75-15.64-.67-30.7 6.09-45.1 1.24-2.65 2.67-5.19 4.22-7.67.53-.85 1.22-1.38 2.09-1.34z"/><g><path class="st0" d="M178.2 75.07c.33-.49.69-.74 1.28-.74 6.33.04 12.65.06 18.98-.01.94-.01 1.1.49 1.22 1.4.45 3.36.41 3.45-2.21 4.23-4.07 1.2-4.48 2.08-3.16 6.97 3.38 12.54 6.77 25.09 10.16 37.62.15.54.16 1.18.66 1.68 1.47-4.44 2.93-8.83 4.38-13.23 2.57-7.81 5.12-15.63 7.73-23.43.69-2.06.86-4.06.25-6.19-.73-2.52-2.63-3.09-4.3-4.04-.7-.39-1.17-.74-1.11-1.91.14-3.07.08-3.07 2.55-3.07 5.08 0 10.16.05 15.24-.04 1.17-.02 1.45.51 1.54 1.78.11 1.69-.09 2.87-1.62 3.49-2.48 1-3.68 3.61-4.64 6.39-2.78 8.09-5.55 16.18-8.32 24.27-3.19 9.29-6.39 18.56-9.55 27.86-.31.92-.71 1.4-1.5 1.62-1.16.33-2.29.84-3.44 1.26-1.91.69-1.91.69-2.57-1.57-5.18-17.69-10.43-35.34-15.49-53.09-1.12-3.92-2.98-6.43-6.09-7.71.01-1.17.01-2.36.01-3.54zM287.67 87.89c.15 2.74.43 5.42.42 8.1-.03 11.05.16 22.1.28 33.15.02 1.87.65 2.8 2.03 3.31 1.74.64 3.44 1.44 5.19 2.06.82.29 1 .73.92 1.76-.26 3.38-.21 3.38-3.01 3.38-5.7 0-11.41-.08-17.11.05-1.5.03-1.89-.58-2.05-2.28-.16-1.7.08-2.71 1.57-2.92.37-.05.73-.28 1.09-.42 3.32-1.25 4.92-3.68 5.01-7.94.27-13.59.12-27.19.14-40.79 0-2.36-.82-4.07-2.72-4.86-.77-.32-1.51-.75-2.26-1.13-1.75-.87-2.12-1.86-1.65-4.17.13-.64.35-.85.87-.84 4.79.02 9.59.04 14.38-.01.82-.01 1.04.68 1.38 1.27 7.72 13.38 15.44 26.75 23.15 40.13 1.19 2.07 2.38 4.15 3.58 6.21.24.4.36.98 1.07 1.11-.09-1.37-.15-2.68-.26-3.98-.58-6.66-.26-13.34-.42-20.01-.1-3.96 0-7.92-.02-11.88-.02-3.61-1.1-5.53-3.82-6.87-.89-.44-1.75-.96-2.67-1.29-.89-.32-1.07-.95-.95-1.98.35-3.13-.13-2.67 2.43-2.67 5.61-.02 11.22 0 16.82-.01.63 0 1.38-.12 1.26 1.06-.11 1.11.99 2.64-.68 3.27-.59.22-1.17.52-1.75.78-3.56 1.58-4.67 3.5-4.67 8.14 0 16.56-.02 33.11.04 49.67.01 1.63-.4 2.28-1.62 2.62-1.39.39-2.77.94-4.11 1.55-.87.4-1.32.18-1.86-.78-4.65-8.38-9.36-16.71-14.05-25.06-4.96-8.83-9.92-17.67-14.89-26.5-.25-.47-.39-1.1-1.06-1.23zM399.71 104.03c.09 6.8-.92 13.02-3.34 18.78-4.7 11.18-12.33 16.92-22.41 17.83-4.33.39-8.62-.13-12.77-1.75-7.08-2.77-12.1-8.34-14.22-17.23-2.78-11.65-2-22.96 3.42-33.32 5.13-9.81 12.78-14.42 22.1-14.96 3.7-.22 7.37.24 10.95 1.46 8.93 3.03 14.7 11.32 15.93 22.8.23 2.22.39 4.45.34 6.39zm-44.19 2.77c0 3.83.19 7.13.81 10.36 1.93 10.2 6.82 15.43 15.31 15.85 7.93.4 14.27-3.57 16.82-14.26 1.79-7.52 1.92-15.16.35-22.75-1.95-9.42-6.37-14.19-14.2-15.07-8.24-.93-14.87 3.29-17.64 13.81-1.08 4.1-1.42 8.3-1.45 12.06zM506.74 139.65c-3.11 0-6.23-.05-9.34.03-.97.02-1.42-.2-1.56-1.53-.34-3.13-.41-3.11 1.98-4.03.68-.26 1.37-.52 2.05-.78 2.42-.92 3.53-3.08 2.85-6.07-.97-4.25-2.14-8.43-3.18-12.66-.18-.74-.5-.86-1.04-.86-5.46.01-10.92.03-16.39-.01-.74-.01-.98.41-1.21 1.14-1.19 3.86-2.43 7.69-3.6 11.55-.93 3.05-.14 5.3 2.35 6.53 1.32.66 2.71 1.15 4.11 1.54.89.25 1.2.77 1.08 1.82-.05.41-.05.82-.05 1.24.01 1.54-.43 2.18-1.84 2.15-5.27-.12-10.54-.1-15.81-.01-1.15.02-1.39-.49-1.52-1.73-.18-1.83.05-3.19 1.36-4.43 1.61-1.51 2.63-3.7 3.42-6.03 5.73-16.78 11.49-33.54 17.2-50.33.43-1.26.92-2 2.08-2.26 1.88-.43 3.74-1.02 5.56-1.73 1.06-.41 1.49-.15 1.87 1.14 3.9 13.24 7.86 26.45 11.79 39.67 1.2 4.04 2.43 8.06 3.57 12.13.9 3.22 2.48 5.82 4.52 8.05.87.95 1.21 4.08.57 5.18-.28.49-.7.28-1.05.28-3.25.02-6.51.01-9.77.01zm-15.62-57.38c-.09.12-.23.23-.26.37-2.04 7.93-4.67 15.59-7.08 23.34-.41 1.32.2 1.2.87 1.2 3.88 0 7.76-.05 11.64.03 1.17.02 1.21-.4.89-1.61-1.93-7.4-4.13-14.7-5.57-22.29-.08-.36-.08-.83-.49-1.04zM436.72 126.46c.7-2.1 1.25-3.76 1.8-5.43 3.47-10.54 6.94-21.08 10.42-31.62 1.45-4.4.47-7.52-3.02-9.48-2.35-1.32-2.41-1.52-2.02-4.46.12-.92.45-1.13 1.14-1.13 5.61.03 11.22.03 16.82-.01.8-.01 1.04.3 1.14 1.26.28 2.82.31 2.99-1.71 4.03-2.33 1.2-3.49 3.56-4.41 6.21-5.93 17.26-11.88 34.52-17.76 51.81-.44 1.31-1.05 1.97-2.11 2.27-1.21.35-2.43.72-3.58 1.28-1.07.52-1.47.15-1.84-1.14-3.91-13.49-7.87-26.96-11.81-40.43-1.3-4.44-2.7-8.83-3.87-13.32-.85-3.28-2.24-5.78-4.9-7.12-1.15-.58-1.58-3.32-.86-4.52.25-.42.6-.31.92-.31 6.38-.01 12.75.01 19.12-.02.81 0 1.04.33 1.13 1.29.35 3.59.38 3.59-2.52 4.4-.28.08-.56.17-.84.26-2.5.77-3.17 2.15-2.37 5.17 1.38 5.22 2.82 10.41 4.22 15.62 2.12 7.84 4.23 15.68 6.35 23.51.15.49.29.95.56 1.88zM250.19 116.17c-3.11 0-6.23-.04-9.34.03-.89.02-1.16-.29-1.12-1.39.07-1.71.06-3.43 0-5.14-.03-.93.12-1.32.97-1.37 6.4-.41 12.8-.87 19.19-1.35.69-.05.92.21.91 1.06-.04 2.36-.05 4.73.01 7.09.03 1-.31 1.15-1 1.14-3.21-.03-6.42-.02-9.62-.02v-.05z"/></g></svg>