<svg width="125" height="31" viewBox="0 0 125 31" fill="none" xmlns="http://www.w3.org/2000/svg">
<path d="M6.07423 13.8529C6.07423 13.8529 6.07423 11.8281 6.07423 7.62891C6.02866 7.3099 5.75522 7.08203 5.43621 7.08203C5.1172 7.08203 4.85027 7.31641 4.81121 7.63542V13.8529C4.79168 16.2812 5.7422 18.6185 7.44793 20.3372C9.16668 22.0755 11.4974 23.0521 13.9323 23.0521V21.7891C11.849 21.7826 9.85027 20.9492 8.37241 19.4779C6.88803 17.987 6.06121 15.9622 6.07423 13.8529Z" fill="#8D282D"/>
<path d="M8.41145 13.8527V5.18734C8.37239 4.86833 8.09895 4.62744 7.77994 4.62744C7.66275 4.63395 7.54556 4.67301 7.44791 4.74463L7.37629 4.79671C7.25259 4.89437 7.17447 5.03109 7.15494 5.18734V13.8527C7.13541 15.6626 7.83853 17.4074 9.10806 18.6965C10.3906 19.9855 12.1224 20.7147 13.9323 20.7277V19.4517C12.4674 19.4452 11.0612 18.8592 10.0195 17.8306C8.97134 16.7759 8.39192 15.3436 8.41145 13.8527Z" fill="#F69322"/>
<path d="M10.7617 13.8594V3.58594C10.7291 3.26693 10.4557 3.01953 10.1302 3.01953C9.81769 3.01953 9.55076 3.25391 9.50519 3.5599V13.8594C9.50519 15.0573 9.97394 16.2096 10.8203 17.056C11.6601 17.8958 12.7995 18.3711 13.9909 18.3711V17.1016C13.138 17.1016 12.3177 16.763 11.7122 16.1641C11.1002 15.5586 10.7552 14.7253 10.7617 13.8594Z" fill="#FFC842"/>
<path d="M13.0599 13.8529V2.97396C13.0143 2.66146 12.7474 2.43359 12.4349 2.43359C12.1224 2.43359 11.8555 2.66146 11.8034 2.97396V13.8529C11.8099 15.0508 12.7735 16.0208 13.9649 16.0208V14.7643C13.4701 14.7643 13.0599 14.3542 13.0599 13.8529Z" fill="#FCF49F"/>
<path d="M13.9648 4.64697V5.90999C16.0482 5.9165 18.0469 6.74333 19.5313 8.22119C21.0221 9.70557 21.862 11.7303 21.8555 13.8462V19.5623C21.9206 19.8553 22.181 20.0636 22.4805 20.0636C22.7865 20.0636 23.0469 19.8553 23.112 19.5623V13.8462C23.1185 11.4113 22.1615 9.08057 20.4557 7.36182C18.737 5.63005 16.3997 4.65348 13.9648 4.64697Z" fill="#1F76BB"/>
<path d="M13.9648 6.97803V8.24756C15.4297 8.25407 16.8359 8.84001 17.8776 9.86865C18.9453 10.9233 19.5378 12.3556 19.5378 13.853V21.353C19.5964 21.646 19.8568 21.8543 20.1563 21.8543C20.5013 21.8543 20.7878 21.5744 20.7943 21.2293V13.853C20.8008 12.0366 20.0911 10.2853 18.8086 9.00277C17.526 7.7137 15.7813 6.98454 13.9648 6.97803Z" fill="#29A8E0"/>
<path d="M13.9648 9.35407V10.6236C14.8177 10.6236 15.638 10.9621 16.25 11.5611C16.862 12.1666 17.207 12.9999 17.2005 13.8593C17.2005 13.8593 17.2005 17.0624 17.2005 22.6874C17.2721 22.9804 17.5326 23.1887 17.832 23.1887C18.1771 23.1887 18.457 22.9022 18.457 22.5572V13.8397C18.4701 12.6418 18.0013 11.496 17.1615 10.6562C16.3086 9.8098 15.1563 9.34756 13.9648 9.35407Z" fill="#1ABEF0"/>
<path d="M13.9648 11.6719V12.9349C14.2122 12.9284 14.4466 13.0195 14.6224 13.1888C14.7982 13.3646 14.9023 13.599 14.9023 13.8464V23.7552C14.9023 24.1068 15.1888 24.3867 15.5404 24.3867C15.8398 24.3932 16.0937 24.1784 16.1589 23.8854V13.8854C16.1589 13.3125 15.9375 12.7591 15.5273 12.3555C15.1237 11.9193 14.5573 11.6719 13.9648 11.6719Z" fill="#FCF49F"/>
<path d="M25.4362 13.8464C25.4557 12.5378 25.2474 11.2292 24.8372 9.98569V9.9271C24.7852 9.77736 24.7266 9.64064 24.668 9.48439V9.38674L24.4922 8.9896C24.4792 8.94403 24.4596 8.90497 24.4401 8.87241C24.3815 8.73569 24.3099 8.612 24.2448 8.4883C24.1797 8.3646 24.2057 8.41017 24.1862 8.37111L23.9648 7.98049C23.9453 7.95444 23.9323 7.9284 23.9258 7.90236C23.8346 7.75262 23.7435 7.60288 23.6393 7.45965C23.5417 7.3034 23.4375 7.15367 23.3268 7.00393C21.1198 4.03518 17.6497 2.29038 13.9648 2.29689V3.55991C16.6602 3.57293 19.2448 4.64715 21.1654 6.5547C22.9557 8.32554 24.0234 10.7018 24.1667 13.2214V17.1211C24.2513 17.4271 24.5378 17.6354 24.8503 17.6224C25.1497 17.6224 25.4036 17.4011 25.4362 17.1016V13.8464Z" fill="#03528B"/>
<path d="M8.90625 23.0718C8.95182 22.8895 8.92578 22.7007 8.82812 22.538C8.72395 22.3817 8.5677 22.2711 8.38541 22.2385C8.30729 22.219 8.22265 22.219 8.14453 22.2385L5.91145 22.3036C5.39062 22.3166 4.88932 22.1148 4.51823 21.7502C4.14713 21.3856 3.93229 20.8843 3.93229 20.3635C3.93229 20.2854 4.04296 17.6877 4.04296 17.6877V17.4273C4.04296 16.9976 4.04296 16.7112 4.04296 16.7112C3.99088 16.4182 3.73698 16.2033 3.44401 16.2033H2.61718C2.57161 16.2033 2.53255 16.1838 2.50651 16.1448C2.48046 16.1122 2.46744 16.0666 2.48046 16.0211C3.30729 14.8231 3.78906 13.4299 3.89323 11.9781C3.89323 11.5028 3.89323 10.9885 3.52864 10.982C3.39192 10.9755 3.26823 11.0276 3.17057 11.1187C3.07942 11.2164 3.03385 11.3466 3.04036 11.4768C3.04036 13.2476 1.17838 16.0406 0.944007 16.3726C0.709632 16.7046 0.84635 17.4273 1.36067 17.4468C1.68619 17.4468 2.55208 17.4468 2.55208 17.4468H2.64323C2.64323 17.4468 2.64323 20.3765 2.64323 20.5067C2.6888 22.0432 3.82161 23.3323 5.33854 23.5601H7.03776L7.17448 23.6773L7.22005 23.7294C7.43489 24.1851 7.5 24.6929 7.40234 25.1877C7.33724 26.1968 7.31119 26.7567 6.57552 27.3557C5.96354 27.7854 5.24088 28.0198 4.49218 28.0393C4.49218 28.0393 7.17448 28.3778 8.34635 27.5315C8.95833 27.0888 8.90625 25.1096 8.90625 23.7554C8.86718 23.5211 8.89974 23.3062 8.90625 23.0718Z" fill="#03528B"/>
<path d="M32.6563 21.1185L32.0508 23.1888H29.1211L33.8477 7.17969H36.7773L35.0065 13.1432C36.1003 12.0234 37.5911 11.3854 39.1471 11.3594C40.4818 11.2878 41.7773 11.7826 42.7279 12.7331C43.6719 13.6771 44.1797 14.9792 44.1146 16.3203C44.069 20.2526 40.8919 23.4232 36.9857 23.4297C35.2279 23.5469 33.5482 22.6549 32.6563 21.1185ZM41.0417 16.5221C41.0742 15.7148 40.7617 14.9401 40.1823 14.3867C39.5964 13.8333 38.8086 13.5664 38.0143 13.6445C35.5273 13.7292 33.5156 15.7214 33.4115 18.2279C33.418 19.0612 33.7695 19.849 34.3815 20.4023C34.9935 20.9622 35.8073 21.2357 36.6276 21.1641C39.1146 21.0925 41.0807 19.0221 41.0417 16.5221Z" fill="#03528B"/>
<path d="M47.0443 11.6066H49.9805L49.2318 14.2108C50.3451 12.5441 52.2005 11.5415 54.1992 11.522L53.8672 13.7681H53.6914C51.1263 13.7681 48.7826 15.6886 47.8385 18.8853L46.5625 23.1886H43.6328L47.0443 11.6066Z" fill="#03528B"/>
<path d="M66.0937 11.6069H69.0234L65.5859 23.189H62.6497L66.0937 11.6069Z" fill="#03528B"/>
<path d="M70.5794 11.6068H73.5091L73.0794 13.0977C74.1146 12.0365 75.5143 11.418 76.9857 11.3594C79.362 11.3594 80.8854 12.707 80.8854 14.8294C80.8333 15.5195 80.6966 16.1966 80.4687 16.8542L78.6393 23.1888H75.6966L77.5846 16.763C77.7083 16.3854 77.7734 15.9948 77.7799 15.5977C77.7799 14.4388 76.9531 13.7812 75.5469 13.7812C73.8541 13.8333 72.4088 15.0182 72.0182 16.6719L70.0976 23.1888H67.1614L70.5794 11.6068Z" fill="#03528B"/>
<path d="M82.9037 13.8853H81.25L81.9531 11.6067H83.6068L83.8477 10.6627C84.362 8.41657 86.4323 6.88662 88.7175 7.06891C89.5638 7.05589 90.4037 7.1861 91.1979 7.45953L90.5469 9.67959C89.974 9.45823 89.362 9.34105 88.75 9.32802C87.7474 9.26292 86.8425 9.95302 86.6406 10.9426L86.4518 11.6067H89.9805L89.3034 13.8853H85.8203L83.0729 23.1887H80.1432L82.9037 13.8853Z" fill="#1F76BB"/>
<path d="M87.1745 19.9598C87.2201 19.2697 87.3438 18.5796 87.5586 17.922L89.4011 11.6069H92.3373L90.4232 18.0262C90.319 18.4103 90.2604 18.8009 90.2474 19.1981C90.2474 20.3569 91.0742 21.0145 92.461 21.0145C94.1667 20.9819 95.6315 19.7905 96.0287 18.1239L97.9623 11.6069H100.905L97.4805 23.189H94.5508L94.9805 21.6981C93.9453 22.7593 92.5391 23.3778 91.0612 23.4298C88.6979 23.4298 87.1745 22.0887 87.1745 19.9598Z" fill="#1F76BB"/>
<path d="M99.3359 21.3594L101.074 19.7448C102.201 20.793 103.685 21.3724 105.215 21.3594C106.374 21.3594 107.279 20.8385 107.279 19.9792C107.279 19.4128 106.686 19.0221 105.404 18.5404C103.281 17.7461 101.719 17.0039 101.719 15.207C101.719 13.026 103.665 11.3594 106.738 11.3594C108.529 11.3724 110.267 11.9583 111.706 13.026L110.052 14.7383C109.036 13.9505 107.806 13.5078 106.53 13.4622C105.273 13.4622 104.57 14.0352 104.57 14.7773C104.57 15.3698 105.15 15.7474 106.608 16.2943C108.542 17.0365 110.117 17.8568 110.117 19.5365C110.117 21.9323 107.917 23.4622 105.007 23.4622C102.923 23.4883 100.905 22.7396 99.3359 21.3594Z" fill="#1F76BB"/>
<path d="M117.63 21.2813C118.828 21.2813 119.994 20.8841 120.944 20.1549L122.35 21.8216C120.918 22.8958 119.173 23.4622 117.383 23.4232C113.815 23.4232 111.589 21.4701 111.589 18.3516C111.589 14.9401 114.668 11.3398 119.121 11.3398C122.435 11.3398 124.238 13.3125 124.238 15.8385C124.219 16.6849 124.03 17.5182 123.685 18.2865H114.31C114.31 20.0703 115.449 21.2813 117.63 21.2813ZM121.27 16.5612C121.354 16.2943 121.4 16.0143 121.393 15.7279C121.393 14.5234 120.612 13.5143 118.841 13.5143C116.94 13.5143 115.247 14.7253 114.629 16.5352L121.27 16.5612Z" fill="#1F76BB"/>
<path d="M58.6003 11.4312L55.4167 11.5028L55.1172 13.7814H58.4245C60.0846 13.8726 60.8203 14.5236 60.8203 15.4481C60.8203 15.7606 60.7682 16.0731 60.6706 16.3726L60.599 16.6134C59.3555 16.2293 58.0664 16.034 56.7708 16.0405C53.457 16.0405 51.0742 17.5314 51.0742 20.2072C51.0742 22.1408 52.7734 23.3908 54.974 23.3908C56.5365 23.3973 58.0273 22.7593 59.1146 21.6265L58.6784 23.1434H61.556L63.4766 16.6265C63.6458 16.0926 63.737 15.5262 63.7435 14.9598C63.7435 12.7723 61.9727 11.4312 58.6003 11.4312ZM59.9805 18.7554C59.3815 20.383 57.8385 21.4702 56.1068 21.4702C54.8438 21.4702 54.0755 20.9038 54.0755 19.8947C54.0755 18.6903 55.2539 17.8114 57.2201 17.8114C58.2031 17.8244 59.1862 17.9676 60.1302 18.2476L59.9805 18.7554Z" fill="#03528B"/>
<path d="M70.0977 7.95459L69.349 10.5132H66.4062L67.168 7.95459H70.0977Z" fill="#03528B"/>
</svg>
