<svg width="77" height="31" viewBox="0 0 77 31" fill="none" xmlns="http://www.w3.org/2000/svg">
<path d="M55.9419 17.1321C56.0815 17.0674 56.398 16.9255 56.5407 16.8577C56.7052 16.7744 56.6835 16.7065 56.6338 16.5739C56.4197 15.9263 56.3142 15.2386 56.3142 14.5262C56.3142 10.8626 59.3115 7.88356 62.9975 7.88356C66.6742 7.88356 69.6652 10.8657 69.6652 14.5262C69.6652 15.4637 69.4666 16.3611 69.116 17.166C69.085 17.2216 69.0788 17.3387 69.175 17.3881C69.2836 17.4343 69.69 17.6163 69.8079 17.6595C69.9289 17.7057 70.0034 17.678 70.0655 17.5546C70.4688 16.6202 70.6922 15.5994 70.6922 14.5262C70.6922 10.2952 67.242 6.86279 62.9944 6.86279C58.7375 6.86279 55.2903 10.2952 55.2903 14.5262C55.2903 15.3928 55.4362 16.2224 55.6999 16.9995C55.7371 17.1198 55.8023 17.1969 55.9419 17.1321Z" fill="#2741B0"/>
<path d="M53.9872 18.036C54.1423 17.9527 54.6946 17.706 54.8404 17.635C54.9925 17.5734 54.9552 17.4469 54.9304 17.3914C54.6108 16.4971 54.434 15.538 54.434 14.5327C54.434 9.83591 58.272 6.02423 62.9944 6.02423C67.7012 6.02423 71.5392 9.83591 71.5392 14.5327C71.5392 15.7354 71.291 16.8764 70.8318 17.9126C70.8101 17.9681 70.7667 18.0945 70.9125 18.1501C71.0428 18.2086 71.6571 18.4831 71.7719 18.5325C71.893 18.5818 71.9674 18.5602 72.0295 18.4184C72.5538 17.228 72.8393 15.9112 72.8393 14.5327C72.8393 9.1297 68.4241 4.729 62.9913 4.729C57.5491 4.729 53.1277 9.1297 53.1277 14.5327C53.1277 15.723 53.3449 16.8641 53.739 17.9218C53.7669 17.9835 53.8165 18.1131 53.9872 18.036Z" fill="#2741B0"/>
<path d="M51.322 19.2541C51.5112 19.1585 52.6716 18.628 52.8702 18.5386C53.0812 18.4492 52.9881 18.2919 52.9602 18.2055C52.5208 17.0292 52.2959 15.7844 52.2962 14.5296C52.2962 8.66093 57.0899 3.89325 62.9913 3.89325C68.874 3.89325 73.6739 8.66093 73.6739 14.5296C73.6739 16.0129 73.3636 17.4222 72.8144 18.7082C72.7772 18.7853 72.74 18.9426 72.9354 19.0259C73.1185 19.1091 74.2448 19.6025 74.3999 19.6642C74.552 19.7382 74.6699 19.7197 74.7723 19.4977C75.4238 17.965 75.7837 16.2843 75.7837 14.5296C75.7837 7.50756 70.0468 1.79004 62.9944 1.79004C55.9295 1.79004 50.1926 7.50756 50.1926 14.5296C50.1926 16.1455 50.4966 17.6874 51.052 19.103C51.0768 19.1831 51.1358 19.3342 51.322 19.2541Z" fill="#2741B0"/>
<path d="M62.9944 11.7633C63.7452 11.7633 64.3689 11.1557 64.3689 10.4033C64.3689 9.64155 63.7483 9.03711 62.9944 9.03711C62.228 9.03711 61.623 9.64463 61.623 10.4033C61.6229 10.5822 61.6583 10.7593 61.7272 10.9246C61.7961 11.0898 61.8972 11.2399 62.0246 11.3663C62.152 11.4926 62.3032 11.5928 62.4697 11.6609C62.6361 11.729 62.8144 11.7638 62.9944 11.7633Z" fill="#2741B0"/>
<path d="M63.5001 18.9025C63.7639 18.9025 63.981 18.6866 63.981 18.4214V15.43C63.9966 15.0507 64.2665 14.5635 64.5302 14.2828L67.363 11.4703C67.5554 11.2822 67.5554 10.9676 67.363 10.7857L66.8448 10.2738C66.6587 10.0826 66.3453 10.0826 66.1591 10.2738L63.6025 12.8211C63.4257 12.9845 63.3078 13.0894 62.9975 13.0894C62.6779 13.0894 62.5538 12.9876 62.3894 12.8211L59.8296 10.2738C59.6341 10.0826 59.3301 10.0826 59.1439 10.2738L58.6227 10.7857C58.4334 10.9676 58.4334 11.2822 58.6227 11.4703L61.4585 14.2828C61.7254 14.5665 61.9891 15.0507 62.0015 15.43V18.4214C62.0015 18.6866 62.2187 18.9025 62.4855 18.9025H63.5001Z" fill="#2741B0"/>
<path d="M72.4297 19.9634C71.9519 20.1391 71.0552 21.018 70.6518 21.3758L70.5401 21.3912C70.6829 21.2339 71.3003 20.4537 71.4616 20.1885C71.9488 19.3836 71.0273 18.6249 70.0189 19.2016C69.631 19.4206 68.9888 20.0929 68.6785 20.3365L68.5823 20.3612C68.7219 20.2224 69.2928 19.4792 69.4418 19.2356C69.8886 18.5849 68.9608 17.965 68.1603 18.4461C67.5957 18.7853 67.1303 19.2448 66.6555 19.6118L66.5718 19.6334C66.699 19.51 67.0155 19.1369 67.1365 19.0073C67.6081 18.48 66.9317 17.8725 66.2181 18.2425C65.5324 18.5879 64.5519 19.5655 63.4722 20.2502C63.9717 20.5185 64.8498 20.5585 66.2429 21.1506C67.6391 21.7428 68.0921 23.1243 67.1799 24.2129C66.3391 25.2214 65.0545 24.8821 63.95 24.5398C62.6686 24.142 62.2125 23.7288 60.6704 23.1983C59.662 22.8499 59.2494 22.8529 59.268 22.5692C59.2835 22.2423 60.1554 22.4366 60.9714 22.7296C63.2332 23.5468 66.2398 25.3972 66.9751 23.4019C67.5584 21.8291 64.9521 21.1476 63.9531 20.9594C62.5631 20.6942 61.6043 19.6827 60.4005 19.0382C58.5823 18.0637 57.183 18.039 56.1435 18.224C55.0266 18.4214 53.4349 19.3281 52.4699 19.9048C51.7998 20.2995 51.8494 20.9009 52.5041 21.8229C54.8249 25.1011 58.6505 27.2444 62.9788 27.2444C67.5708 27.2444 71.6013 24.8205 73.8569 21.2123C74.3689 20.4043 73.5808 19.5563 72.4297 19.9634Z" fill="#2741B0"/>
<path d="M35.7371 28.7214C35.7402 29.0884 37.0526 29.4831 37.7414 29.4831C38.4271 29.4831 39.3921 29.2272 39.8885 28.0121C40.4097 26.7354 42.5754 19.3649 42.5754 19.3649L42.8205 19.3587C43.3077 19.2724 43.4814 18.9856 43.4814 18.2455C43.4814 17.9802 43.4442 17.9556 43.227 17.9556H41.4492C41.2785 17.9617 41.263 17.9864 41.2071 18.1622L39.7271 23.8427L38.2037 18.1622C38.1572 17.9864 38.1324 17.9617 37.9648 17.9556H36.1776C35.9636 17.9556 35.9232 17.9772 35.9232 18.2455C35.9232 18.9856 36.1063 19.2755 36.5934 19.3587L36.8447 19.3649C36.8447 19.3649 38.2658 24.3114 39.0135 26.3838L38.9049 26.7847C38.666 27.5619 38.2503 27.9165 37.5987 27.9165C37.4404 27.9165 36.5655 27.7839 36.5655 27.7839C36.0691 27.7438 35.9387 27.9504 35.8829 28.1293C35.796 28.3853 35.7371 28.669 35.7371 28.7214Z" fill="#2741B0"/>
<path d="M29.6805 15.1987H27.5614C27.3752 15.1987 27.3721 15.2172 27.3442 15.4054L26.1465 22.7635L24.7069 15.4424C24.6697 15.245 24.6386 15.1987 24.4121 15.1987H23.441C23.0842 15.1987 23.0687 15.2512 23.0283 15.4547L21.5204 22.7635L20.391 15.4054C20.3631 15.2203 20.3569 15.1987 20.1769 15.1987H17.9957C17.7692 15.1987 17.732 15.2203 17.732 15.4948C17.732 16.3058 17.9337 16.6019 18.5077 16.6667L18.728 16.6821L20.3848 25.7364C20.4438 25.9461 20.4624 25.9892 20.661 25.9892H22.0975C22.3302 25.9892 22.3364 25.9769 22.3768 25.7364L23.8102 18.6959L25.011 25.7425C25.0575 25.9769 25.0575 25.9892 25.2933 25.9892H26.7578C26.9502 25.9892 26.9812 25.9461 27.0308 25.7364L28.9111 16.6728L29.1189 16.6667C29.6992 16.6019 29.8915 16.3028 29.8915 15.4948C29.8946 15.2388 29.8574 15.2111 29.6805 15.1987Z" fill="#2741B0"/>
<path d="M33.3138 24.1943C33.1153 24.4102 32.6995 24.8512 32.1162 24.8512C31.5205 24.8512 31.0613 24.3424 31.0613 23.6762C31.0613 22.1898 32.8298 22.2792 33.3138 22.3132V24.1943ZM35.2034 24.5737C35.1165 24.2591 35.0358 23.8613 35.0358 23.1335V20.284C35.0358 18.4892 34.2508 17.6904 32.4699 17.6904C31.2288 17.6904 29.9164 18.2209 29.9164 18.557C29.9164 18.5971 29.9722 18.8623 30.056 19.0998C30.0932 19.2046 30.1739 19.4482 30.7013 19.4112C30.9154 19.3958 31.8245 19.2231 32.2093 19.2231C33.2176 19.2231 33.3169 19.8091 33.3169 20.4968V21.0642C32.0603 21.0642 29.3455 21.0765 29.3455 23.7903C29.3455 25.32 30.1987 26.2698 31.5763 26.2698C32.6188 26.2698 33.1401 25.7024 33.4534 25.357L33.5745 25.2244L33.6117 25.431C33.6768 25.764 33.7389 25.9922 33.9933 25.9922H35.8208C36.0473 25.9922 36.0752 25.9737 36.0752 25.7147C36.0752 24.8975 35.8829 24.6107 35.2034 24.5737Z" fill="#2741B0"/>
<path d="M22.3612 11.2203L22.1657 11.2141V4.79346C22.1657 4.63618 22.1533 4.61768 22.0044 4.61768H19.4478C19.2244 4.61768 19.1996 4.63618 19.1996 4.90139C19.1996 5.77413 19.4323 6.04243 20.1924 6.04243H20.3755V11.2172L20.18 11.2234C19.4198 11.2234 19.1902 11.4916 19.1902 12.3644C19.1902 12.6265 19.2244 12.6481 19.4447 12.6481H23.0997C23.3138 12.6481 23.3541 12.6265 23.3541 12.3644C23.3541 11.4978 23.109 11.2203 22.3612 11.2203Z" fill="#2741B0"/>
<path d="M21.2536 1.56787C20.6393 1.56787 20.1646 2.07671 20.1646 2.72124C20.1646 3.35652 20.6517 3.88078 21.2536 3.88078C21.8431 3.88078 22.3178 3.35652 22.3178 2.72124C22.3178 2.08905 21.8431 1.56787 21.2536 1.56787Z" fill="#2741B0"/>
<path d="M9.16231 3.60025H9.20885C9.98453 3.60025 10.2296 3.31653 10.2296 2.42221C10.2296 2.16008 10.1955 2.13232 9.97212 2.13232H6.45364C6.25507 2.13232 6.22404 2.16625 6.20542 2.28652L6.19612 2.42221C6.19612 3.31345 6.43813 3.59408 7.20139 3.60025H7.25104V8.87061C7.25104 9.88212 7.25104 11.2544 5.62211 11.2544C4.1142 11.2544 3.99319 10.1751 3.99319 8.87061V3.60025H4.04594C4.803 3.59408 5.04811 3.31345 5.04811 2.42221L5.0357 2.25876C5.01398 2.16316 4.98296 2.13541 4.79059 2.13541H1.27522C1.05182 2.13541 1.01459 2.16316 1.01459 2.42529C1.01459 3.32887 1.24729 3.60334 2.03848 3.60334H2.08502V8.87369C2.08502 11.7109 3.14305 12.9259 5.62211 12.9259C8.10118 12.9259 9.16231 11.7109 9.16231 8.87369V3.60025Z" fill="#2741B0"/>
<path d="M17.3131 11.2203V6.88127C17.3131 5.12346 16.7329 4.33398 15.4329 4.33398C14.2694 4.33398 13.6271 5.00935 13.1276 5.51819C13.0841 5.33316 13.0469 5.18514 13.0469 5.18514C12.9693 4.83357 12.9011 4.61462 12.6715 4.61462H10.6982C10.4779 4.61462 10.4468 4.63312 10.4468 4.89833C10.4468 5.72482 10.6547 6.01778 11.3559 6.03629C11.4552 6.38477 11.5204 6.6654 11.5204 7.49496V11.2203C10.7757 11.2265 10.5492 11.4978 10.5492 12.3613C10.5492 12.6235 10.5865 12.645 10.8037 12.645H13.1555C13.2982 12.645 13.3075 12.6235 13.3075 12.4723V6.65615C13.5247 6.43411 14.0119 5.94994 14.6386 5.94994C15.5291 5.94994 15.5291 6.96145 15.5291 7.39319V12.4693C15.5291 12.6204 15.5353 12.642 15.6873 12.642H18.0268C18.2409 12.642 18.2812 12.6204 18.2812 12.3582C18.2781 11.5071 18.0392 11.2265 17.3131 11.2203Z" fill="#2741B0"/>
<path d="M26.7547 12.9258C27.7972 12.9258 28.6443 12.6575 28.6443 12.4323C28.6443 12.3922 28.5822 12.0869 28.545 11.9389C28.3991 11.3345 28.3402 11.1124 27.2356 11.2512C27.096 11.2666 26.9688 11.2358 26.8819 11.1494C26.6678 10.9336 26.6678 10.4617 26.6678 10.0793V6.03945H27.6607C28.424 6.03945 28.6505 5.77423 28.6505 4.89841C28.6505 4.6332 28.6163 4.6147 28.396 4.6147H26.6678V2.36346C26.6678 2.14759 26.6492 2.13525 26.5654 2.13525C26.4879 2.13525 26.1218 2.1846 25.9387 2.20927C25.4268 2.29562 24.8807 2.68727 24.8807 3.59701V4.61778H23.8568C23.6396 4.61778 23.6024 4.63628 23.6024 4.9015C23.6024 5.77423 23.8382 6.04253 24.5921 6.04253H24.8807V9.80487C24.8807 11.3345 24.8807 12.9258 26.7547 12.9258Z" fill="#2741B0"/>
<path d="M31.1512 7.71734L31.1605 7.57856C31.2102 7.02963 31.3219 5.75599 32.4668 5.75599C33.5868 5.75599 33.59 7.0543 33.59 7.71734H31.1512ZM35.4361 8.77511C35.4361 5.83308 34.4463 4.3374 32.5102 4.3374C30.5865 4.3374 29.302 6.09213 29.302 8.71343C29.302 12.192 31.0861 12.9291 32.5878 12.9291C33.7947 12.9291 35.1972 12.3647 35.1972 12.0101C35.1972 11.9546 35.1382 11.6832 35.0575 11.4396C35.0017 11.2638 34.8962 11.0819 34.3873 11.1065C33.9933 11.125 33.3635 11.307 32.7801 11.307C31.6632 11.307 31.0954 10.6131 31.0861 9.13592H35.1475C35.3864 9.13284 35.4361 9.07116 35.4361 8.77511Z" fill="#2741B0"/>
<path d="M39.4169 11.3898C38.3309 11.3898 38.1137 10.3968 38.1137 8.6791C38.1137 6.85652 38.3402 5.87276 39.5099 5.87276C39.9722 5.87276 40.3135 5.97145 40.7014 6.22433V10.7792C40.4687 11.0475 40.1398 11.3898 39.4169 11.3898ZM42.653 11.2202C42.5537 10.9057 42.4916 10.5757 42.4916 9.78621V1.78045C42.4916 1.63243 42.4792 1.61084 42.3303 1.61084H39.9753C39.7551 1.61084 39.7147 1.63243 39.7147 1.88839C39.7147 2.73337 39.9443 3.01709 40.6486 3.02943H40.6952V4.87667L40.5493 4.77799C40.2794 4.58987 39.9133 4.33699 39.1283 4.33699C37.2915 4.33699 36.3141 5.93444 36.3141 8.96281C36.3141 11.5163 37.2046 12.9287 38.818 12.9287C40.0964 12.9287 40.9372 11.9974 40.9372 11.9974L41.0396 12.3427C41.114 12.6141 41.1296 12.645 41.3467 12.645H43.4194C43.6334 12.645 43.6707 12.6234 43.6707 12.3613C43.6769 11.5008 43.4504 11.2202 42.653 11.2202Z" fill="#2741B0"/>
</svg>
