<svg width="76" height="31" viewBox="0 0 76 31" fill="none" xmlns="http://www.w3.org/2000/svg">
<g clip-path="url(#clip0_627_485)">
<path d="M63.7654 15.5942C63.7654 18.9843 63.2103 21.7643 62.1001 23.9343C61.3393 25.4421 60.2703 26.7748 58.9617 27.8468L54.551 20.0001C54.9077 18.5178 55.071 16.9958 55.0369 15.4719C55.0369 12.7409 54.5015 10.7458 53.4307 9.48646C52.8958 8.86117 52.2247 8.36569 51.4684 8.03775C50.7122 7.70982 49.8908 7.55807 49.0668 7.59406C48.5973 7.59265 48.1291 7.64366 47.671 7.74613L44.1227 1.43159C45.7427 1.00362 47.4133 0.795379 49.0892 0.812499C53.7881 0.812499 57.4092 2.10834 59.9525 4.70004C62.4957 7.29173 63.7667 10.9231 63.7654 15.5942ZM50.4586 23.9884C50.0257 24.0675 49.5863 24.1062 49.1462 24.1039C48.3253 24.1391 47.5073 23.984 46.7568 23.6508C46.0062 23.3176 45.3436 22.8154 44.821 22.1838C43.7624 20.9042 43.2334 18.8 43.2338 15.8713C43.2091 14.5396 43.3569 13.2102 43.6735 11.9162L39.2113 3.97619C38.9181 4.22626 38.6311 4.49052 38.359 4.76965C35.7931 7.40865 34.5097 11.0961 34.5087 15.8321C34.4033 18.7762 35.0736 21.6965 36.4529 24.3026C37.6073 26.4215 39.3761 28.1447 41.5286 29.2472C44.0061 30.3728 46.7126 30.9087 49.4339 30.8125C50.9726 30.8275 52.5073 30.6539 54.0034 30.2955L50.4586 23.9884ZM67.3075 22.1581V1.33967H76V30.1806H71.8295L67.3075 22.1581ZM18.4768 15.8727L10.3143 1.33967H0V8.73288H6.28832L12.6669 20.1279H18.4768V15.8727ZM30.9754 1.33967V30.1806H23.8721V14.3026L19.7647 6.98511L22.9357 1.33967H30.9754ZM3.12754 14.4141H0V30.1806H7.10396V21.4552L3.12754 14.4141Z" fill="#161615"/>
</g>
<defs>
<clipPath id="clip0_627_485">
<rect width="76" height="30" fill="white" transform="translate(0 0.8125)"/>
</clipPath>
</defs>
</svg>
