<svg width="117" height="25" viewBox="0 0 117 25" fill="none" xmlns="http://www.w3.org/2000/svg">
<g clip-path="url(#clip0_634_16)">
<path d="M37.1729 8.05373C37.1334 8.04937 37.0933 8.04688 37.0527 8.04688C36.4451 8.04688 35.9525 8.53995 35.9525 9.1483V13.6636C35.9525 15.0515 34.8326 16.1807 33.4561 16.1807C32.0797 16.1807 30.9598 15.0515 30.9598 13.6636V9.1483C30.9598 8.53995 30.4672 8.04688 29.8596 8.04688C29.2521 8.04688 28.7595 8.53995 28.7595 9.1483V13.6636C28.7595 16.2662 30.8665 18.3835 33.4561 18.3835C34.4194 18.3835 35.3156 18.0902 36.0617 17.5883C36.2392 17.9581 36.6156 18.2141 37.0527 18.2141C37.6602 18.2141 38.1528 17.7208 38.1528 17.1123V9.1483C38.1528 8.58073 37.7239 8.11373 37.1729 8.05373Z" fill="black"/>
<path d="M45.1565 7.89795C44.1932 7.89795 43.297 8.19131 42.551 8.69323C42.3735 8.32338 41.997 8.06745 41.5599 8.06745C40.9525 8.06745 40.4598 8.56073 40.4598 9.16923V17.1332C40.4598 17.7008 40.8888 18.1677 41.4398 18.2278C41.4793 18.2321 41.5193 18.2347 41.5599 18.2347C42.1675 18.2347 42.6602 17.7415 42.6602 17.1332V12.6179C42.6602 11.23 43.78 10.1009 45.1565 10.1009C46.5329 10.1009 47.6528 11.23 47.6528 12.6179V17.1332C47.6528 17.7415 48.1455 18.2347 48.753 18.2347C49.3605 18.2347 49.8531 17.7415 49.8531 17.1332V12.6179C49.8531 10.0154 47.7462 7.89795 45.1565 7.89795Z" fill="black"/>
<path d="M83.2726 8.46145C82.5927 8.09273 81.8222 7.89795 81.0446 7.89795C80.0843 7.89795 79.1911 8.18902 78.4471 8.68702C78.2687 8.32052 77.8934 8.06745 77.459 8.06745C76.8519 8.06745 76.3589 8.56066 76.3589 9.16916V17.1329C76.3589 17.7413 76.8519 18.2347 77.459 18.2347C78.0668 18.2347 78.5591 17.7413 78.5591 17.1329V12.5891C78.5591 11.2171 79.6741 10.1009 81.0446 10.1009C81.4634 10.1009 81.8607 10.2011 82.2253 10.3987C82.7596 10.6884 83.4274 10.4894 83.7163 9.95452C84.006 9.41959 83.8069 8.75109 83.2726 8.46145Z" fill="black"/>
<path d="M57.0124 16.2012C55.3326 16.2012 53.966 14.8329 53.966 13.151C53.966 11.4692 55.3326 10.1009 57.0124 10.1009C58.6923 10.1009 60.0589 11.4692 60.0589 13.151C60.0589 14.8329 58.6923 16.2012 57.0124 16.2012ZM57.0124 7.89795C54.1194 7.89795 51.7657 10.2545 51.7657 13.151C51.7657 16.0476 54.1194 18.4041 57.0124 18.4041C59.9055 18.4041 62.2592 16.0476 62.2592 13.151C62.2592 10.2545 59.9055 7.89795 57.0124 7.89795Z" fill="black"/>
<path d="M69.3091 16.2003C67.6292 16.2003 66.2627 14.8321 66.2627 13.1502C66.2627 11.4682 67.6292 10.1 69.3091 10.1C70.9889 10.1 72.3552 11.4682 72.3552 13.1502C72.3552 14.8321 70.9889 16.2003 69.3091 16.2003ZM69.3091 7.89708C68.1737 7.89708 67.1223 8.26122 66.2627 8.87737V4.08352C66.2627 3.4757 65.7701 2.98291 65.1625 2.98291C64.5549 2.98291 64.0624 3.4757 64.0624 4.08352V17.1332C64.0624 17.741 64.5549 18.2338 65.1625 18.2338C65.6783 18.2338 66.11 17.8782 66.229 17.3989C67.0947 18.0297 68.1589 18.4032 69.3091 18.4032C72.2019 18.4032 74.5554 16.0467 74.5554 13.1502C74.5554 10.2536 72.2019 7.89708 69.3091 7.89708Z" fill="black"/>
<path d="M89.9366 16.2012C88.2573 16.2012 86.8904 14.8329 86.8904 13.151C86.8904 11.4692 88.2573 10.1009 89.9366 10.1009C91.6167 10.1009 92.9829 11.4692 92.9829 13.151C92.9829 14.8329 91.6167 16.2012 89.9366 16.2012ZM89.9366 7.89795C87.0437 7.89795 84.6902 10.2545 84.6902 13.151C84.6902 16.0476 87.0437 18.4041 89.9366 18.4041C91.0874 18.4041 92.1511 18.0307 93.0172 17.3997C93.1363 17.8791 93.5679 18.2347 94.083 18.2347C94.6908 18.2347 95.1838 17.7414 95.1838 17.1329V13.2501C95.1838 13.2389 95.1824 13.2281 95.1817 13.2169C95.1824 13.1949 95.1838 13.1732 95.1838 13.151C95.1838 10.2545 92.8295 7.89795 89.9366 7.89795Z" fill="black"/>
<path d="M111.753 16.2012C110.073 16.2012 108.707 14.8329 108.707 13.151C108.707 11.4692 110.073 10.1009 111.753 10.1009C113.433 10.1009 114.8 11.4692 114.8 13.151C114.8 14.8329 113.433 16.2012 111.753 16.2012ZM111.753 7.89795C108.86 7.89795 106.506 10.2545 106.506 13.151C106.506 16.0476 108.86 18.4041 111.753 18.4041C114.646 18.4041 117 16.0476 117 13.151C117 10.2545 114.646 7.89795 111.753 7.89795Z" fill="black"/>
<path d="M104.999 8.00599C104.446 7.75314 103.793 7.99664 103.541 8.54978L100.828 14.4909L98.0945 8.53935C97.8405 7.98678 97.187 7.74478 96.6356 7.99899C96.0834 8.25314 95.8415 8.90728 96.0955 9.45992L99.8324 17.5934C100.011 17.9843 100.402 18.2346 100.831 18.2346H100.833C101.263 18.2341 101.653 17.9828 101.832 17.5911L105.542 9.46571C105.794 8.91242 105.551 8.25892 104.999 8.00599Z" fill="black"/>
<path d="M5.96597 20.3386C5.96597 20.0882 5.98916 19.8435 6.03111 19.6052L6.03002 19.6039C6.03315 19.5873 6.03705 19.5703 6.04034 19.5537C6.04797 19.5134 6.0561 19.4734 6.06489 19.4336C6.06818 19.4184 6.07192 19.4031 6.07548 19.3877C6.08486 19.3471 6.09418 19.3064 6.10474 19.2663C6.59075 17.3429 8.2338 14.9522 10.1548 12.8673C8.20306 10.7492 5.96444 8.94666 4.36057 8.27159C4.35482 8.26909 4.34907 8.26659 4.3433 8.26409C4.33916 8.26238 4.33494 8.26045 4.33079 8.2588C4.00185 8.1223 3.64085 8.04688 3.26267 8.04688C2.01854 8.04688 0.964872 8.86166 0.603786 9.98723C0.602364 9.99166 0.600659 9.99616 0.599298 10.0005C0.596861 10.0084 0.594403 10.0162 0.591945 10.0242C0.1915 11.2894 0 12.6083 0 14.3654C0 19.9714 4.5316 24.5177 10.1273 24.5326L10.1278 24.5319C10.1369 24.532 10.1458 24.5326 10.1548 24.5326C7.84143 24.5326 5.96597 22.6549 5.96597 20.3386Z" fill="#FFB380"/>
<path d="M19.6775 10.0242C19.675 10.0162 19.6727 10.0084 19.6701 10.0005C19.6688 9.99609 19.6675 9.9918 19.6661 9.98737C19.3051 8.8618 18.251 8.04688 17.0069 8.04688C16.6285 8.04688 16.2681 8.12252 15.9392 8.25902C15.935 8.26066 15.9302 8.26245 15.9261 8.26409C15.9203 8.26659 15.9147 8.26909 15.9089 8.27159C14.3049 8.94666 12.0663 10.7492 10.1146 12.8673C12.0356 14.9521 13.6786 17.3427 14.1647 19.2662C14.1753 19.3065 14.1847 19.3474 14.1942 19.3882C14.1976 19.4032 14.2012 19.4184 14.2045 19.4334C14.2133 19.4733 14.2215 19.5134 14.2292 19.5538C14.2325 19.5704 14.2363 19.5874 14.2394 19.6039L14.2384 19.6052C14.2803 19.8436 14.3034 20.0882 14.3034 20.3386C14.3034 22.6549 12.428 24.5326 10.1146 24.5326C10.1237 24.5326 10.1326 24.5319 10.1417 24.5319L10.1422 24.5326C15.7379 24.5177 20.2694 19.9714 20.2694 14.3654C20.2694 12.6083 20.078 11.2894 19.6775 10.0242Z" fill="#FF5032"/>
<path d="M14.3275 20.3585C14.3275 20.1081 14.3043 19.8634 14.2624 19.6251L14.2634 19.6239C14.2603 19.6074 14.2564 19.5904 14.2532 19.5736C14.2455 19.5334 14.2373 19.4932 14.2286 19.4533C14.2253 19.4383 14.2216 19.4231 14.2181 19.4081C14.2087 19.3673 14.1994 19.3264 14.1888 19.2861C13.7027 17.3626 12.0596 14.972 10.1386 12.8872C8.21761 14.9721 6.57453 17.3628 6.08855 19.2862C6.07797 19.3263 6.06867 19.3669 6.05928 19.4076C6.05573 19.4229 6.05199 19.4383 6.0487 19.4534C6.03989 19.4933 6.03176 19.5333 6.02415 19.5735C6.02086 19.5902 6.01696 19.6072 6.01383 19.6239L6.01492 19.6251C5.97296 19.8634 5.94977 20.1081 5.94977 20.3585C5.94977 22.6748 7.82524 24.5525 10.1386 24.5525C12.4521 24.5525 14.3275 22.6748 14.3275 20.3585Z" fill="#FF7850"/>
<path d="M2.79258 0.600098C4.33486 0.600098 5.58517 1.85193 5.58517 3.39609C5.58517 4.94023 4.33484 6.19208 2.79258 6.19208C1.25031 6.19208 0 4.94023 0 3.39609C0 1.85193 1.25032 0.600098 2.79258 0.600098Z" fill="#FFB380"/>
<path d="M17.4692 0.600098C19.0114 0.600098 20.2617 1.85193 20.2617 3.39609C20.2617 4.94023 19.0114 6.19208 17.4692 6.19208C15.9268 6.19208 14.6766 4.94023 14.6766 3.39609C14.6766 1.85193 15.9269 0.600098 17.4692 0.600098Z" fill="#FF5032"/>
</g>
<defs>
<clipPath id="clip0_634_16">
<rect width="117" height="25" fill="white"/>
</clipPath>
</defs>
</svg>
